<?xml version="1.0" encoding="utf-8" standalone="no"?>
<!DOCTYPE svg PUBLIC "-//W3C//DTD SVG 1.1//EN"
  "http://www.w3.org/Graphics/SVG/1.1/DTD/svg11.dtd">
<!-- Created with matplotlib (http://matplotlib.org/) -->
<svg height="735.84pt" version="1.1" viewBox="0 0 1335.6 735.84" width="1335.6pt" xmlns="http://www.w3.org/2000/svg" xmlns:xlink="http://www.w3.org/1999/xlink">
 <defs>
  <style type="text/css">
*{stroke-linecap:butt;stroke-linejoin:round;}
  </style>
 </defs>
 <g id="figure_1">
  <g id="patch_1">
   <path d="M 0 735.84 
L 1335.6 735.84 
L 1335.6 0 
L 0 0 
z
" style="fill:#ffffff;"/>
  </g>
  <g id="axes_1">
   <g id="patch_2">
    <path d="M 166.95 654.8976 
L 1202.04 654.8976 
L 1202.04 88.3008 
L 166.95 88.3008 
z
" style="fill:#ffffff;"/>
   </g>
   <g id="matplotlib.axis_1">
    <g id="xtick_1">
     <g id="line2d_1">
      <defs>
       <path d="M 0 0 
L 0 3.5 
" id="maf0c676f07" style="stroke:#000000;stroke-width:0.8;"/>
      </defs>
      <g>
       <use style="stroke:#000000;stroke-width:0.8;" x="213.057613" xlink:href="#maf0c676f07" y="654.8976"/>
      </g>
     </g>
     <g id="text_1">
      <!-- 0 -->
      <defs>
       <path d="M 31.78125 66.40625 
Q 24.171875 66.40625 20.328125 58.90625 
Q 16.5 51.421875 16.5 36.375 
Q 16.5 21.390625 20.328125 13.890625 
Q 24.171875 6.390625 31.78125 6.390625 
Q 39.453125 6.390625 43.28125 13.890625 
Q 47.125 21.390625 47.125 36.375 
Q 47.125 51.421875 43.28125 58.90625 
Q 39.453125 66.40625 31.78125 66.40625 
z
M 31.78125 74.21875 
Q 44.046875 74.21875 50.515625 64.515625 
Q 56.984375 54.828125 56.984375 36.375 
Q 56.984375 17.96875 50.515625 8.265625 
Q 44.046875 -1.421875 31.78125 -1.421875 
Q 19.53125 -1.421875 13.0625 8.265625 
Q 6.59375 17.96875 6.59375 36.375 
Q 6.59375 54.828125 13.0625 64.515625 
Q 19.53125 74.21875 31.78125 74.21875 
z
" id="DejaVuSans-30"/>
      </defs>
      <g transform="translate(209.876363 669.496038)scale(0.1 -0.1)">
       <use xlink:href="#DejaVuSans-30"/>
      </g>
     </g>
    </g>
    <g id="xtick_2">
     <g id="line2d_2">
      <g>
       <use style="stroke:#000000;stroke-width:0.8;" x="401.444181" xlink:href="#maf0c676f07" y="654.8976"/>
      </g>
     </g>
     <g id="text_2">
      <!-- 200 -->
      <defs>
       <path d="M 19.1875 8.296875 
L 53.609375 8.296875 
L 53.609375 0 
L 7.328125 0 
L 7.328125 8.296875 
Q 12.9375 14.109375 22.625 23.890625 
Q 32.328125 33.6875 34.8125 36.53125 
Q 39.546875 41.84375 41.421875 45.53125 
Q 43.3125 49.21875 43.3125 52.78125 
Q 43.3125 58.59375 39.234375 62.25 
Q 35.15625 65.921875 28.609375 65.921875 
Q 23.96875 65.921875 18.8125 64.3125 
Q 13.671875 62.703125 7.8125 59.421875 
L 7.8125 69.390625 
Q 13.765625 71.78125 18.9375 73 
Q 24.125 74.21875 28.421875 74.21875 
Q 39.75 74.21875 46.484375 68.546875 
Q 53.21875 62.890625 53.21875 53.421875 
Q 53.21875 48.921875 51.53125 44.890625 
Q 49.859375 40.875 45.40625 35.40625 
Q 44.1875 33.984375 37.640625 27.21875 
Q 31.109375 20.453125 19.1875 8.296875 
z
" id="DejaVuSans-32"/>
      </defs>
      <g transform="translate(391.900431 669.496038)scale(0.1 -0.1)">
       <use xlink:href="#DejaVuSans-32"/>
       <use x="63.623047" xlink:href="#DejaVuSans-30"/>
       <use x="127.246094" xlink:href="#DejaVuSans-30"/>
      </g>
     </g>
    </g>
    <g id="xtick_3">
     <g id="line2d_3">
      <g>
       <use style="stroke:#000000;stroke-width:0.8;" x="589.830749" xlink:href="#maf0c676f07" y="654.8976"/>
      </g>
     </g>
     <g id="text_3">
      <!-- 400 -->
      <defs>
       <path d="M 37.796875 64.3125 
L 12.890625 25.390625 
L 37.796875 25.390625 
z
M 35.203125 72.90625 
L 47.609375 72.90625 
L 47.609375 25.390625 
L 58.015625 25.390625 
L 58.015625 17.1875 
L 47.609375 17.1875 
L 47.609375 0 
L 37.796875 0 
L 37.796875 17.1875 
L 4.890625 17.1875 
L 4.890625 26.703125 
z
" id="DejaVuSans-34"/>
      </defs>
      <g transform="translate(580.286999 669.496038)scale(0.1 -0.1)">
       <use xlink:href="#DejaVuSans-34"/>
       <use x="63.623047" xlink:href="#DejaVuSans-30"/>
       <use x="127.246094" xlink:href="#DejaVuSans-30"/>
      </g>
     </g>
    </g>
    <g id="xtick_4">
     <g id="line2d_4">
      <g>
       <use style="stroke:#000000;stroke-width:0.8;" x="778.217318" xlink:href="#maf0c676f07" y="654.8976"/>
      </g>
     </g>
     <g id="text_4">
      <!-- 600 -->
      <defs>
       <path d="M 33.015625 40.375 
Q 26.375 40.375 22.484375 35.828125 
Q 18.609375 31.296875 18.609375 23.390625 
Q 18.609375 15.53125 22.484375 10.953125 
Q 26.375 6.390625 33.015625 6.390625 
Q 39.65625 6.390625 43.53125 10.953125 
Q 47.40625 15.53125 47.40625 23.390625 
Q 47.40625 31.296875 43.53125 35.828125 
Q 39.65625 40.375 33.015625 40.375 
z
M 52.59375 71.296875 
L 52.59375 62.3125 
Q 48.875 64.0625 45.09375 64.984375 
Q 41.3125 65.921875 37.59375 65.921875 
Q 27.828125 65.921875 22.671875 59.328125 
Q 17.53125 52.734375 16.796875 39.40625 
Q 19.671875 43.65625 24.015625 45.921875 
Q 28.375 48.1875 33.59375 48.1875 
Q 44.578125 48.1875 50.953125 41.515625 
Q 57.328125 34.859375 57.328125 23.390625 
Q 57.328125 12.15625 50.6875 5.359375 
Q 44.046875 -1.421875 33.015625 -1.421875 
Q 20.359375 -1.421875 13.671875 8.265625 
Q 6.984375 17.96875 6.984375 36.375 
Q 6.984375 53.65625 15.1875 63.9375 
Q 23.390625 74.21875 37.203125 74.21875 
Q 40.921875 74.21875 44.703125 73.484375 
Q 48.484375 72.75 52.59375 71.296875 
z
" id="DejaVuSans-36"/>
      </defs>
      <g transform="translate(768.673568 669.496038)scale(0.1 -0.1)">
       <use xlink:href="#DejaVuSans-36"/>
       <use x="63.623047" xlink:href="#DejaVuSans-30"/>
       <use x="127.246094" xlink:href="#DejaVuSans-30"/>
      </g>
     </g>
    </g>
    <g id="xtick_5">
     <g id="line2d_5">
      <g>
       <use style="stroke:#000000;stroke-width:0.8;" x="966.603886" xlink:href="#maf0c676f07" y="654.8976"/>
      </g>
     </g>
     <g id="text_5">
      <!-- 800 -->
      <defs>
       <path d="M 31.78125 34.625 
Q 24.75 34.625 20.71875 30.859375 
Q 16.703125 27.09375 16.703125 20.515625 
Q 16.703125 13.921875 20.71875 10.15625 
Q 24.75 6.390625 31.78125 6.390625 
Q 38.8125 6.390625 42.859375 10.171875 
Q 46.921875 13.96875 46.921875 20.515625 
Q 46.921875 27.09375 42.890625 30.859375 
Q 38.875 34.625 31.78125 34.625 
z
M 21.921875 38.8125 
Q 15.578125 40.375 12.03125 44.71875 
Q 8.5 49.078125 8.5 55.328125 
Q 8.5 64.0625 14.71875 69.140625 
Q 20.953125 74.21875 31.78125 74.21875 
Q 42.671875 74.21875 48.875 69.140625 
Q 55.078125 64.0625 55.078125 55.328125 
Q 55.078125 49.078125 51.53125 44.71875 
Q 48 40.375 41.703125 38.8125 
Q 48.828125 37.15625 52.796875 32.3125 
Q 56.78125 27.484375 56.78125 20.515625 
Q 56.78125 9.90625 50.3125 4.234375 
Q 43.84375 -1.421875 31.78125 -1.421875 
Q 19.734375 -1.421875 13.25 4.234375 
Q 6.78125 9.90625 6.78125 20.515625 
Q 6.78125 27.484375 10.78125 32.3125 
Q 14.796875 37.15625 21.921875 38.8125 
z
M 18.3125 54.390625 
Q 18.3125 48.734375 21.84375 45.5625 
Q 25.390625 42.390625 31.78125 42.390625 
Q 38.140625 42.390625 41.71875 45.5625 
Q 45.3125 48.734375 45.3125 54.390625 
Q 45.3125 60.0625 41.71875 63.234375 
Q 38.140625 66.40625 31.78125 66.40625 
Q 25.390625 66.40625 21.84375 63.234375 
Q 18.3125 60.0625 18.3125 54.390625 
z
" id="DejaVuSans-38"/>
      </defs>
      <g transform="translate(957.060136 669.496038)scale(0.1 -0.1)">
       <use xlink:href="#DejaVuSans-38"/>
       <use x="63.623047" xlink:href="#DejaVuSans-30"/>
       <use x="127.246094" xlink:href="#DejaVuSans-30"/>
      </g>
     </g>
    </g>
    <g id="xtick_6">
     <g id="line2d_6">
      <g>
       <use style="stroke:#000000;stroke-width:0.8;" x="1154.990455" xlink:href="#maf0c676f07" y="654.8976"/>
      </g>
     </g>
     <g id="text_6">
      <!-- 1000 -->
      <defs>
       <path d="M 12.40625 8.296875 
L 28.515625 8.296875 
L 28.515625 63.921875 
L 10.984375 60.40625 
L 10.984375 69.390625 
L 28.421875 72.90625 
L 38.28125 72.90625 
L 38.28125 8.296875 
L 54.390625 8.296875 
L 54.390625 0 
L 12.40625 0 
z
" id="DejaVuSans-31"/>
      </defs>
      <g transform="translate(1142.265455 669.496038)scale(0.1 -0.1)">
       <use xlink:href="#DejaVuSans-31"/>
       <use x="63.623047" xlink:href="#DejaVuSans-30"/>
       <use x="127.246094" xlink:href="#DejaVuSans-30"/>
       <use x="190.869141" xlink:href="#DejaVuSans-30"/>
      </g>
     </g>
    </g>
    <g id="text_7">
     <!-- Number of Epochs -->
     <defs>
      <path d="M 9.8125 72.90625 
L 23.09375 72.90625 
L 55.421875 11.921875 
L 55.421875 72.90625 
L 64.984375 72.90625 
L 64.984375 0 
L 51.703125 0 
L 19.390625 60.984375 
L 19.390625 0 
L 9.8125 0 
z
" id="DejaVuSans-4e"/>
      <path d="M 8.5 21.578125 
L 8.5 54.6875 
L 17.484375 54.6875 
L 17.484375 21.921875 
Q 17.484375 14.15625 20.5 10.265625 
Q 23.53125 6.390625 29.59375 6.390625 
Q 36.859375 6.390625 41.078125 11.03125 
Q 45.3125 15.671875 45.3125 23.6875 
L 45.3125 54.6875 
L 54.296875 54.6875 
L 54.296875 0 
L 45.3125 0 
L 45.3125 8.40625 
Q 42.046875 3.421875 37.71875 1 
Q 33.40625 -1.421875 27.6875 -1.421875 
Q 18.265625 -1.421875 13.375 4.4375 
Q 8.5 10.296875 8.5 21.578125 
z
M 31.109375 56 
z
" id="DejaVuSans-75"/>
      <path d="M 52 44.1875 
Q 55.375 50.25 60.0625 53.125 
Q 64.75 56 71.09375 56 
Q 79.640625 56 84.28125 50.015625 
Q 88.921875 44.046875 88.921875 33.015625 
L 88.921875 0 
L 79.890625 0 
L 79.890625 32.71875 
Q 79.890625 40.578125 77.09375 44.375 
Q 74.3125 48.1875 68.609375 48.1875 
Q 61.625 48.1875 57.5625 43.546875 
Q 53.515625 38.921875 53.515625 30.90625 
L 53.515625 0 
L 44.484375 0 
L 44.484375 32.71875 
Q 44.484375 40.625 41.703125 44.40625 
Q 38.921875 48.1875 33.109375 48.1875 
Q 26.21875 48.1875 22.15625 43.53125 
Q 18.109375 38.875 18.109375 30.90625 
L 18.109375 0 
L 9.078125 0 
L 9.078125 54.6875 
L 18.109375 54.6875 
L 18.109375 46.1875 
Q 21.1875 51.21875 25.484375 53.609375 
Q 29.78125 56 35.6875 56 
Q 41.65625 56 45.828125 52.96875 
Q 50 49.953125 52 44.1875 
z
" id="DejaVuSans-6d"/>
      <path d="M 48.6875 27.296875 
Q 48.6875 37.203125 44.609375 42.84375 
Q 40.53125 48.484375 33.40625 48.484375 
Q 26.265625 48.484375 22.1875 42.84375 
Q 18.109375 37.203125 18.109375 27.296875 
Q 18.109375 17.390625 22.1875 11.75 
Q 26.265625 6.109375 33.40625 6.109375 
Q 40.53125 6.109375 44.609375 11.75 
Q 48.6875 17.390625 48.6875 27.296875 
z
M 18.109375 46.390625 
Q 20.953125 51.265625 25.265625 53.625 
Q 29.59375 56 35.59375 56 
Q 45.5625 56 51.78125 48.09375 
Q 58.015625 40.1875 58.015625 27.296875 
Q 58.015625 14.40625 51.78125 6.484375 
Q 45.5625 -1.421875 35.59375 -1.421875 
Q 29.59375 -1.421875 25.265625 0.953125 
Q 20.953125 3.328125 18.109375 8.203125 
L 18.109375 0 
L 9.078125 0 
L 9.078125 75.984375 
L 18.109375 75.984375 
z
" id="DejaVuSans-62"/>
      <path d="M 56.203125 29.59375 
L 56.203125 25.203125 
L 14.890625 25.203125 
Q 15.484375 15.921875 20.484375 11.0625 
Q 25.484375 6.203125 34.421875 6.203125 
Q 39.59375 6.203125 44.453125 7.46875 
Q 49.3125 8.734375 54.109375 11.28125 
L 54.109375 2.78125 
Q 49.265625 0.734375 44.1875 -0.34375 
Q 39.109375 -1.421875 33.890625 -1.421875 
Q 20.796875 -1.421875 13.15625 6.1875 
Q 5.515625 13.8125 5.515625 26.8125 
Q 5.515625 40.234375 12.765625 48.109375 
Q 20.015625 56 32.328125 56 
Q 43.359375 56 49.78125 48.890625 
Q 56.203125 41.796875 56.203125 29.59375 
z
M 47.21875 32.234375 
Q 47.125 39.59375 43.09375 43.984375 
Q 39.0625 48.390625 32.421875 48.390625 
Q 24.90625 48.390625 20.390625 44.140625 
Q 15.875 39.890625 15.1875 32.171875 
z
" id="DejaVuSans-65"/>
      <path d="M 41.109375 46.296875 
Q 39.59375 47.171875 37.8125 47.578125 
Q 36.03125 48 33.890625 48 
Q 26.265625 48 22.1875 43.046875 
Q 18.109375 38.09375 18.109375 28.8125 
L 18.109375 0 
L 9.078125 0 
L 9.078125 54.6875 
L 18.109375 54.6875 
L 18.109375 46.1875 
Q 20.953125 51.171875 25.484375 53.578125 
Q 30.03125 56 36.53125 56 
Q 37.453125 56 38.578125 55.875 
Q 39.703125 55.765625 41.0625 55.515625 
z
" id="DejaVuSans-72"/>
      <path id="DejaVuSans-20"/>
      <path d="M 30.609375 48.390625 
Q 23.390625 48.390625 19.1875 42.75 
Q 14.984375 37.109375 14.984375 27.296875 
Q 14.984375 17.484375 19.15625 11.84375 
Q 23.34375 6.203125 30.609375 6.203125 
Q 37.796875 6.203125 41.984375 11.859375 
Q 46.1875 17.53125 46.1875 27.296875 
Q 46.1875 37.015625 41.984375 42.703125 
Q 37.796875 48.390625 30.609375 48.390625 
z
M 30.609375 56 
Q 42.328125 56 49.015625 48.375 
Q 55.71875 40.765625 55.71875 27.296875 
Q 55.71875 13.875 49.015625 6.21875 
Q 42.328125 -1.421875 30.609375 -1.421875 
Q 18.84375 -1.421875 12.171875 6.21875 
Q 5.515625 13.875 5.515625 27.296875 
Q 5.515625 40.765625 12.171875 48.375 
Q 18.84375 56 30.609375 56 
z
" id="DejaVuSans-6f"/>
      <path d="M 37.109375 75.984375 
L 37.109375 68.5 
L 28.515625 68.5 
Q 23.6875 68.5 21.796875 66.546875 
Q 19.921875 64.59375 19.921875 59.515625 
L 19.921875 54.6875 
L 34.71875 54.6875 
L 34.71875 47.703125 
L 19.921875 47.703125 
L 19.921875 0 
L 10.890625 0 
L 10.890625 47.703125 
L 2.296875 47.703125 
L 2.296875 54.6875 
L 10.890625 54.6875 
L 10.890625 58.5 
Q 10.890625 67.625 15.140625 71.796875 
Q 19.390625 75.984375 28.609375 75.984375 
z
" id="DejaVuSans-66"/>
      <path d="M 9.8125 72.90625 
L 55.90625 72.90625 
L 55.90625 64.59375 
L 19.671875 64.59375 
L 19.671875 43.015625 
L 54.390625 43.015625 
L 54.390625 34.71875 
L 19.671875 34.71875 
L 19.671875 8.296875 
L 56.78125 8.296875 
L 56.78125 0 
L 9.8125 0 
z
" id="DejaVuSans-45"/>
      <path d="M 18.109375 8.203125 
L 18.109375 -20.796875 
L 9.078125 -20.796875 
L 9.078125 54.6875 
L 18.109375 54.6875 
L 18.109375 46.390625 
Q 20.953125 51.265625 25.265625 53.625 
Q 29.59375 56 35.59375 56 
Q 45.5625 56 51.78125 48.09375 
Q 58.015625 40.1875 58.015625 27.296875 
Q 58.015625 14.40625 51.78125 6.484375 
Q 45.5625 -1.421875 35.59375 -1.421875 
Q 29.59375 -1.421875 25.265625 0.953125 
Q 20.953125 3.328125 18.109375 8.203125 
z
M 48.6875 27.296875 
Q 48.6875 37.203125 44.609375 42.84375 
Q 40.53125 48.484375 33.40625 48.484375 
Q 26.265625 48.484375 22.1875 42.84375 
Q 18.109375 37.203125 18.109375 27.296875 
Q 18.109375 17.390625 22.1875 11.75 
Q 26.265625 6.109375 33.40625 6.109375 
Q 40.53125 6.109375 44.609375 11.75 
Q 48.6875 17.390625 48.6875 27.296875 
z
" id="DejaVuSans-70"/>
      <path d="M 48.78125 52.59375 
L 48.78125 44.1875 
Q 44.96875 46.296875 41.140625 47.34375 
Q 37.3125 48.390625 33.40625 48.390625 
Q 24.65625 48.390625 19.8125 42.84375 
Q 14.984375 37.3125 14.984375 27.296875 
Q 14.984375 17.28125 19.8125 11.734375 
Q 24.65625 6.203125 33.40625 6.203125 
Q 37.3125 6.203125 41.140625 7.25 
Q 44.96875 8.296875 48.78125 10.40625 
L 48.78125 2.09375 
Q 45.015625 0.34375 40.984375 -0.53125 
Q 36.96875 -1.421875 32.421875 -1.421875 
Q 20.0625 -1.421875 12.78125 6.34375 
Q 5.515625 14.109375 5.515625 27.296875 
Q 5.515625 40.671875 12.859375 48.328125 
Q 20.21875 56 33.015625 56 
Q 37.15625 56 41.109375 55.140625 
Q 45.0625 54.296875 48.78125 52.59375 
z
" id="DejaVuSans-63"/>
      <path d="M 54.890625 33.015625 
L 54.890625 0 
L 45.90625 0 
L 45.90625 32.71875 
Q 45.90625 40.484375 42.875 44.328125 
Q 39.84375 48.1875 33.796875 48.1875 
Q 26.515625 48.1875 22.3125 43.546875 
Q 18.109375 38.921875 18.109375 30.90625 
L 18.109375 0 
L 9.078125 0 
L 9.078125 75.984375 
L 18.109375 75.984375 
L 18.109375 46.1875 
Q 21.34375 51.125 25.703125 53.5625 
Q 30.078125 56 35.796875 56 
Q 45.21875 56 50.046875 50.171875 
Q 54.890625 44.34375 54.890625 33.015625 
z
" id="DejaVuSans-68"/>
      <path d="M 44.28125 53.078125 
L 44.28125 44.578125 
Q 40.484375 46.53125 36.375 47.5 
Q 32.28125 48.484375 27.875 48.484375 
Q 21.1875 48.484375 17.84375 46.4375 
Q 14.5 44.390625 14.5 40.28125 
Q 14.5 37.15625 16.890625 35.375 
Q 19.28125 33.59375 26.515625 31.984375 
L 29.59375 31.296875 
Q 39.15625 29.25 43.1875 25.515625 
Q 47.21875 21.78125 47.21875 15.09375 
Q 47.21875 7.46875 41.1875 3.015625 
Q 35.15625 -1.421875 24.609375 -1.421875 
Q 20.21875 -1.421875 15.453125 -0.5625 
Q 10.6875 0.296875 5.421875 2 
L 5.421875 11.28125 
Q 10.40625 8.6875 15.234375 7.390625 
Q 20.0625 6.109375 24.8125 6.109375 
Q 31.15625 6.109375 34.5625 8.28125 
Q 37.984375 10.453125 37.984375 14.40625 
Q 37.984375 18.0625 35.515625 20.015625 
Q 33.0625 21.96875 24.703125 23.78125 
L 21.578125 24.515625 
Q 13.234375 26.265625 9.515625 29.90625 
Q 5.8125 33.546875 5.8125 39.890625 
Q 5.8125 47.609375 11.28125 51.796875 
Q 16.75 56 26.8125 56 
Q 31.78125 56 36.171875 55.265625 
Q 40.578125 54.546875 44.28125 53.078125 
z
" id="DejaVuSans-73"/>
     </defs>
     <g transform="translate(638.495781 683.174163)scale(0.1 -0.1)">
      <use xlink:href="#DejaVuSans-4e"/>
      <use x="74.804688" xlink:href="#DejaVuSans-75"/>
      <use x="138.183594" xlink:href="#DejaVuSans-6d"/>
      <use x="235.595703" xlink:href="#DejaVuSans-62"/>
      <use x="299.072266" xlink:href="#DejaVuSans-65"/>
      <use x="360.595703" xlink:href="#DejaVuSans-72"/>
      <use x="401.708984" xlink:href="#DejaVuSans-20"/>
      <use x="433.496094" xlink:href="#DejaVuSans-6f"/>
      <use x="494.677734" xlink:href="#DejaVuSans-66"/>
      <use x="529.882812" xlink:href="#DejaVuSans-20"/>
      <use x="561.669922" xlink:href="#DejaVuSans-45"/>
      <use x="624.853516" xlink:href="#DejaVuSans-70"/>
      <use x="688.330078" xlink:href="#DejaVuSans-6f"/>
      <use x="749.511719" xlink:href="#DejaVuSans-63"/>
      <use x="804.492188" xlink:href="#DejaVuSans-68"/>
      <use x="867.871094" xlink:href="#DejaVuSans-73"/>
     </g>
    </g>
   </g>
   <g id="matplotlib.axis_2">
    <g id="ytick_1">
     <g id="line2d_7">
      <defs>
       <path d="M 0 0 
L -3.5 0 
" id="m472e1072cf" style="stroke:#000000;stroke-width:0.8;"/>
      </defs>
      <g>
       <use style="stroke:#000000;stroke-width:0.8;" x="166.95" xlink:href="#m472e1072cf" y="644.582553"/>
      </g>
     </g>
     <g id="text_8">
      <!-- 0.26 -->
      <defs>
       <path d="M 10.6875 12.40625 
L 21 12.40625 
L 21 0 
L 10.6875 0 
z
" id="DejaVuSans-2e"/>
      </defs>
      <g transform="translate(137.684375 648.381772)scale(0.1 -0.1)">
       <use xlink:href="#DejaVuSans-30"/>
       <use x="63.623047" xlink:href="#DejaVuSans-2e"/>
       <use x="95.410156" xlink:href="#DejaVuSans-32"/>
       <use x="159.033203" xlink:href="#DejaVuSans-36"/>
      </g>
     </g>
    </g>
    <g id="ytick_2">
     <g id="line2d_8">
      <g>
       <use style="stroke:#000000;stroke-width:0.8;" x="166.95" xlink:href="#m472e1072cf" y="555.443548"/>
      </g>
     </g>
     <g id="text_9">
      <!-- 0.28 -->
      <g transform="translate(137.684375 559.242767)scale(0.1 -0.1)">
       <use xlink:href="#DejaVuSans-30"/>
       <use x="63.623047" xlink:href="#DejaVuSans-2e"/>
       <use x="95.410156" xlink:href="#DejaVuSans-32"/>
       <use x="159.033203" xlink:href="#DejaVuSans-38"/>
      </g>
     </g>
    </g>
    <g id="ytick_3">
     <g id="line2d_9">
      <g>
       <use style="stroke:#000000;stroke-width:0.8;" x="166.95" xlink:href="#m472e1072cf" y="466.304542"/>
      </g>
     </g>
     <g id="text_10">
      <!-- 0.30 -->
      <defs>
       <path d="M 40.578125 39.3125 
Q 47.65625 37.796875 51.625 33 
Q 55.609375 28.21875 55.609375 21.1875 
Q 55.609375 10.40625 48.1875 4.484375 
Q 40.765625 -1.421875 27.09375 -1.421875 
Q 22.515625 -1.421875 17.65625 -0.515625 
Q 12.796875 0.390625 7.625 2.203125 
L 7.625 11.71875 
Q 11.71875 9.328125 16.59375 8.109375 
Q 21.484375 6.890625 26.8125 6.890625 
Q 36.078125 6.890625 40.9375 10.546875 
Q 45.796875 14.203125 45.796875 21.1875 
Q 45.796875 27.640625 41.28125 31.265625 
Q 36.765625 34.90625 28.71875 34.90625 
L 20.21875 34.90625 
L 20.21875 43.015625 
L 29.109375 43.015625 
Q 36.375 43.015625 40.234375 45.921875 
Q 44.09375 48.828125 44.09375 54.296875 
Q 44.09375 59.90625 40.109375 62.90625 
Q 36.140625 65.921875 28.71875 65.921875 
Q 24.65625 65.921875 20.015625 65.03125 
Q 15.375 64.15625 9.8125 62.3125 
L 9.8125 71.09375 
Q 15.4375 72.65625 20.34375 73.4375 
Q 25.25 74.21875 29.59375 74.21875 
Q 40.828125 74.21875 47.359375 69.109375 
Q 53.90625 64.015625 53.90625 55.328125 
Q 53.90625 49.265625 50.4375 45.09375 
Q 46.96875 40.921875 40.578125 39.3125 
z
" id="DejaVuSans-33"/>
      </defs>
      <g transform="translate(137.684375 470.103761)scale(0.1 -0.1)">
       <use xlink:href="#DejaVuSans-30"/>
       <use x="63.623047" xlink:href="#DejaVuSans-2e"/>
       <use x="95.410156" xlink:href="#DejaVuSans-33"/>
       <use x="159.033203" xlink:href="#DejaVuSans-30"/>
      </g>
     </g>
    </g>
    <g id="ytick_4">
     <g id="line2d_10">
      <g>
       <use style="stroke:#000000;stroke-width:0.8;" x="166.95" xlink:href="#m472e1072cf" y="377.165537"/>
      </g>
     </g>
     <g id="text_11">
      <!-- 0.32 -->
      <g transform="translate(137.684375 380.964756)scale(0.1 -0.1)">
       <use xlink:href="#DejaVuSans-30"/>
       <use x="63.623047" xlink:href="#DejaVuSans-2e"/>
       <use x="95.410156" xlink:href="#DejaVuSans-33"/>
       <use x="159.033203" xlink:href="#DejaVuSans-32"/>
      </g>
     </g>
    </g>
    <g id="ytick_5">
     <g id="line2d_11">
      <g>
       <use style="stroke:#000000;stroke-width:0.8;" x="166.95" xlink:href="#m472e1072cf" y="288.026531"/>
      </g>
     </g>
     <g id="text_12">
      <!-- 0.34 -->
      <g transform="translate(137.684375 291.82575)scale(0.1 -0.1)">
       <use xlink:href="#DejaVuSans-30"/>
       <use x="63.623047" xlink:href="#DejaVuSans-2e"/>
       <use x="95.410156" xlink:href="#DejaVuSans-33"/>
       <use x="159.033203" xlink:href="#DejaVuSans-34"/>
      </g>
     </g>
    </g>
    <g id="ytick_6">
     <g id="line2d_12">
      <g>
       <use style="stroke:#000000;stroke-width:0.8;" x="166.95" xlink:href="#m472e1072cf" y="198.887526"/>
      </g>
     </g>
     <g id="text_13">
      <!-- 0.36 -->
      <g transform="translate(137.684375 202.686745)scale(0.1 -0.1)">
       <use xlink:href="#DejaVuSans-30"/>
       <use x="63.623047" xlink:href="#DejaVuSans-2e"/>
       <use x="95.410156" xlink:href="#DejaVuSans-33"/>
       <use x="159.033203" xlink:href="#DejaVuSans-36"/>
      </g>
     </g>
    </g>
    <g id="ytick_7">
     <g id="line2d_13">
      <g>
       <use style="stroke:#000000;stroke-width:0.8;" x="166.95" xlink:href="#m472e1072cf" y="109.748521"/>
      </g>
     </g>
     <g id="text_14">
      <!-- 0.38 -->
      <g transform="translate(137.684375 113.547739)scale(0.1 -0.1)">
       <use xlink:href="#DejaVuSans-30"/>
       <use x="63.623047" xlink:href="#DejaVuSans-2e"/>
       <use x="95.410156" xlink:href="#DejaVuSans-33"/>
       <use x="159.033203" xlink:href="#DejaVuSans-38"/>
      </g>
     </g>
    </g>
    <g id="text_15">
     <!-- Mean Square Error -->
     <defs>
      <path d="M 9.8125 72.90625 
L 24.515625 72.90625 
L 43.109375 23.296875 
L 61.8125 72.90625 
L 76.515625 72.90625 
L 76.515625 0 
L 66.890625 0 
L 66.890625 64.015625 
L 48.09375 14.015625 
L 38.1875 14.015625 
L 19.390625 64.015625 
L 19.390625 0 
L 9.8125 0 
z
" id="DejaVuSans-4d"/>
      <path d="M 34.28125 27.484375 
Q 23.390625 27.484375 19.1875 25 
Q 14.984375 22.515625 14.984375 16.5 
Q 14.984375 11.71875 18.140625 8.90625 
Q 21.296875 6.109375 26.703125 6.109375 
Q 34.1875 6.109375 38.703125 11.40625 
Q 43.21875 16.703125 43.21875 25.484375 
L 43.21875 27.484375 
z
M 52.203125 31.203125 
L 52.203125 0 
L 43.21875 0 
L 43.21875 8.296875 
Q 40.140625 3.328125 35.546875 0.953125 
Q 30.953125 -1.421875 24.3125 -1.421875 
Q 15.921875 -1.421875 10.953125 3.296875 
Q 6 8.015625 6 15.921875 
Q 6 25.140625 12.171875 29.828125 
Q 18.359375 34.515625 30.609375 34.515625 
L 43.21875 34.515625 
L 43.21875 35.40625 
Q 43.21875 41.609375 39.140625 45 
Q 35.0625 48.390625 27.6875 48.390625 
Q 23 48.390625 18.546875 47.265625 
Q 14.109375 46.140625 10.015625 43.890625 
L 10.015625 52.203125 
Q 14.9375 54.109375 19.578125 55.046875 
Q 24.21875 56 28.609375 56 
Q 40.484375 56 46.34375 49.84375 
Q 52.203125 43.703125 52.203125 31.203125 
z
" id="DejaVuSans-61"/>
      <path d="M 54.890625 33.015625 
L 54.890625 0 
L 45.90625 0 
L 45.90625 32.71875 
Q 45.90625 40.484375 42.875 44.328125 
Q 39.84375 48.1875 33.796875 48.1875 
Q 26.515625 48.1875 22.3125 43.546875 
Q 18.109375 38.921875 18.109375 30.90625 
L 18.109375 0 
L 9.078125 0 
L 9.078125 54.6875 
L 18.109375 54.6875 
L 18.109375 46.1875 
Q 21.34375 51.125 25.703125 53.5625 
Q 30.078125 56 35.796875 56 
Q 45.21875 56 50.046875 50.171875 
Q 54.890625 44.34375 54.890625 33.015625 
z
" id="DejaVuSans-6e"/>
      <path d="M 53.515625 70.515625 
L 53.515625 60.890625 
Q 47.90625 63.578125 42.921875 64.890625 
Q 37.9375 66.21875 33.296875 66.21875 
Q 25.25 66.21875 20.875 63.09375 
Q 16.5 59.96875 16.5 54.203125 
Q 16.5 49.359375 19.40625 46.890625 
Q 22.3125 44.4375 30.421875 42.921875 
L 36.375 41.703125 
Q 47.40625 39.59375 52.65625 34.296875 
Q 57.90625 29 57.90625 20.125 
Q 57.90625 9.515625 50.796875 4.046875 
Q 43.703125 -1.421875 29.984375 -1.421875 
Q 24.8125 -1.421875 18.96875 -0.25 
Q 13.140625 0.921875 6.890625 3.21875 
L 6.890625 13.375 
Q 12.890625 10.015625 18.65625 8.296875 
Q 24.421875 6.59375 29.984375 6.59375 
Q 38.421875 6.59375 43.015625 9.90625 
Q 47.609375 13.234375 47.609375 19.390625 
Q 47.609375 24.75 44.3125 27.78125 
Q 41.015625 30.8125 33.5 32.328125 
L 27.484375 33.5 
Q 16.453125 35.6875 11.515625 40.375 
Q 6.59375 45.0625 6.59375 53.421875 
Q 6.59375 63.09375 13.40625 68.65625 
Q 20.21875 74.21875 32.171875 74.21875 
Q 37.3125 74.21875 42.625 73.28125 
Q 47.953125 72.359375 53.515625 70.515625 
z
" id="DejaVuSans-53"/>
      <path d="M 14.796875 27.296875 
Q 14.796875 17.390625 18.875 11.75 
Q 22.953125 6.109375 30.078125 6.109375 
Q 37.203125 6.109375 41.296875 11.75 
Q 45.40625 17.390625 45.40625 27.296875 
Q 45.40625 37.203125 41.296875 42.84375 
Q 37.203125 48.484375 30.078125 48.484375 
Q 22.953125 48.484375 18.875 42.84375 
Q 14.796875 37.203125 14.796875 27.296875 
z
M 45.40625 8.203125 
Q 42.578125 3.328125 38.25 0.953125 
Q 33.9375 -1.421875 27.875 -1.421875 
Q 17.96875 -1.421875 11.734375 6.484375 
Q 5.515625 14.40625 5.515625 27.296875 
Q 5.515625 40.1875 11.734375 48.09375 
Q 17.96875 56 27.875 56 
Q 33.9375 56 38.25 53.625 
Q 42.578125 51.265625 45.40625 46.390625 
L 45.40625 54.6875 
L 54.390625 54.6875 
L 54.390625 -20.796875 
L 45.40625 -20.796875 
z
" id="DejaVuSans-71"/>
     </defs>
     <g transform="translate(131.604688 418.495294)rotate(-90)scale(0.1 -0.1)">
      <use xlink:href="#DejaVuSans-4d"/>
      <use x="86.279297" xlink:href="#DejaVuSans-65"/>
      <use x="147.802734" xlink:href="#DejaVuSans-61"/>
      <use x="209.082031" xlink:href="#DejaVuSans-6e"/>
      <use x="272.460938" xlink:href="#DejaVuSans-20"/>
      <use x="304.248047" xlink:href="#DejaVuSans-53"/>
      <use x="367.724609" xlink:href="#DejaVuSans-71"/>
      <use x="431.201172" xlink:href="#DejaVuSans-75"/>
      <use x="494.580078" xlink:href="#DejaVuSans-61"/>
      <use x="555.859375" xlink:href="#DejaVuSans-72"/>
      <use x="596.941406" xlink:href="#DejaVuSans-65"/>
      <use x="658.464844" xlink:href="#DejaVuSans-20"/>
      <use x="690.251953" xlink:href="#DejaVuSans-45"/>
      <use x="753.435547" xlink:href="#DejaVuSans-72"/>
      <use x="794.533203" xlink:href="#DejaVuSans-72"/>
      <use x="835.615234" xlink:href="#DejaVuSans-6f"/>
      <use x="896.796875" xlink:href="#DejaVuSans-72"/>
     </g>
    </g>
   </g>
   <g id="line2d_14">
    <path clip-path="url(#p0f985dd502)" d="M 213.999545 114.0552 
L 214.941478 115.400895 
L 215.883411 119.478428 
L 216.825344 119.613775 
L 217.767277 119.219592 
L 218.70921 119.709624 
L 219.651143 119.699924 
L 220.593075 117.718808 
L 221.535008 116.663777 
L 222.476941 119.607389 
L 224.360807 119.220764 
L 225.30274 117.619547 
L 226.244672 118.222654 
L 227.186605 119.549322 
L 228.128538 119.704443 
L 229.070471 119.657405 
L 230.012404 119.246453 
L 230.954337 119.383117 
L 231.896269 119.669177 
L 232.838202 119.731857 
L 233.780135 119.549295 
L 235.664001 118.907399 
L 236.605934 118.944778 
L 237.547867 119.532492 
L 238.489799 118.956729 
L 239.431732 119.663595 
L 240.373665 118.819813 
L 241.315598 118.929359 
L 242.257531 119.707815 
L 243.199464 118.876038 
L 244.141396 118.641591 
L 245.083329 119.532734 
L 246.025262 119.656913 
L 246.967195 119.391777 
L 247.909128 118.602979 
L 248.851061 119.717319 
L 249.792993 119.608228 
L 250.734926 119.354173 
L 251.676859 119.619991 
L 252.618792 119.260682 
L 253.560725 118.598886 
L 254.502658 116.584733 
L 255.44459 118.930809 
L 256.386523 119.621347 
L 257.328456 119.480047 
L 258.270389 119.709662 
L 259.212322 118.900509 
L 260.154255 119.589053 
L 261.096188 118.859458 
L 262.03812 119.676267 
L 263.921986 118.755292 
L 264.863919 119.708699 
L 265.805852 119.283577 
L 267.689717 119.715606 
L 269.573583 119.70494 
L 270.515516 117.78549 
L 271.457449 119.705574 
L 274.283247 118.882678 
L 275.22518 118.927219 
L 276.167113 118.295838 
L 277.109046 119.236723 
L 278.050979 119.643983 
L 278.992912 119.703692 
L 280.876777 119.530576 
L 281.81871 118.897777 
L 282.760643 119.633006 
L 283.702576 119.637153 
L 284.644509 119.442012 
L 285.586441 119.479227 
L 286.528374 119.742566 
L 288.41224 119.721989 
L 289.354173 119.420909 
L 290.296106 119.259168 
L 292.179971 119.700272 
L 293.121904 119.068042 
L 294.063837 119.201428 
L 295.00577 119.732146 
L 295.947703 119.718971 
L 296.889636 119.587129 
L 297.831568 119.296884 
L 298.773501 119.616515 
L 299.715434 119.722951 
L 302.541233 119.578017 
L 303.483165 119.275828 
L 304.425098 119.483376 
L 305.367031 119.306249 
L 306.308964 117.477467 
L 307.250897 119.617817 
L 308.19283 118.637839 
L 309.134762 119.715107 
L 310.076695 118.650651 
L 311.018628 117.958405 
L 311.960561 119.722227 
L 312.902494 118.832922 
L 313.844427 119.384904 
L 314.78636 119.679787 
L 316.670225 119.591956 
L 317.612158 119.725262 
L 320.437957 119.689974 
L 321.379889 119.691027 
L 322.321822 119.398664 
L 323.263755 119.494596 
L 324.205688 119.280059 
L 325.147621 119.334721 
L 326.089554 118.989303 
L 327.031486 119.712003 
L 327.973419 119.470931 
L 328.915352 116.39109 
L 329.857285 115.821146 
L 330.799218 119.0058 
L 331.741151 119.606169 
L 332.683084 118.989292 
L 333.625016 119.684869 
L 334.566949 118.070542 
L 335.508882 119.491433 
L 337.392748 119.730625 
L 340.218546 119.649399 
L 341.160479 118.571233 
L 342.102412 118.874783 
L 343.044345 118.583607 
L 344.92821 119.665813 
L 345.870143 117.054364 
L 346.812076 119.679571 
L 347.754009 119.15476 
L 348.695942 119.257304 
L 349.637875 119.751792 
L 351.52174 119.235993 
L 352.463673 118.196137 
L 353.405606 119.093292 
L 354.347539 119.618794 
L 355.289472 119.652522 
L 356.231405 118.171264 
L 357.173337 119.70014 
L 358.11527 117.648815 
L 359.057203 119.735503 
L 359.999136 119.086487 
L 360.941069 119.562208 
L 361.883002 119.295238 
L 362.824934 119.555716 
L 363.766867 118.59406 
L 364.7088 118.311953 
L 365.650733 119.631988 
L 367.534599 119.288301 
L 368.476532 119.610282 
L 369.418464 119.687194 
L 370.360397 119.475375 
L 371.30233 119.684685 
L 372.244263 118.127332 
L 373.186196 119.52178 
L 374.128129 119.741102 
L 375.070061 118.810887 
L 376.011994 119.724365 
L 376.953927 119.612767 
L 377.89586 118.653089 
L 378.837793 119.327277 
L 379.779726 119.751425 
L 380.721658 119.741071 
L 381.663591 119.367731 
L 382.605524 119.671223 
L 383.547457 118.738755 
L 385.431323 119.721343 
L 386.373256 119.342176 
L 387.315188 119.728714 
L 388.257121 119.134192 
L 389.199054 119.728942 
L 390.140987 117.940559 
L 391.08292 119.405159 
L 392.024853 117.759824 
L 392.966785 119.48478 
L 393.908718 119.169731 
L 394.850651 119.647831 
L 396.734517 118.281856 
L 397.67645 119.452799 
L 398.618382 118.155409 
L 399.560315 119.506623 
L 401.444181 118.966097 
L 402.386114 119.140543 
L 403.328047 119.083396 
L 404.26998 118.388298 
L 405.211912 119.706504 
L 406.153845 119.652327 
L 407.095778 119.179027 
L 408.037711 119.696087 
L 409.921577 119.640045 
L 411.805442 119.572365 
L 412.747375 117.292711 
L 413.689308 119.633996 
L 414.631241 119.580281 
L 415.573174 119.732889 
L 416.515106 119.611003 
L 417.457039 119.094137 
L 418.398972 118.4263 
L 419.340905 118.424913 
L 420.282838 119.509309 
L 421.224771 119.120009 
L 422.166704 119.425459 
L 423.108636 118.969578 
L 424.992502 119.755977 
L 425.934435 119.684455 
L 426.876368 119.178456 
L 427.818301 119.118344 
L 428.760233 119.263731 
L 429.702166 119.609401 
L 431.586032 119.715582 
L 432.527965 116.783407 
L 433.469898 119.428319 
L 434.41183 119.589577 
L 435.353763 118.641111 
L 436.295696 118.392592 
L 437.237629 118.770519 
L 438.179562 119.571409 
L 440.063428 118.069295 
L 441.00536 117.906751 
L 441.947293 119.731097 
L 442.889226 119.772518 
L 443.831159 119.271771 
L 444.773092 119.419583 
L 445.715025 119.391995 
L 446.656957 117.90206 
L 447.59889 119.61424 
L 448.540823 119.759443 
L 449.482756 118.863155 
L 450.424689 119.729519 
L 451.366622 119.631153 
L 453.250487 119.777108 
L 454.19242 119.711488 
L 455.134353 118.884349 
L 456.076286 119.677716 
L 457.960152 119.497513 
L 458.902084 119.220663 
L 459.844017 119.605531 
L 460.78595 119.774211 
L 461.727883 119.478503 
L 462.669816 118.791199 
L 463.611749 119.777795 
L 464.553681 119.597599 
L 465.495614 118.619629 
L 467.37948 119.287656 
L 468.321413 118.459987 
L 469.263346 119.28361 
L 470.205278 119.729128 
L 471.147211 119.768123 
L 472.089144 118.732192 
L 473.031077 119.443381 
L 473.97301 117.682901 
L 474.914943 119.793265 
L 475.856876 119.538449 
L 476.798808 119.796647 
L 477.740741 118.081701 
L 478.682674 119.733411 
L 479.624607 119.250224 
L 481.508473 119.571455 
L 482.450405 117.774701 
L 483.392338 119.211438 
L 484.334271 118.241771 
L 485.276204 119.346481 
L 488.102002 119.667788 
L 489.043935 119.485199 
L 489.985868 119.144269 
L 490.927801 119.166152 
L 491.869734 119.792341 
L 492.811667 119.261069 
L 493.7536 119.04837 
L 494.695532 119.679744 
L 495.637465 119.384832 
L 496.579398 119.703263 
L 497.521331 118.794985 
L 498.463264 115.237009 
L 499.405197 119.544336 
L 500.347129 119.829078 
L 501.289062 119.69142 
L 502.230995 119.865067 
L 503.172928 119.773806 
L 504.114861 119.45501 
L 505.056794 119.273797 
L 505.998726 118.718135 
L 507.882592 119.223416 
L 508.824525 119.260647 
L 509.766458 119.853327 
L 510.708391 119.513161 
L 511.650324 118.415806 
L 512.592256 118.908083 
L 513.534189 118.59283 
L 514.476122 118.829432 
L 515.418055 118.917731 
L 516.359988 118.583783 
L 517.301921 119.863335 
L 518.243853 119.775032 
L 519.185786 119.255342 
L 520.127719 118.284153 
L 521.069652 118.214708 
L 522.011585 119.216803 
L 522.953518 119.768404 
L 523.89545 119.122087 
L 524.837383 119.798052 
L 525.779316 119.002932 
L 526.721249 119.800402 
L 528.605115 119.749878 
L 529.547048 119.08007 
L 530.48898 119.798497 
L 531.430913 117.630772 
L 532.372846 119.883544 
L 533.314779 119.84011 
L 534.256712 118.869915 
L 536.140577 119.414182 
L 537.08251 118.744313 
L 538.024443 119.835859 
L 538.966376 119.476369 
L 539.908309 119.660144 
L 540.850242 119.527433 
L 541.792174 119.088896 
L 542.734107 119.904159 
L 543.67604 118.717203 
L 544.617973 118.617524 
L 545.559906 119.880073 
L 546.501839 119.24419 
L 547.443771 119.975836 
L 548.385704 119.753452 
L 549.327637 119.801156 
L 550.26957 119.60284 
L 551.211503 119.842084 
L 552.153436 118.07245 
L 553.095369 119.700518 
L 554.037301 119.469814 
L 554.979234 119.027088 
L 555.921167 119.928317 
L 557.805033 119.697554 
L 558.746966 119.315143 
L 559.688898 118.788186 
L 560.630831 117.544107 
L 561.572764 119.74739 
L 563.45663 118.821592 
L 564.398563 118.882595 
L 565.340495 119.878311 
L 566.282428 119.973734 
L 568.166294 119.894329 
L 569.108227 118.886521 
L 570.05016 119.841398 
L 570.992093 119.983294 
L 571.934025 119.073639 
L 572.875958 120.010803 
L 573.817891 119.644854 
L 574.759824 117.769066 
L 575.701757 119.911008 
L 576.64369 119.913388 
L 577.585622 119.21537 
L 578.527555 120.03776 
L 579.469488 119.509373 
L 580.411421 119.85544 
L 582.295287 119.781717 
L 583.237219 119.496264 
L 584.179152 119.987569 
L 586.063018 120.065558 
L 587.004951 119.303791 
L 587.946884 117.906314 
L 588.888817 120.035257 
L 589.830749 119.565777 
L 590.772682 119.618596 
L 591.714615 120.025013 
L 592.656548 120.018263 
L 593.598481 119.445697 
L 594.540414 118.506224 
L 595.482346 119.960846 
L 596.424279 120.027912 
L 597.366212 118.568029 
L 598.308145 119.904348 
L 600.192011 119.726295 
L 601.133943 120.136994 
L 603.017809 119.43124 
L 603.959742 120.129969 
L 604.901675 119.703205 
L 605.843608 120.193228 
L 606.785541 119.832657 
L 607.727473 120.170898 
L 608.669406 118.586332 
L 609.611339 120.268618 
L 610.553272 118.534098 
L 611.495205 120.254524 
L 612.437138 119.623758 
L 613.37907 119.602673 
L 614.321003 120.216873 
L 615.262936 120.173953 
L 616.204869 119.945091 
L 617.146802 120.176291 
L 618.088735 119.247685 
L 619.030667 119.317424 
L 619.9726 119.902842 
L 620.914533 119.396173 
L 621.856466 120.26148 
L 622.798399 119.036195 
L 623.740332 120.385145 
L 625.624197 119.070298 
L 626.56613 119.033618 
L 627.508063 120.362077 
L 628.449996 120.399717 
L 630.333862 120.293257 
L 631.275794 118.539375 
L 632.217727 119.78746 
L 633.15966 120.415811 
L 634.101593 119.262874 
L 635.043526 120.154694 
L 635.985459 120.035176 
L 636.927391 120.044562 
L 638.811257 119.493886 
L 639.75319 120.217294 
L 640.695123 120.735656 
L 641.637056 120.405396 
L 642.578989 120.439947 
L 643.520921 120.603276 
L 644.462854 119.637487 
L 646.34672 120.528467 
L 647.288653 120.483139 
L 648.230586 117.873721 
L 649.172518 120.624393 
L 650.114451 120.170601 
L 651.998317 120.867498 
L 652.94025 120.641642 
L 653.882183 120.718029 
L 654.824115 120.065616 
L 655.766048 120.349903 
L 656.707981 120.784356 
L 657.649914 118.97564 
L 658.591847 120.678396 
L 659.53378 120.726935 
L 660.475713 120.653908 
L 661.417645 120.888811 
L 662.359578 120.740958 
L 663.301511 120.839707 
L 664.243444 119.376577 
L 665.185377 120.360088 
L 666.12731 120.735106 
L 667.069242 120.442603 
L 668.011175 120.860339 
L 668.953108 120.954506 
L 669.895041 118.647378 
L 670.836974 120.403957 
L 671.778907 119.886031 
L 672.720839 120.955688 
L 673.662772 120.417261 
L 674.604705 120.88396 
L 676.488571 120.29182 
L 678.372437 121.142567 
L 679.314369 119.681895 
L 680.256302 120.850397 
L 681.198235 121.076353 
L 682.140168 121.698696 
L 683.082101 121.042715 
L 684.024034 121.053068 
L 684.965966 120.332657 
L 685.907899 121.691539 
L 686.849832 121.442944 
L 687.791765 120.757039 
L 688.733698 120.635059 
L 689.675631 121.230392 
L 690.617563 121.048927 
L 691.559496 121.507309 
L 692.501429 120.577124 
L 693.443362 121.479053 
L 694.385295 119.841482 
L 695.327228 121.267587 
L 696.269161 121.940963 
L 697.211093 121.444689 
L 698.153026 119.875862 
L 699.094959 121.160193 
L 700.036892 121.346339 
L 700.978825 120.357731 
L 701.920758 121.775495 
L 702.86269 121.661698 
L 703.804623 122.049892 
L 704.746556 121.455601 
L 705.688489 121.889041 
L 706.630422 121.793966 
L 707.572355 122.236522 
L 708.514287 121.998375 
L 709.45622 121.965962 
L 710.398153 122.21321 
L 711.340086 121.9651 
L 712.282019 120.423604 
L 713.223952 122.351498 
L 714.165885 121.889848 
L 715.107817 122.697736 
L 716.04975 122.242249 
L 716.991683 120.654301 
L 717.933616 121.900234 
L 718.875549 121.423062 
L 719.817482 123.059915 
L 720.759414 121.710884 
L 721.701347 122.831979 
L 722.64328 122.172324 
L 723.585213 122.429387 
L 724.527146 122.932746 
L 727.352944 123.049145 
L 728.294877 121.41046 
L 729.23681 121.316836 
L 730.178743 120.144311 
L 731.120676 122.66842 
L 732.062609 123.102032 
L 733.004541 123.379597 
L 733.946474 122.598265 
L 734.888407 120.34362 
L 735.83034 123.540793 
L 736.772273 122.714238 
L 737.714206 122.814658 
L 738.656138 123.466066 
L 739.598071 122.921477 
L 740.540004 124.119855 
L 741.481937 123.675227 
L 742.42387 124.092455 
L 744.307735 122.520568 
L 745.249668 122.436289 
L 746.191601 123.778528 
L 747.133534 124.419034 
L 748.075467 123.649531 
L 749.0174 124.733433 
L 749.959333 124.445526 
L 750.901265 121.608316 
L 751.843198 123.868066 
L 752.785131 124.270277 
L 753.727064 122.830451 
L 754.668997 125.332457 
L 755.61093 123.515429 
L 756.552862 124.235859 
L 757.494795 122.692243 
L 758.436728 124.468061 
L 759.378661 123.901706 
L 760.320594 124.960448 
L 761.262527 124.844434 
L 762.204459 124.875061 
L 763.146392 125.321969 
L 765.030258 125.864695 
L 765.972191 125.325015 
L 767.856057 125.559758 
L 768.797989 125.545612 
L 769.739922 124.470665 
L 770.681855 124.087186 
L 771.623788 125.820726 
L 772.565721 125.904641 
L 773.507654 126.317261 
L 774.449586 126.509938 
L 775.391519 126.132855 
L 777.275385 127.196736 
L 778.217318 125.845602 
L 779.159251 125.970422 
L 780.101183 127.781446 
L 781.043116 125.984755 
L 781.985049 127.575705 
L 782.926982 128.565238 
L 783.868915 124.620423 
L 784.810848 126.799585 
L 785.752781 127.93555 
L 786.694713 125.910596 
L 787.636646 127.561613 
L 788.578579 128.174004 
L 789.520512 127.418936 
L 790.462445 127.513387 
L 791.404378 128.026028 
L 792.34631 129.405183 
L 793.288243 126.723053 
L 794.230176 128.409004 
L 795.172109 128.486104 
L 796.114042 129.099802 
L 797.055975 130.487553 
L 797.997907 127.997901 
L 798.93984 129.05928 
L 799.881773 129.939681 
L 800.823706 132.193655 
L 801.765639 129.762122 
L 802.707572 129.476539 
L 803.649505 129.763186 
L 804.591437 131.601947 
L 805.53337 130.568984 
L 806.475303 131.129499 
L 807.417236 132.398795 
L 808.359169 130.492182 
L 809.301102 130.844837 
L 810.243034 132.974157 
L 811.184967 131.342297 
L 812.1269 133.181639 
L 813.068833 131.670038 
L 814.010766 130.798375 
L 814.952699 131.327194 
L 815.894631 132.813582 
L 816.836564 132.189005 
L 817.778497 130.352491 
L 818.72043 132.635108 
L 819.662363 132.064441 
L 820.604296 131.056607 
L 821.546229 133.916796 
L 823.430094 134.523923 
L 824.372027 135.367211 
L 825.31396 134.977814 
L 826.255893 132.0589 
L 827.197826 133.789493 
L 828.139758 136.302694 
L 829.081691 136.051323 
L 830.023624 137.683363 
L 830.965557 135.575461 
L 831.90749 136.729746 
L 832.849423 135.904285 
L 833.791355 135.82759 
L 834.733288 139.142693 
L 835.675221 140.571662 
L 836.617154 139.929913 
L 837.559087 137.930477 
L 838.50102 138.513445 
L 839.442952 141.616846 
L 840.384885 134.45282 
L 841.326818 139.551467 
L 842.268751 139.380499 
L 843.210684 137.959764 
L 844.152617 141.368089 
L 845.09455 141.075496 
L 846.036482 139.922574 
L 846.978415 141.388333 
L 847.920348 143.345194 
L 848.862281 140.102646 
L 849.804214 139.429987 
L 850.746147 142.990495 
L 851.688079 142.853202 
L 852.630012 133.759211 
L 853.571945 141.90865 
L 854.513878 148.056902 
L 856.397744 139.292743 
L 857.339676 144.970766 
L 858.281609 143.996111 
L 859.223542 147.867103 
L 860.165475 149.919593 
L 861.107408 148.572422 
L 862.049341 148.124317 
L 862.991274 147.471943 
L 863.933206 147.562678 
L 864.875139 148.186249 
L 865.817072 149.634239 
L 866.759005 154.369625 
L 867.700938 151.355285 
L 868.642871 151.493627 
L 869.584803 153.994162 
L 870.526736 153.467471 
L 871.468669 151.440487 
L 872.410602 153.34783 
L 873.352535 151.121996 
L 874.294468 151.502674 
L 875.2364 155.814381 
L 876.178333 151.646192 
L 877.120266 158.566554 
L 878.062199 152.638863 
L 879.004132 158.094658 
L 879.946065 155.728802 
L 880.887998 159.972094 
L 881.82993 157.642516 
L 882.771863 156.639545 
L 883.713796 164.045957 
L 884.655729 152.449126 
L 885.597662 162.14605 
L 886.539595 159.880168 
L 887.481527 172.109085 
L 888.42346 163.431806 
L 889.365393 163.92086 
L 890.307326 168.2909 
L 891.249259 169.97991 
L 892.191192 165.802078 
L 893.133124 165.631493 
L 894.075057 168.714376 
L 895.01699 161.779266 
L 895.958923 166.236404 
L 896.900856 169.100335 
L 897.842789 171.551663 
L 898.784722 170.643299 
L 899.726654 172.841715 
L 900.668587 176.814552 
L 901.61052 169.700013 
L 902.552453 180.998781 
L 903.494386 176.621762 
L 904.436319 174.763472 
L 905.378251 179.655565 
L 906.320184 185.929134 
L 907.262117 163.600169 
L 908.20405 186.633289 
L 909.145983 167.279247 
L 910.087916 185.106553 
L 911.029848 183.705913 
L 911.971781 181.206791 
L 912.913714 186.907898 
L 913.855647 184.190374 
L 914.79758 185.606124 
L 915.739513 184.680474 
L 916.681446 184.488605 
L 917.623378 190.806793 
L 918.565311 200.004073 
L 919.507244 198.157275 
L 920.449177 198.002611 
L 921.39111 195.526161 
L 922.333043 193.822519 
L 923.274975 208.321939 
L 924.216908 202.666923 
L 925.158841 213.492668 
L 926.100774 221.342705 
L 927.042707 205.343072 
L 927.98464 200.580025 
L 928.926572 201.13244 
L 929.868505 209.690857 
L 930.810438 215.903856 
L 931.752371 217.504927 
L 932.694304 215.819576 
L 933.636237 210.698597 
L 934.57817 225.066521 
L 935.520102 210.476439 
L 936.462035 219.946101 
L 937.403968 220.818385 
L 938.345901 222.085648 
L 939.287834 213.57572 
L 941.171699 238.737796 
L 942.113632 240.835173 
L 943.055565 244.942755 
L 943.997498 243.852464 
L 944.939431 246.308152 
L 945.881364 244.461551 
L 946.823296 219.402148 
L 947.765229 232.616106 
L 948.707162 234.206094 
L 949.649095 240.897482 
L 950.591028 254.360629 
L 951.532961 239.314127 
L 952.474894 247.978168 
L 953.416826 245.075568 
L 954.358759 254.30758 
L 955.300692 238.374551 
L 956.242625 257.437812 
L 957.184558 265.359005 
L 958.126491 269.450585 
L 959.068423 274.051194 
L 960.010356 267.638364 
L 960.952289 289.454378 
L 961.894222 255.363755 
L 962.836155 284.016407 
L 963.778088 286.325765 
L 964.72002 294.995568 
L 965.661953 288.230695 
L 966.603886 284.841831 
L 967.545819 284.232363 
L 968.487752 289.065259 
L 969.429685 312.042001 
L 970.371618 269.122613 
L 971.31355 299.145153 
L 972.255483 300.543952 
L 973.197416 302.589812 
L 974.139349 287.48749 
L 975.081282 301.626144 
L 976.023215 308.831007 
L 976.965147 318.934351 
L 977.90708 302.861558 
L 978.849013 323.635705 
L 979.790946 292.246784 
L 980.732879 346.147217 
L 981.674812 319.697348 
L 982.616744 302.899895 
L 983.558677 325.71492 
L 984.50061 338.632542 
L 985.442543 336.48898 
L 986.384476 334.029134 
L 987.326409 302.56856 
L 988.268342 329.901177 
L 989.210274 342.864881 
L 990.152207 372.120759 
L 991.09414 336.692133 
L 992.978006 386.725568 
L 993.919939 385.403434 
L 994.861871 366.469756 
L 995.803804 363.494149 
L 996.745737 354.396228 
L 997.68767 383.492391 
L 998.629603 380.13891 
L 999.571536 373.280467 
L 1000.513468 355.388871 
L 1001.455401 395.94921 
L 1002.397334 407.324059 
L 1003.339267 360.944475 
L 1004.2812 394.931878 
L 1005.223133 312.065363 
L 1006.165066 426.284789 
L 1007.106998 433.348673 
L 1008.048931 360.856016 
L 1008.990864 430.885228 
L 1009.932797 408.372243 
L 1010.87473 411.255509 
L 1011.816663 431.431086 
L 1012.758595 446.123766 
L 1013.700528 435.698865 
L 1014.642461 454.912379 
L 1015.584394 405.410127 
L 1016.526327 429.877637 
L 1017.46826 434.531534 
L 1018.410192 436.213332 
L 1019.352125 461.562339 
L 1020.294058 503.962158 
L 1021.235991 421.13097 
L 1022.177924 452.221947 
L 1023.119857 438.514255 
L 1024.06179 477.03491 
L 1025.003722 452.054082 
L 1025.945655 510.160813 
L 1026.887588 502.367712 
L 1027.829521 459.925622 
L 1028.771454 436.916588 
L 1029.713387 429.768698 
L 1030.655319 446.911631 
L 1031.597252 491.742763 
L 1032.539185 500.021284 
L 1033.481118 473.983475 
L 1034.423051 494.5247 
L 1035.364984 501.438478 
L 1036.306916 451.978862 
L 1037.248849 489.2463 
L 1038.190782 419.782793 
L 1039.132715 498.764092 
L 1040.074648 522.460245 
L 1041.016581 489.043706 
L 1041.958514 506.994899 
L 1042.900446 512.087152 
L 1043.842379 528.612116 
L 1044.784312 500.611826 
L 1045.726245 533.969259 
L 1046.668178 530.452519 
L 1047.610111 532.735879 
L 1048.552043 532.077597 
L 1049.493976 495.8484 
L 1050.435909 429.88653 
L 1051.377842 507.450838 
L 1052.319775 453.714393 
L 1053.261708 547.914997 
L 1054.20364 551.467396 
L 1055.145573 533.585398 
L 1056.087506 521.713446 
L 1057.029439 548.851911 
L 1057.971372 531.693113 
L 1058.913305 546.982472 
L 1059.855238 410.23278 
L 1060.79717 484.829932 
L 1061.739103 546.905363 
L 1062.681036 565.35418 
L 1063.622969 554.144121 
L 1064.564902 493.198303 
L 1065.506835 548.684224 
L 1066.448767 566.86838 
L 1067.3907 542.736443 
L 1068.332633 572.511643 
L 1069.274566 466.828751 
L 1070.216499 566.874667 
L 1071.158432 485.134797 
L 1072.100364 578.259645 
L 1073.042297 587.120864 
L 1073.98423 506.07402 
L 1074.926163 582.530794 
L 1075.868096 596.247167 
L 1077.751962 560.062276 
L 1078.693894 554.012561 
L 1079.635827 608.661041 
L 1080.57776 550.341143 
L 1081.519693 479.469562 
L 1082.461626 492.942718 
L 1083.403559 550.476088 
L 1084.345491 370.245988 
L 1085.287424 506.669659 
L 1086.229357 590.164693 
L 1087.17129 595.591514 
L 1088.113223 602.635568 
L 1089.055156 598.727494 
L 1089.997088 602.359469 
L 1090.939021 587.060253 
L 1091.880954 546.536517 
L 1092.822887 612.715488 
L 1093.76482 577.857322 
L 1094.706753 499.813179 
L 1095.648686 527.729243 
L 1096.590618 561.504876 
L 1097.532551 614.507562 
L 1098.474484 604.340971 
L 1099.416417 586.911123 
L 1100.35835 538.704553 
L 1101.300283 581.139876 
L 1102.242215 571.046712 
L 1103.184148 535.619018 
L 1104.126081 510.355684 
L 1105.068014 514.422926 
L 1106.009947 543.733581 
L 1106.95188 590.844648 
L 1107.893812 618.093602 
L 1108.835745 603.930244 
L 1109.777678 572.660361 
L 1110.719611 618.427946 
L 1111.661544 589.736817 
L 1112.603477 603.629601 
L 1113.54541 624.418444 
L 1114.487342 591.29267 
L 1115.429275 615.133269 
L 1116.371208 587.804641 
L 1117.313141 611.040842 
L 1118.255074 592.87129 
L 1119.197007 596.063273 
L 1120.138939 432.71282 
L 1121.080872 566.676503 
L 1122.022805 603.344568 
L 1122.964738 585.476803 
L 1123.906671 625.787743 
L 1124.848604 569.614851 
L 1125.790536 548.051174 
L 1126.732469 604.73493 
L 1127.674402 500.898496 
L 1128.616335 614.765755 
L 1129.558268 626.944662 
L 1130.500201 567.142734 
L 1131.442133 602.622485 
L 1132.384066 574.475268 
L 1133.325999 602.64194 
L 1134.267932 593.564962 
L 1135.209865 541.404513 
L 1136.151798 465.253987 
L 1137.093731 605.317939 
L 1138.035663 617.570368 
L 1138.977596 610.372781 
L 1139.919529 609.404329 
L 1140.861462 582.969987 
L 1142.745328 605.398263 
L 1143.68726 603.392552 
L 1144.629193 598.848671 
L 1145.571126 612.557769 
L 1146.513059 620.27593 
L 1147.454992 597.398565 
L 1148.396925 589.585122 
L 1149.338857 618.321511 
L 1150.28079 618.681599 
L 1151.222723 622.583258 
L 1152.164656 590.571232 
L 1154.048522 629.1432 
L 1154.990455 618.488045 
L 1154.990455 618.488045 
" style="fill:none;stroke:#008000;stroke-linecap:square;stroke-width:1.5;"/>
   </g>
   <g id="line2d_15">
    <path clip-path="url(#p0f985dd502)" d="M 213.999545 124.621469 
L 214.941478 125.911207 
L 215.883411 124.713964 
L 216.825344 125.768137 
L 217.767277 123.921801 
L 218.70921 126.058954 
L 219.651143 123.519961 
L 220.593075 123.955321 
L 221.535008 125.398258 
L 222.476941 124.961936 
L 223.418874 126.104058 
L 225.30274 125.30798 
L 226.244672 124.563026 
L 227.186605 125.637686 
L 228.128538 123.087448 
L 229.070471 124.227544 
L 230.012404 124.959542 
L 230.954337 122.403055 
L 231.896269 125.713231 
L 232.838202 123.57315 
L 233.780135 123.562938 
L 234.722068 124.851046 
L 235.664001 124.863985 
L 236.605934 124.622135 
L 237.547867 125.977503 
L 238.489799 124.848017 
L 239.431732 125.529647 
L 240.373665 125.982926 
L 241.315598 122.971395 
L 242.257531 125.302925 
L 243.199464 124.775044 
L 244.141396 125.090184 
L 245.083329 125.615429 
L 246.025262 125.597818 
L 246.967195 124.605028 
L 247.909128 126.123851 
L 248.851061 125.580348 
L 250.734926 123.83983 
L 251.676859 125.827502 
L 252.618792 121.843252 
L 253.560725 125.794673 
L 254.502658 125.92926 
L 255.44459 124.392665 
L 256.386523 125.429817 
L 257.328456 125.154651 
L 258.270389 124.135191 
L 259.212322 124.438846 
L 260.154255 121.378499 
L 261.096188 124.478266 
L 262.03812 124.771093 
L 262.980053 125.279926 
L 263.921986 124.327032 
L 264.863919 125.191963 
L 265.805852 125.392714 
L 266.747785 122.000502 
L 267.689717 124.416841 
L 268.63165 125.924704 
L 269.573583 124.704253 
L 270.515516 125.531974 
L 271.457449 124.632765 
L 272.399382 122.677367 
L 273.341314 124.7368 
L 274.283247 124.135899 
L 275.22518 125.79288 
L 276.167113 125.286681 
L 277.109046 123.743938 
L 278.050979 125.113949 
L 278.992912 124.361753 
L 279.934844 125.469371 
L 280.876777 125.579678 
L 281.81871 123.342286 
L 282.760643 125.056906 
L 283.702576 124.428003 
L 284.644509 125.496626 
L 285.586441 124.018363 
L 286.528374 124.153735 
L 287.470307 124.474075 
L 288.41224 124.238544 
L 289.354173 125.138134 
L 290.296106 120.477714 
L 291.238038 125.103221 
L 292.179971 125.160037 
L 293.121904 126.061304 
L 294.063837 124.869055 
L 295.00577 125.359331 
L 295.947703 123.526123 
L 296.889636 125.453963 
L 297.831568 122.755754 
L 298.773501 124.716981 
L 299.715434 124.439413 
L 300.657367 123.319139 
L 301.5993 125.140495 
L 302.541233 125.837409 
L 303.483165 126.020489 
L 304.425098 125.555463 
L 305.367031 123.620763 
L 306.308964 124.000632 
L 307.250897 125.308606 
L 308.19283 125.15161 
L 309.134762 124.494512 
L 310.076695 122.481281 
L 311.018628 123.610769 
L 311.960561 125.212828 
L 312.902494 125.424362 
L 313.844427 125.208847 
L 314.78636 124.044308 
L 315.728292 123.879929 
L 316.670225 125.437565 
L 317.612158 125.835197 
L 318.554091 123.963568 
L 319.496024 125.482099 
L 320.437957 124.735335 
L 321.379889 125.403312 
L 322.321822 124.90025 
L 323.263755 125.02983 
L 325.147621 125.781131 
L 326.089554 124.542787 
L 327.031486 121.355502 
L 327.973419 124.324441 
L 328.915352 124.894989 
L 329.857285 123.648593 
L 330.799218 124.943904 
L 331.741151 125.210847 
L 332.683084 125.893686 
L 333.625016 125.718707 
L 334.566949 122.713193 
L 335.508882 125.128225 
L 336.450815 125.482027 
L 337.392748 125.203943 
L 338.334681 125.724009 
L 339.276613 125.110362 
L 340.218546 124.729293 
L 341.160479 125.597435 
L 342.102412 125.666902 
L 343.044345 124.484638 
L 343.986278 125.372521 
L 344.92821 125.021367 
L 345.870143 124.864153 
L 346.812076 124.270639 
L 347.754009 121.550724 
L 348.695942 124.560945 
L 349.637875 123.353209 
L 350.579808 125.750392 
L 351.52174 121.734584 
L 352.463673 125.234984 
L 353.405606 125.468007 
L 354.347539 124.739928 
L 355.289472 122.654067 
L 356.231405 123.760407 
L 357.173337 124.307997 
L 358.11527 124.535551 
L 359.057203 124.576966 
L 359.999136 122.235096 
L 360.941069 122.629397 
L 361.883002 126.09903 
L 362.824934 124.404374 
L 363.766867 124.89259 
L 364.7088 126.127141 
L 365.650733 124.356583 
L 366.592666 124.449738 
L 367.534599 125.640391 
L 368.476532 124.29343 
L 369.418464 125.550386 
L 370.360397 126.076902 
L 371.30233 125.3498 
L 372.244263 125.564628 
L 373.186196 123.54796 
L 374.128129 125.399179 
L 375.070061 125.646784 
L 376.011994 125.540068 
L 376.953927 124.723411 
L 377.89586 124.816385 
L 378.837793 124.348277 
L 379.779726 123.370214 
L 380.721658 124.687536 
L 381.663591 124.298124 
L 382.605524 124.652013 
L 383.547457 125.197718 
L 384.48939 124.476846 
L 385.431323 123.352528 
L 386.373256 125.937131 
L 387.315188 125.073536 
L 388.257121 124.993153 
L 389.199054 125.064678 
L 390.140987 125.835561 
L 391.08292 124.180509 
L 392.024853 124.058625 
L 392.966785 123.62619 
L 393.908718 125.55328 
L 394.850651 125.290803 
L 395.792584 125.515728 
L 396.734517 125.612563 
L 397.67645 123.441023 
L 398.618382 125.187622 
L 399.560315 123.360311 
L 400.502248 125.405554 
L 401.444181 125.372935 
L 402.386114 125.989109 
L 403.328047 125.59361 
L 404.26998 124.003968 
L 405.211912 125.769984 
L 406.153845 125.462281 
L 407.095778 122.687271 
L 408.037711 123.425529 
L 408.979644 123.654542 
L 409.921577 124.847406 
L 410.863509 124.76384 
L 411.805442 125.44281 
L 414.631241 124.915461 
L 415.573174 125.199078 
L 416.515106 126.080718 
L 417.457039 125.362195 
L 418.398972 126.136153 
L 419.340905 125.632755 
L 420.282838 125.855031 
L 421.224771 124.072772 
L 422.166704 124.339139 
L 423.108636 125.885659 
L 424.050569 125.524844 
L 424.992502 123.28425 
L 426.876368 125.260242 
L 427.818301 126.139259 
L 428.760233 124.659684 
L 429.702166 124.040932 
L 430.644099 125.435594 
L 431.586032 125.963147 
L 432.527965 122.874642 
L 433.469898 126.048404 
L 434.41183 125.068722 
L 435.353763 124.462813 
L 436.295696 125.447719 
L 437.237629 126.124561 
L 438.179562 124.213603 
L 439.121495 125.191718 
L 440.063428 125.4488 
L 441.00536 124.920977 
L 441.947293 123.018675 
L 442.889226 125.94991 
L 443.831159 124.889607 
L 444.773092 125.688786 
L 445.715025 125.746473 
L 446.656957 123.987929 
L 447.59889 124.408324 
L 449.482756 126.09026 
L 450.424689 124.685514 
L 451.366622 124.893207 
L 452.308554 123.868972 
L 453.250487 125.27432 
L 454.19242 125.963414 
L 455.134353 123.493456 
L 456.076286 125.162909 
L 457.018219 125.106336 
L 457.960152 121.028127 
L 458.902084 121.677449 
L 460.78595 124.393046 
L 461.727883 123.208643 
L 462.669816 125.18584 
L 463.611749 125.907717 
L 464.553681 125.799134 
L 465.495614 125.983586 
L 466.437547 126.005535 
L 467.37948 125.665863 
L 468.321413 125.495347 
L 469.263346 124.847279 
L 470.205278 123.000566 
L 471.147211 124.713072 
L 472.089144 122.132914 
L 473.031077 123.090113 
L 473.97301 124.897349 
L 474.914943 123.104339 
L 475.856876 125.34159 
L 476.798808 124.29514 
L 477.740741 125.540565 
L 478.682674 124.579537 
L 479.624607 125.982302 
L 480.56654 126.004333 
L 481.508473 124.266079 
L 482.450405 124.179653 
L 483.392338 125.317656 
L 484.334271 125.174663 
L 485.276204 125.355614 
L 486.218137 124.798793 
L 487.16007 125.598041 
L 488.102002 124.766447 
L 489.043935 124.085419 
L 489.985868 125.07177 
L 490.927801 123.730382 
L 491.869734 124.204937 
L 492.811667 125.306645 
L 493.7536 123.615779 
L 494.695532 125.602714 
L 495.637465 124.993157 
L 496.579398 126.009392 
L 497.521331 125.199178 
L 498.463264 123.833173 
L 499.405197 124.511261 
L 500.347129 124.310929 
L 501.289062 125.466554 
L 502.230995 124.88795 
L 503.172928 123.409612 
L 504.114861 125.570302 
L 505.998726 125.799269 
L 506.940659 125.040008 
L 507.882592 120.013451 
L 508.824525 125.966397 
L 509.766458 125.540609 
L 510.708391 124.580358 
L 511.650324 123.076236 
L 512.592256 125.702653 
L 513.534189 124.971123 
L 514.476122 125.882801 
L 515.418055 125.95906 
L 516.359988 124.928252 
L 517.301921 125.013381 
L 518.243853 123.483654 
L 519.185786 125.522478 
L 520.127719 122.873904 
L 521.069652 125.452221 
L 522.011585 125.596656 
L 522.953518 125.896523 
L 523.89545 125.542847 
L 524.837383 125.763794 
L 525.779316 123.749007 
L 526.721249 123.85675 
L 527.663182 125.52224 
L 528.605115 125.691544 
L 529.547048 125.694633 
L 530.48898 123.057514 
L 531.430913 126.230035 
L 532.372846 125.727007 
L 533.314779 124.996322 
L 534.256712 125.809804 
L 535.198645 126.045034 
L 536.140577 121.436175 
L 537.08251 125.199523 
L 538.024443 125.308529 
L 538.966376 123.453935 
L 539.908309 124.851239 
L 540.850242 125.801242 
L 541.792174 123.709294 
L 542.734107 126.487158 
L 544.617973 124.926578 
L 545.559906 125.902302 
L 546.501839 124.705723 
L 547.443771 126.316675 
L 548.385704 120.937475 
L 549.327637 126.085697 
L 550.26957 125.554303 
L 552.153436 123.873454 
L 553.095369 126.308431 
L 554.037301 125.868199 
L 554.979234 125.216673 
L 555.921167 126.173984 
L 556.8631 125.56808 
L 557.805033 125.994759 
L 558.746966 124.99292 
L 559.688898 124.315943 
L 560.630831 123.451364 
L 561.572764 123.678397 
L 562.514697 126.000304 
L 563.45663 126.494827 
L 564.398563 121.882521 
L 565.340495 126.214761 
L 566.282428 126.146285 
L 567.224361 122.062202 
L 568.166294 125.997686 
L 569.108227 124.366915 
L 570.05016 125.762166 
L 570.992093 125.815659 
L 571.934025 125.615689 
L 572.875958 124.730138 
L 573.817891 125.349158 
L 574.759824 123.534585 
L 575.701757 126.399513 
L 576.64369 124.485271 
L 577.585622 126.318351 
L 578.527555 123.462595 
L 579.469488 125.060905 
L 580.411421 125.245644 
L 581.353354 124.356558 
L 583.237219 126.074485 
L 584.179152 126.052046 
L 585.121085 125.166855 
L 586.063018 123.893009 
L 587.004951 126.133499 
L 587.946884 125.281788 
L 588.888817 123.280891 
L 589.830749 125.563039 
L 590.772682 125.115013 
L 591.714615 125.859581 
L 592.656548 126.039537 
L 594.540414 125.790925 
L 595.482346 123.865539 
L 596.424279 125.255856 
L 597.366212 125.845412 
L 598.308145 125.424752 
L 599.250078 124.209335 
L 600.192011 125.494521 
L 601.133943 126.010037 
L 602.075876 125.535751 
L 603.017809 126.172265 
L 603.959742 125.501084 
L 604.901675 124.625465 
L 605.843608 126.054083 
L 606.785541 125.93128 
L 607.727473 126.289354 
L 608.669406 124.135936 
L 609.611339 125.930156 
L 610.553272 124.579137 
L 611.495205 126.109948 
L 612.437138 124.151273 
L 613.37907 126.720031 
L 614.321003 122.983068 
L 615.262936 125.418761 
L 616.204869 125.830228 
L 617.146802 125.731795 
L 618.088735 122.812823 
L 619.030667 125.758004 
L 619.9726 125.304345 
L 620.914533 124.641999 
L 621.856466 124.978528 
L 622.798399 121.39426 
L 624.682265 126.63441 
L 625.624197 126.190338 
L 626.56613 124.965784 
L 627.508063 125.483992 
L 628.449996 125.289939 
L 629.391929 126.514274 
L 630.333862 124.849608 
L 632.217727 126.516823 
L 633.15966 126.260701 
L 634.101593 124.425992 
L 635.043526 126.278268 
L 636.927391 124.157316 
L 637.869324 125.943481 
L 638.811257 120.039189 
L 639.75319 122.199711 
L 640.695123 125.972177 
L 641.637056 126.387126 
L 642.578989 126.989974 
L 643.520921 124.526286 
L 644.462854 126.688807 
L 645.404787 124.093919 
L 646.34672 125.503447 
L 647.288653 126.687097 
L 648.230586 125.151884 
L 649.172518 126.358467 
L 650.114451 125.814088 
L 651.056384 126.889452 
L 651.998317 122.755062 
L 652.94025 125.340548 
L 653.882183 126.894126 
L 654.824115 126.162746 
L 655.766048 124.770034 
L 656.707981 127.191175 
L 657.649914 127.102996 
L 658.591847 126.233048 
L 659.53378 126.016222 
L 660.475713 125.104926 
L 661.417645 125.826755 
L 662.359578 124.504997 
L 663.301511 125.724259 
L 665.185377 124.226483 
L 666.12731 126.174959 
L 667.069242 126.695125 
L 668.011175 123.097549 
L 668.953108 124.561545 
L 669.895041 127.114887 
L 670.836974 126.222714 
L 671.778907 126.791308 
L 672.720839 126.381937 
L 673.662772 127.092437 
L 674.604705 124.110586 
L 675.546638 127.676974 
L 676.488571 125.986187 
L 678.372437 126.878 
L 679.314369 121.855186 
L 680.256302 126.563719 
L 681.198235 127.643958 
L 682.140168 126.397574 
L 683.082101 127.546803 
L 684.024034 127.18108 
L 684.965966 124.157431 
L 685.907899 127.158232 
L 686.849832 127.155018 
L 687.791765 127.962235 
L 688.733698 126.81548 
L 689.675631 127.889899 
L 690.617563 125.945163 
L 691.559496 127.114419 
L 692.501429 128.015991 
L 693.443362 127.204023 
L 694.385295 127.152907 
L 695.327228 126.138996 
L 696.269161 126.149648 
L 698.153026 128.034799 
L 699.094959 125.316864 
L 700.036892 127.236592 
L 700.978825 127.165307 
L 701.920758 127.490627 
L 702.86269 128.060097 
L 703.804623 126.776482 
L 704.746556 127.802853 
L 705.688489 124.988534 
L 706.630422 124.814415 
L 707.572355 127.941088 
L 708.514287 127.019313 
L 709.45622 127.942931 
L 710.398153 127.921705 
L 711.340086 127.190781 
L 712.282019 127.226658 
L 713.223952 128.338739 
L 714.165885 127.797107 
L 715.107817 127.488877 
L 716.04975 128.228857 
L 717.933616 126.355984 
L 718.875549 128.288204 
L 719.817482 127.153959 
L 720.759414 127.599154 
L 721.701347 128.593876 
L 722.64328 128.753159 
L 723.585213 126.998001 
L 724.527146 128.553905 
L 725.469079 126.856014 
L 727.352944 128.639169 
L 728.294877 129.288496 
L 729.23681 126.600629 
L 730.178743 129.20363 
L 731.120676 128.766394 
L 732.062609 128.891813 
L 733.004541 128.292508 
L 733.946474 128.537151 
L 734.888407 128.262573 
L 735.83034 129.714916 
L 736.772273 127.984998 
L 737.714206 127.568001 
L 738.656138 127.892177 
L 740.540004 129.525828 
L 741.481937 128.44186 
L 742.42387 128.532901 
L 743.365803 128.886576 
L 744.307735 125.89576 
L 745.249668 128.506334 
L 746.191601 130.034039 
L 747.133534 130.639243 
L 748.075467 128.251844 
L 749.0174 129.541695 
L 749.959333 129.542354 
L 750.901265 130.405248 
L 751.843198 129.264992 
L 752.785131 129.545231 
L 753.727064 130.568172 
L 754.668997 129.507009 
L 755.61093 130.914078 
L 756.552862 131.074974 
L 757.494795 130.736325 
L 758.436728 129.217032 
L 759.378661 130.173138 
L 760.320594 129.842142 
L 761.262527 132.15573 
L 762.204459 128.021285 
L 763.146392 131.504793 
L 764.088325 131.851126 
L 765.030258 131.212384 
L 765.972191 128.846922 
L 766.914124 130.857739 
L 767.856057 131.148291 
L 768.797989 130.685147 
L 769.739922 130.828338 
L 770.681855 129.670034 
L 771.623788 131.875492 
L 772.565721 132.270884 
L 773.507654 131.867394 
L 774.449586 132.578054 
L 775.391519 132.176339 
L 776.333452 132.281904 
L 777.275385 132.560591 
L 778.217318 133.018809 
L 779.159251 131.797985 
L 780.101183 133.367977 
L 781.043116 133.227788 
L 781.985049 133.22517 
L 782.926982 131.946431 
L 783.868915 131.239594 
L 784.810848 133.004229 
L 785.752781 133.51617 
L 786.694713 133.306993 
L 787.636646 134.643041 
L 788.578579 133.673481 
L 789.520512 130.733309 
L 790.462445 134.263426 
L 791.404378 133.550063 
L 792.34631 134.10681 
L 793.288243 133.270628 
L 794.230176 133.769018 
L 795.172109 133.227176 
L 796.114042 135.253075 
L 797.055975 135.349362 
L 797.997907 134.273949 
L 798.93984 135.164792 
L 799.881773 135.091486 
L 800.823706 132.788119 
L 801.765639 134.387009 
L 802.707572 132.825028 
L 803.649505 136.914817 
L 804.591437 137.028722 
L 805.53337 136.186569 
L 806.475303 137.026468 
L 807.417236 135.170144 
L 808.359169 135.449926 
L 809.301102 133.002932 
L 811.184967 137.066927 
L 812.1269 134.719929 
L 813.068833 138.14274 
L 814.010766 138.434497 
L 814.952699 137.334353 
L 815.894631 137.805906 
L 816.836564 138.832631 
L 817.778497 138.199099 
L 818.72043 138.033972 
L 819.662363 138.247794 
L 820.604296 138.896889 
L 821.546229 137.092045 
L 822.488161 139.015869 
L 823.430094 136.787352 
L 824.372027 138.955153 
L 825.31396 141.692508 
L 827.197826 139.501 
L 828.139758 141.289148 
L 829.081691 140.924553 
L 830.023624 142.760361 
L 830.965557 139.025036 
L 831.90749 131.585738 
L 832.849423 138.265464 
L 833.791355 143.537344 
L 834.733288 140.928007 
L 835.675221 140.813938 
L 836.617154 139.999837 
L 838.50102 142.948815 
L 839.442952 143.324168 
L 840.384885 144.429437 
L 842.268751 142.579562 
L 843.210684 142.882826 
L 844.152617 144.086659 
L 845.09455 148.288407 
L 846.036482 146.555405 
L 846.978415 141.261496 
L 847.920348 147.773725 
L 848.862281 145.849476 
L 849.804214 145.61935 
L 850.746147 147.93895 
L 851.688079 151.234804 
L 852.630012 149.765537 
L 853.571945 145.769193 
L 854.513878 146.946036 
L 855.455811 132.803558 
L 856.397744 149.330603 
L 857.339676 147.038013 
L 858.281609 153.046718 
L 859.223542 152.576013 
L 860.165475 151.202301 
L 861.107408 150.261116 
L 862.049341 154.084569 
L 862.991274 150.622087 
L 863.933206 151.477984 
L 864.875139 155.163598 
L 865.817072 156.160044 
L 866.759005 152.334568 
L 867.700938 158.762971 
L 868.642871 153.069629 
L 869.584803 150.26021 
L 870.526736 152.966511 
L 871.468669 159.414032 
L 872.410602 159.810028 
L 873.352535 161.005827 
L 874.294468 158.993159 
L 875.2364 162.617882 
L 876.178333 158.443684 
L 877.120266 161.35634 
L 878.062199 155.991414 
L 879.004132 161.095084 
L 879.946065 164.010568 
L 880.887998 164.66684 
L 881.82993 172.088991 
L 882.771863 162.756149 
L 883.713796 160.578063 
L 884.655729 163.727419 
L 885.597662 164.321044 
L 886.539595 164.206777 
L 887.481527 169.869425 
L 888.42346 173.186166 
L 889.365393 165.963774 
L 890.307326 165.809682 
L 891.249259 168.85109 
L 892.191192 175.979745 
L 893.133124 166.036552 
L 894.075057 176.37917 
L 895.01699 168.289722 
L 895.958923 172.179613 
L 896.900856 180.690958 
L 897.842789 165.706667 
L 898.784722 177.198898 
L 899.726654 165.493198 
L 901.61052 182.412839 
L 902.552453 181.776632 
L 903.494386 188.00872 
L 904.436319 181.547971 
L 905.378251 182.241067 
L 907.262117 191.89838 
L 908.20405 188.483845 
L 909.145983 190.823922 
L 910.087916 188.240321 
L 911.029848 188.846572 
L 911.971781 173.048328 
L 912.913714 194.363511 
L 913.855647 192.917544 
L 914.79758 194.39596 
L 915.739513 186.138809 
L 916.681446 192.488671 
L 917.623378 195.799016 
L 918.565311 188.642325 
L 919.507244 204.517607 
L 920.449177 196.852245 
L 921.39111 201.940217 
L 922.333043 199.81274 
L 923.274975 203.374692 
L 924.216908 198.61079 
L 926.100774 201.905643 
L 927.042707 207.27147 
L 927.98464 210.506933 
L 928.926572 207.452342 
L 929.868505 224.220729 
L 930.810438 218.292088 
L 931.752371 234.997602 
L 932.694304 217.694817 
L 933.636237 222.630455 
L 934.57817 223.765142 
L 935.520102 223.208945 
L 936.462035 229.533476 
L 937.403968 232.999858 
L 938.345901 218.457184 
L 939.287834 219.70537 
L 940.229767 225.940952 
L 941.171699 220.666004 
L 942.113632 232.917201 
L 943.055565 229.676823 
L 943.997498 222.983101 
L 944.939431 241.627178 
L 945.881364 240.502948 
L 946.823296 233.737452 
L 947.765229 222.056903 
L 948.707162 253.48957 
L 949.649095 251.807 
L 950.591028 222.562082 
L 951.532961 244.588477 
L 952.474894 249.409706 
L 953.416826 249.241011 
L 954.358759 235.350432 
L 955.300692 247.288876 
L 956.242625 267.443611 
L 957.184558 269.079028 
L 958.126491 262.781644 
L 959.068423 244.097559 
L 960.010356 272.743246 
L 960.952289 262.28285 
L 961.894222 268.784591 
L 962.836155 261.347384 
L 963.778088 285.896476 
L 964.72002 263.863709 
L 965.661953 272.958069 
L 966.603886 279.525961 
L 967.545819 282.412578 
L 968.487752 299.250472 
L 969.429685 304.246943 
L 971.31355 273.877177 
L 972.255483 243.211339 
L 973.197416 308.846478 
L 974.139349 316.08829 
L 975.081282 311.07451 
L 976.023215 311.380225 
L 976.965147 319.634635 
L 977.90708 345.880821 
L 978.849013 304.665273 
L 979.790946 295.554232 
L 980.732879 318.143666 
L 981.674812 298.598635 
L 982.616744 329.412297 
L 983.558677 335.458483 
L 984.50061 346.588738 
L 985.442543 320.438163 
L 986.384476 317.953815 
L 987.326409 319.862953 
L 988.268342 345.636984 
L 989.210274 346.410412 
L 990.152207 358.983488 
L 991.09414 355.000421 
L 992.036073 357.771749 
L 992.978006 341.539969 
L 993.919939 368.612068 
L 994.861871 361.046714 
L 995.803804 376.575688 
L 996.745737 340.595443 
L 997.68767 368.208377 
L 998.629603 384.728876 
L 999.571536 359.344157 
L 1000.513468 374.903734 
L 1001.455401 375.422167 
L 1002.397334 408.271708 
L 1003.339267 363.692218 
L 1004.2812 378.949436 
L 1005.223133 338.421959 
L 1006.165066 392.008978 
L 1007.106998 371.163412 
L 1008.048931 374.781716 
L 1008.990864 393.473781 
L 1009.932797 396.272457 
L 1010.87473 411.568589 
L 1011.816663 370.719934 
L 1012.758595 420.977579 
L 1013.700528 397.73415 
L 1014.642461 448.337894 
L 1015.584394 398.10513 
L 1016.526327 453.101784 
L 1017.46826 419.20816 
L 1018.410192 376.570529 
L 1019.352125 467.302824 
L 1020.294058 428.276092 
L 1021.235991 398.627729 
L 1022.177924 427.057029 
L 1023.119857 411.412863 
L 1024.06179 464.472545 
L 1025.003722 457.504314 
L 1025.945655 443.887225 
L 1026.887588 438.252218 
L 1027.829521 475.289692 
L 1029.713387 407.882693 
L 1030.655319 455.5906 
L 1031.597252 414.518131 
L 1032.539185 494.116253 
L 1033.481118 453.427801 
L 1034.423051 484.859763 
L 1035.364984 470.504803 
L 1036.306916 514.788703 
L 1037.248849 423.244638 
L 1038.190782 451.324543 
L 1039.132715 514.154027 
L 1040.074648 485.977179 
L 1041.016581 464.991768 
L 1041.958514 463.745157 
L 1042.900446 441.987308 
L 1044.784312 514.573929 
L 1045.726245 492.886202 
L 1046.668178 522.358403 
L 1047.610111 505.683948 
L 1048.552043 492.411508 
L 1050.435909 519.116648 
L 1051.377842 479.517658 
L 1052.319775 523.82251 
L 1053.261708 527.441224 
L 1054.20364 545.190266 
L 1055.145573 496.624568 
L 1056.087506 461.239689 
L 1057.029439 551.498704 
L 1057.971372 479.614677 
L 1058.913305 526.7042 
L 1059.855238 550.334283 
L 1060.79717 536.602539 
L 1061.739103 520.712304 
L 1062.681036 531.247977 
L 1063.622969 475.436123 
L 1064.564902 507.312778 
L 1065.506835 484.618056 
L 1066.448767 561.880375 
L 1067.3907 531.837897 
L 1068.332633 509.041607 
L 1069.274566 569.130644 
L 1070.216499 535.73588 
L 1071.158432 563.00581 
L 1072.100364 516.302807 
L 1073.042297 528.727334 
L 1073.98423 521.345334 
L 1074.926163 520.360477 
L 1075.868096 536.202985 
L 1076.810029 546.102535 
L 1077.751962 565.059108 
L 1078.693894 561.057388 
L 1079.635827 541.274513 
L 1080.57776 543.043827 
L 1081.519693 555.757361 
L 1082.461626 521.163333 
L 1083.403559 569.627442 
L 1084.345491 574.247092 
L 1085.287424 502.160718 
L 1086.229357 573.393439 
L 1087.17129 480.953952 
L 1088.113223 556.193825 
L 1089.055156 553.317866 
L 1089.997088 474.573498 
L 1090.939021 546.184716 
L 1091.880954 559.353888 
L 1092.822887 565.133002 
L 1093.76482 506.029933 
L 1094.706753 566.266726 
L 1095.648686 526.218512 
L 1096.590618 528.765319 
L 1097.532551 584.409099 
L 1098.474484 481.506396 
L 1099.416417 550.33081 
L 1100.35835 556.566848 
L 1101.300283 526.392963 
L 1102.242215 517.466788 
L 1103.184148 400.217915 
L 1104.126081 541.791948 
L 1105.068014 517.304305 
L 1106.009947 556.30466 
L 1107.893812 567.782908 
L 1108.835745 542.313723 
L 1109.777678 587.615478 
L 1110.719611 533.522018 
L 1111.661544 502.002357 
L 1112.603477 553.494007 
L 1113.54541 571.52069 
L 1114.487342 547.858382 
L 1115.429275 583.750658 
L 1116.371208 512.653038 
L 1117.313141 582.304442 
L 1118.255074 567.665991 
L 1119.197007 460.661528 
L 1120.138939 589.854202 
L 1121.080872 586.725972 
L 1122.022805 564.986741 
L 1122.964738 507.411549 
L 1123.906671 564.243681 
L 1124.848604 580.146168 
L 1125.790536 576.50024 
L 1126.732469 582.859868 
L 1127.674402 579.158314 
L 1128.616335 590.543017 
L 1129.558268 587.337124 
L 1130.500201 590.76674 
L 1131.442133 578.738309 
L 1132.384066 517.883488 
L 1133.325999 443.065591 
L 1134.267932 594.125713 
L 1135.209865 585.435884 
L 1136.151798 557.115105 
L 1137.093731 586.109312 
L 1138.035663 566.538184 
L 1138.977596 512.07776 
L 1139.919529 577.115915 
L 1140.861462 586.589883 
L 1141.803395 540.095423 
L 1142.745328 576.840103 
L 1143.68726 577.297167 
L 1144.629193 575.232376 
L 1145.571126 595.785423 
L 1146.513059 596.889162 
L 1147.454992 557.694965 
L 1148.396925 592.730125 
L 1149.338857 586.713407 
L 1150.28079 595.017633 
L 1151.222723 562.678032 
L 1152.164656 576.711951 
L 1153.106589 611.235166 
L 1154.048522 523.404605 
L 1154.990455 603.85408 
L 1154.990455 603.85408 
" style="fill:none;stroke:#ff0000;stroke-linecap:square;stroke-width:1.5;"/>
   </g>
   <g id="patch_3">
    <path d="M 166.95 654.8976 
L 166.95 88.3008 
" style="fill:none;stroke:#000000;stroke-linecap:square;stroke-linejoin:miter;stroke-width:0.8;"/>
   </g>
   <g id="patch_4">
    <path d="M 1202.04 654.8976 
L 1202.04 88.3008 
" style="fill:none;stroke:#000000;stroke-linecap:square;stroke-linejoin:miter;stroke-width:0.8;"/>
   </g>
   <g id="patch_5">
    <path d="M 166.95 654.8976 
L 1202.04 654.8976 
" style="fill:none;stroke:#000000;stroke-linecap:square;stroke-linejoin:miter;stroke-width:0.8;"/>
   </g>
   <g id="patch_6">
    <path d="M 166.95 88.3008 
L 1202.04 88.3008 
" style="fill:none;stroke:#000000;stroke-linecap:square;stroke-linejoin:miter;stroke-width:0.8;"/>
   </g>
   <g id="text_16">
    <!-- Training,Validation Error vs Number of epochs with dropout probability= 0.5,learning rate=0.001 -->
    <defs>
     <path d="M -0.296875 72.90625 
L 61.375 72.90625 
L 61.375 64.59375 
L 35.5 64.59375 
L 35.5 0 
L 25.59375 0 
L 25.59375 64.59375 
L -0.296875 64.59375 
z
" id="DejaVuSans-54"/>
     <path d="M 9.421875 54.6875 
L 18.40625 54.6875 
L 18.40625 0 
L 9.421875 0 
z
M 9.421875 75.984375 
L 18.40625 75.984375 
L 18.40625 64.59375 
L 9.421875 64.59375 
z
" id="DejaVuSans-69"/>
     <path d="M 45.40625 27.984375 
Q 45.40625 37.75 41.375 43.109375 
Q 37.359375 48.484375 30.078125 48.484375 
Q 22.859375 48.484375 18.828125 43.109375 
Q 14.796875 37.75 14.796875 27.984375 
Q 14.796875 18.265625 18.828125 12.890625 
Q 22.859375 7.515625 30.078125 7.515625 
Q 37.359375 7.515625 41.375 12.890625 
Q 45.40625 18.265625 45.40625 27.984375 
z
M 54.390625 6.78125 
Q 54.390625 -7.171875 48.1875 -13.984375 
Q 42 -20.796875 29.203125 -20.796875 
Q 24.46875 -20.796875 20.265625 -20.09375 
Q 16.0625 -19.390625 12.109375 -17.921875 
L 12.109375 -9.1875 
Q 16.0625 -11.328125 19.921875 -12.34375 
Q 23.78125 -13.375 27.78125 -13.375 
Q 36.625 -13.375 41.015625 -8.765625 
Q 45.40625 -4.15625 45.40625 5.171875 
L 45.40625 9.625 
Q 42.625 4.78125 38.28125 2.390625 
Q 33.9375 0 27.875 0 
Q 17.828125 0 11.671875 7.65625 
Q 5.515625 15.328125 5.515625 27.984375 
Q 5.515625 40.671875 11.671875 48.328125 
Q 17.828125 56 27.875 56 
Q 33.9375 56 38.28125 53.609375 
Q 42.625 51.21875 45.40625 46.390625 
L 45.40625 54.6875 
L 54.390625 54.6875 
z
" id="DejaVuSans-67"/>
     <path d="M 11.71875 12.40625 
L 22.015625 12.40625 
L 22.015625 4 
L 14.015625 -11.625 
L 7.71875 -11.625 
L 11.71875 4 
z
" id="DejaVuSans-2c"/>
     <path d="M 28.609375 0 
L 0.78125 72.90625 
L 11.078125 72.90625 
L 34.1875 11.53125 
L 57.328125 72.90625 
L 67.578125 72.90625 
L 39.796875 0 
z
" id="DejaVuSans-56"/>
     <path d="M 9.421875 75.984375 
L 18.40625 75.984375 
L 18.40625 0 
L 9.421875 0 
z
" id="DejaVuSans-6c"/>
     <path d="M 45.40625 46.390625 
L 45.40625 75.984375 
L 54.390625 75.984375 
L 54.390625 0 
L 45.40625 0 
L 45.40625 8.203125 
Q 42.578125 3.328125 38.25 0.953125 
Q 33.9375 -1.421875 27.875 -1.421875 
Q 17.96875 -1.421875 11.734375 6.484375 
Q 5.515625 14.40625 5.515625 27.296875 
Q 5.515625 40.1875 11.734375 48.09375 
Q 17.96875 56 27.875 56 
Q 33.9375 56 38.25 53.625 
Q 42.578125 51.265625 45.40625 46.390625 
z
M 14.796875 27.296875 
Q 14.796875 17.390625 18.875 11.75 
Q 22.953125 6.109375 30.078125 6.109375 
Q 37.203125 6.109375 41.296875 11.75 
Q 45.40625 17.390625 45.40625 27.296875 
Q 45.40625 37.203125 41.296875 42.84375 
Q 37.203125 48.484375 30.078125 48.484375 
Q 22.953125 48.484375 18.875 42.84375 
Q 14.796875 37.203125 14.796875 27.296875 
z
" id="DejaVuSans-64"/>
     <path d="M 18.3125 70.21875 
L 18.3125 54.6875 
L 36.8125 54.6875 
L 36.8125 47.703125 
L 18.3125 47.703125 
L 18.3125 18.015625 
Q 18.3125 11.328125 20.140625 9.421875 
Q 21.96875 7.515625 27.59375 7.515625 
L 36.8125 7.515625 
L 36.8125 0 
L 27.59375 0 
Q 17.1875 0 13.234375 3.875 
Q 9.28125 7.765625 9.28125 18.015625 
L 9.28125 47.703125 
L 2.6875 47.703125 
L 2.6875 54.6875 
L 9.28125 54.6875 
L 9.28125 70.21875 
z
" id="DejaVuSans-74"/>
     <path d="M 2.984375 54.6875 
L 12.5 54.6875 
L 29.59375 8.796875 
L 46.6875 54.6875 
L 56.203125 54.6875 
L 35.6875 0 
L 23.484375 0 
z
" id="DejaVuSans-76"/>
     <path d="M 4.203125 54.6875 
L 13.1875 54.6875 
L 24.421875 12.015625 
L 35.59375 54.6875 
L 46.1875 54.6875 
L 57.421875 12.015625 
L 68.609375 54.6875 
L 77.59375 54.6875 
L 63.28125 0 
L 52.6875 0 
L 40.921875 44.828125 
L 29.109375 0 
L 18.5 0 
z
" id="DejaVuSans-77"/>
     <path d="M 32.171875 -5.078125 
Q 28.375 -14.84375 24.75 -17.8125 
Q 21.140625 -20.796875 15.09375 -20.796875 
L 7.90625 -20.796875 
L 7.90625 -13.28125 
L 13.1875 -13.28125 
Q 16.890625 -13.28125 18.9375 -11.515625 
Q 21 -9.765625 23.484375 -3.21875 
L 25.09375 0.875 
L 2.984375 54.6875 
L 12.5 54.6875 
L 29.59375 11.921875 
L 46.6875 54.6875 
L 56.203125 54.6875 
z
" id="DejaVuSans-79"/>
     <path d="M 10.59375 45.40625 
L 73.1875 45.40625 
L 73.1875 37.203125 
L 10.59375 37.203125 
z
M 10.59375 25.484375 
L 73.1875 25.484375 
L 73.1875 17.1875 
L 10.59375 17.1875 
z
" id="DejaVuSans-3d"/>
     <path d="M 10.796875 72.90625 
L 49.515625 72.90625 
L 49.515625 64.59375 
L 19.828125 64.59375 
L 19.828125 46.734375 
Q 21.96875 47.46875 24.109375 47.828125 
Q 26.265625 48.1875 28.421875 48.1875 
Q 40.625 48.1875 47.75 41.5 
Q 54.890625 34.8125 54.890625 23.390625 
Q 54.890625 11.625 47.5625 5.09375 
Q 40.234375 -1.421875 26.90625 -1.421875 
Q 22.3125 -1.421875 17.546875 -0.640625 
Q 12.796875 0.140625 7.71875 1.703125 
L 7.71875 11.625 
Q 12.109375 9.234375 16.796875 8.0625 
Q 21.484375 6.890625 26.703125 6.890625 
Q 35.15625 6.890625 40.078125 11.328125 
Q 45.015625 15.765625 45.015625 23.390625 
Q 45.015625 31 40.078125 35.4375 
Q 35.15625 39.890625 26.703125 39.890625 
Q 22.75 39.890625 18.8125 39.015625 
Q 14.890625 38.140625 10.796875 36.28125 
z
" id="DejaVuSans-35"/>
    </defs>
    <g transform="translate(392.16375 82.3008)scale(0.12 -0.12)">
     <use xlink:href="#DejaVuSans-54"/>
     <use x="60.865234" xlink:href="#DejaVuSans-72"/>
     <use x="101.978516" xlink:href="#DejaVuSans-61"/>
     <use x="163.257812" xlink:href="#DejaVuSans-69"/>
     <use x="191.041016" xlink:href="#DejaVuSans-6e"/>
     <use x="254.419922" xlink:href="#DejaVuSans-69"/>
     <use x="282.203125" xlink:href="#DejaVuSans-6e"/>
     <use x="345.582031" xlink:href="#DejaVuSans-67"/>
     <use x="409.058594" xlink:href="#DejaVuSans-2c"/>
     <use x="440.845703" xlink:href="#DejaVuSans-56"/>
     <use x="509.144531" xlink:href="#DejaVuSans-61"/>
     <use x="570.423828" xlink:href="#DejaVuSans-6c"/>
     <use x="598.207031" xlink:href="#DejaVuSans-69"/>
     <use x="625.990234" xlink:href="#DejaVuSans-64"/>
     <use x="689.466797" xlink:href="#DejaVuSans-61"/>
     <use x="750.746094" xlink:href="#DejaVuSans-74"/>
     <use x="789.955078" xlink:href="#DejaVuSans-69"/>
     <use x="817.738281" xlink:href="#DejaVuSans-6f"/>
     <use x="878.919922" xlink:href="#DejaVuSans-6e"/>
     <use x="942.298828" xlink:href="#DejaVuSans-20"/>
     <use x="974.085938" xlink:href="#DejaVuSans-45"/>
     <use x="1037.269531" xlink:href="#DejaVuSans-72"/>
     <use x="1078.367188" xlink:href="#DejaVuSans-72"/>
     <use x="1119.449219" xlink:href="#DejaVuSans-6f"/>
     <use x="1180.630859" xlink:href="#DejaVuSans-72"/>
     <use x="1221.744141" xlink:href="#DejaVuSans-20"/>
     <use x="1253.53125" xlink:href="#DejaVuSans-76"/>
     <use x="1312.710938" xlink:href="#DejaVuSans-73"/>
     <use x="1364.810547" xlink:href="#DejaVuSans-20"/>
     <use x="1396.597656" xlink:href="#DejaVuSans-4e"/>
     <use x="1471.402344" xlink:href="#DejaVuSans-75"/>
     <use x="1534.78125" xlink:href="#DejaVuSans-6d"/>
     <use x="1632.193359" xlink:href="#DejaVuSans-62"/>
     <use x="1695.669922" xlink:href="#DejaVuSans-65"/>
     <use x="1757.193359" xlink:href="#DejaVuSans-72"/>
     <use x="1798.306641" xlink:href="#DejaVuSans-20"/>
     <use x="1830.09375" xlink:href="#DejaVuSans-6f"/>
     <use x="1891.275391" xlink:href="#DejaVuSans-66"/>
     <use x="1926.480469" xlink:href="#DejaVuSans-20"/>
     <use x="1958.267578" xlink:href="#DejaVuSans-65"/>
     <use x="2019.791016" xlink:href="#DejaVuSans-70"/>
     <use x="2083.267578" xlink:href="#DejaVuSans-6f"/>
     <use x="2144.449219" xlink:href="#DejaVuSans-63"/>
     <use x="2199.429688" xlink:href="#DejaVuSans-68"/>
     <use x="2262.808594" xlink:href="#DejaVuSans-73"/>
     <use x="2314.908203" xlink:href="#DejaVuSans-20"/>
     <use x="2346.695312" xlink:href="#DejaVuSans-77"/>
     <use x="2428.482422" xlink:href="#DejaVuSans-69"/>
     <use x="2456.265625" xlink:href="#DejaVuSans-74"/>
     <use x="2495.474609" xlink:href="#DejaVuSans-68"/>
     <use x="2558.853516" xlink:href="#DejaVuSans-20"/>
     <use x="2590.640625" xlink:href="#DejaVuSans-64"/>
     <use x="2654.117188" xlink:href="#DejaVuSans-72"/>
     <use x="2695.199219" xlink:href="#DejaVuSans-6f"/>
     <use x="2756.380859" xlink:href="#DejaVuSans-70"/>
     <use x="2819.857422" xlink:href="#DejaVuSans-6f"/>
     <use x="2881.039062" xlink:href="#DejaVuSans-75"/>
     <use x="2944.417969" xlink:href="#DejaVuSans-74"/>
     <use x="2983.626953" xlink:href="#DejaVuSans-20"/>
     <use x="3015.414062" xlink:href="#DejaVuSans-70"/>
     <use x="3078.890625" xlink:href="#DejaVuSans-72"/>
     <use x="3119.972656" xlink:href="#DejaVuSans-6f"/>
     <use x="3181.154297" xlink:href="#DejaVuSans-62"/>
     <use x="3244.630859" xlink:href="#DejaVuSans-61"/>
     <use x="3305.910156" xlink:href="#DejaVuSans-62"/>
     <use x="3369.386719" xlink:href="#DejaVuSans-69"/>
     <use x="3397.169922" xlink:href="#DejaVuSans-6c"/>
     <use x="3424.953125" xlink:href="#DejaVuSans-69"/>
     <use x="3452.736328" xlink:href="#DejaVuSans-74"/>
     <use x="3491.945312" xlink:href="#DejaVuSans-79"/>
     <use x="3551.125" xlink:href="#DejaVuSans-3d"/>
     <use x="3634.914062" xlink:href="#DejaVuSans-20"/>
     <use x="3666.701172" xlink:href="#DejaVuSans-30"/>
     <use x="3730.324219" xlink:href="#DejaVuSans-2e"/>
     <use x="3762.111328" xlink:href="#DejaVuSans-35"/>
     <use x="3825.734375" xlink:href="#DejaVuSans-2c"/>
     <use x="3857.521484" xlink:href="#DejaVuSans-6c"/>
     <use x="3885.304688" xlink:href="#DejaVuSans-65"/>
     <use x="3946.828125" xlink:href="#DejaVuSans-61"/>
     <use x="4008.107422" xlink:href="#DejaVuSans-72"/>
     <use x="4049.205078" xlink:href="#DejaVuSans-6e"/>
     <use x="4112.583984" xlink:href="#DejaVuSans-69"/>
     <use x="4140.367188" xlink:href="#DejaVuSans-6e"/>
     <use x="4203.746094" xlink:href="#DejaVuSans-67"/>
     <use x="4267.222656" xlink:href="#DejaVuSans-20"/>
     <use x="4299.009766" xlink:href="#DejaVuSans-72"/>
     <use x="4340.123047" xlink:href="#DejaVuSans-61"/>
     <use x="4401.402344" xlink:href="#DejaVuSans-74"/>
     <use x="4440.611328" xlink:href="#DejaVuSans-65"/>
     <use x="4502.134766" xlink:href="#DejaVuSans-3d"/>
     <use x="4585.923828" xlink:href="#DejaVuSans-30"/>
     <use x="4649.546875" xlink:href="#DejaVuSans-2e"/>
     <use x="4681.333984" xlink:href="#DejaVuSans-30"/>
     <use x="4744.957031" xlink:href="#DejaVuSans-30"/>
     <use x="4808.580078" xlink:href="#DejaVuSans-31"/>
    </g>
   </g>
   <g id="legend_1">
    <g id="patch_7">
     <path d="M 1084.950938 125.65705 
L 1195.04 125.65705 
Q 1197.04 125.65705 1197.04 123.65705 
L 1197.04 95.3008 
Q 1197.04 93.3008 1195.04 93.3008 
L 1084.950938 93.3008 
Q 1082.950938 93.3008 1082.950938 95.3008 
L 1082.950938 123.65705 
Q 1082.950938 125.65705 1084.950938 125.65705 
z
" style="fill:#ffffff;opacity:0.8;stroke:#cccccc;stroke-linejoin:miter;"/>
    </g>
    <g id="line2d_16">
     <path d="M 1086.950938 101.399238 
L 1106.950938 101.399238 
" style="fill:none;stroke:#008000;stroke-linecap:square;stroke-width:1.5;"/>
    </g>
    <g id="line2d_17"/>
    <g id="text_17">
     <!-- Training Error -->
     <g transform="translate(1114.950938 104.899238)scale(0.1 -0.1)">
      <use xlink:href="#DejaVuSans-54"/>
      <use x="60.865234" xlink:href="#DejaVuSans-72"/>
      <use x="101.978516" xlink:href="#DejaVuSans-61"/>
      <use x="163.257812" xlink:href="#DejaVuSans-69"/>
      <use x="191.041016" xlink:href="#DejaVuSans-6e"/>
      <use x="254.419922" xlink:href="#DejaVuSans-69"/>
      <use x="282.203125" xlink:href="#DejaVuSans-6e"/>
      <use x="345.582031" xlink:href="#DejaVuSans-67"/>
      <use x="409.058594" xlink:href="#DejaVuSans-20"/>
      <use x="440.845703" xlink:href="#DejaVuSans-45"/>
      <use x="504.029297" xlink:href="#DejaVuSans-72"/>
      <use x="545.126953" xlink:href="#DejaVuSans-72"/>
      <use x="586.208984" xlink:href="#DejaVuSans-6f"/>
      <use x="647.390625" xlink:href="#DejaVuSans-72"/>
     </g>
    </g>
    <g id="line2d_18">
     <path d="M 1086.950938 116.077363 
L 1106.950938 116.077363 
" style="fill:none;stroke:#ff0000;stroke-linecap:square;stroke-width:1.5;"/>
    </g>
    <g id="line2d_19"/>
    <g id="text_18">
     <!-- Validation Error -->
     <g transform="translate(1114.950938 119.577363)scale(0.1 -0.1)">
      <use xlink:href="#DejaVuSans-56"/>
      <use x="68.298828" xlink:href="#DejaVuSans-61"/>
      <use x="129.578125" xlink:href="#DejaVuSans-6c"/>
      <use x="157.361328" xlink:href="#DejaVuSans-69"/>
      <use x="185.144531" xlink:href="#DejaVuSans-64"/>
      <use x="248.621094" xlink:href="#DejaVuSans-61"/>
      <use x="309.900391" xlink:href="#DejaVuSans-74"/>
      <use x="349.109375" xlink:href="#DejaVuSans-69"/>
      <use x="376.892578" xlink:href="#DejaVuSans-6f"/>
      <use x="438.074219" xlink:href="#DejaVuSans-6e"/>
      <use x="501.453125" xlink:href="#DejaVuSans-20"/>
      <use x="533.240234" xlink:href="#DejaVuSans-45"/>
      <use x="596.423828" xlink:href="#DejaVuSans-72"/>
      <use x="637.521484" xlink:href="#DejaVuSans-72"/>
      <use x="678.603516" xlink:href="#DejaVuSans-6f"/>
      <use x="739.785156" xlink:href="#DejaVuSans-72"/>
     </g>
    </g>
   </g>
  </g>
 </g>
 <defs>
  <clipPath id="p0f985dd502">
   <rect height="566.5968" width="1035.09" x="166.95" y="88.3008"/>
  </clipPath>
 </defs>
</svg>
