<?xml version="1.0" encoding="utf-8" standalone="no"?>
<!DOCTYPE svg PUBLIC "-//W3C//DTD SVG 1.1//EN"
  "http://www.w3.org/Graphics/SVG/1.1/DTD/svg11.dtd">
<!-- Created with matplotlib (http://matplotlib.org/) -->
<svg height="735.84pt" version="1.1" viewBox="0 0 1335.6 735.84" width="1335.6pt" xmlns="http://www.w3.org/2000/svg" xmlns:xlink="http://www.w3.org/1999/xlink">
 <defs>
  <style type="text/css">
*{stroke-linecap:butt;stroke-linejoin:round;}
  </style>
 </defs>
 <g id="figure_1">
  <g id="patch_1">
   <path d="M 0 735.84 
L 1335.6 735.84 
L 1335.6 0 
L 0 0 
z
" style="fill:#ffffff;"/>
  </g>
  <g id="axes_1">
   <g id="patch_2">
    <path d="M 166.95 654.8976 
L 1202.04 654.8976 
L 1202.04 88.3008 
L 166.95 88.3008 
z
" style="fill:#ffffff;"/>
   </g>
   <g id="matplotlib.axis_1">
    <g id="xtick_1">
     <g id="line2d_1">
      <defs>
       <path d="M 0 0 
L 0 3.5 
" id="mbbaded3313" style="stroke:#000000;stroke-width:0.8;"/>
      </defs>
      <g>
       <use style="stroke:#000000;stroke-width:0.8;" x="213.057613" xlink:href="#mbbaded3313" y="654.8976"/>
      </g>
     </g>
     <g id="text_1">
      <!-- 0 -->
      <defs>
       <path d="M 31.78125 66.40625 
Q 24.171875 66.40625 20.328125 58.90625 
Q 16.5 51.421875 16.5 36.375 
Q 16.5 21.390625 20.328125 13.890625 
Q 24.171875 6.390625 31.78125 6.390625 
Q 39.453125 6.390625 43.28125 13.890625 
Q 47.125 21.390625 47.125 36.375 
Q 47.125 51.421875 43.28125 58.90625 
Q 39.453125 66.40625 31.78125 66.40625 
z
M 31.78125 74.21875 
Q 44.046875 74.21875 50.515625 64.515625 
Q 56.984375 54.828125 56.984375 36.375 
Q 56.984375 17.96875 50.515625 8.265625 
Q 44.046875 -1.421875 31.78125 -1.421875 
Q 19.53125 -1.421875 13.0625 8.265625 
Q 6.59375 17.96875 6.59375 36.375 
Q 6.59375 54.828125 13.0625 64.515625 
Q 19.53125 74.21875 31.78125 74.21875 
z
" id="DejaVuSans-30"/>
      </defs>
      <g transform="translate(209.876363 669.496038)scale(0.1 -0.1)">
       <use xlink:href="#DejaVuSans-30"/>
      </g>
     </g>
    </g>
    <g id="xtick_2">
     <g id="line2d_2">
      <g>
       <use style="stroke:#000000;stroke-width:0.8;" x="401.444181" xlink:href="#mbbaded3313" y="654.8976"/>
      </g>
     </g>
     <g id="text_2">
      <!-- 200 -->
      <defs>
       <path d="M 19.1875 8.296875 
L 53.609375 8.296875 
L 53.609375 0 
L 7.328125 0 
L 7.328125 8.296875 
Q 12.9375 14.109375 22.625 23.890625 
Q 32.328125 33.6875 34.8125 36.53125 
Q 39.546875 41.84375 41.421875 45.53125 
Q 43.3125 49.21875 43.3125 52.78125 
Q 43.3125 58.59375 39.234375 62.25 
Q 35.15625 65.921875 28.609375 65.921875 
Q 23.96875 65.921875 18.8125 64.3125 
Q 13.671875 62.703125 7.8125 59.421875 
L 7.8125 69.390625 
Q 13.765625 71.78125 18.9375 73 
Q 24.125 74.21875 28.421875 74.21875 
Q 39.75 74.21875 46.484375 68.546875 
Q 53.21875 62.890625 53.21875 53.421875 
Q 53.21875 48.921875 51.53125 44.890625 
Q 49.859375 40.875 45.40625 35.40625 
Q 44.1875 33.984375 37.640625 27.21875 
Q 31.109375 20.453125 19.1875 8.296875 
z
" id="DejaVuSans-32"/>
      </defs>
      <g transform="translate(391.900431 669.496038)scale(0.1 -0.1)">
       <use xlink:href="#DejaVuSans-32"/>
       <use x="63.623047" xlink:href="#DejaVuSans-30"/>
       <use x="127.246094" xlink:href="#DejaVuSans-30"/>
      </g>
     </g>
    </g>
    <g id="xtick_3">
     <g id="line2d_3">
      <g>
       <use style="stroke:#000000;stroke-width:0.8;" x="589.830749" xlink:href="#mbbaded3313" y="654.8976"/>
      </g>
     </g>
     <g id="text_3">
      <!-- 400 -->
      <defs>
       <path d="M 37.796875 64.3125 
L 12.890625 25.390625 
L 37.796875 25.390625 
z
M 35.203125 72.90625 
L 47.609375 72.90625 
L 47.609375 25.390625 
L 58.015625 25.390625 
L 58.015625 17.1875 
L 47.609375 17.1875 
L 47.609375 0 
L 37.796875 0 
L 37.796875 17.1875 
L 4.890625 17.1875 
L 4.890625 26.703125 
z
" id="DejaVuSans-34"/>
      </defs>
      <g transform="translate(580.286999 669.496038)scale(0.1 -0.1)">
       <use xlink:href="#DejaVuSans-34"/>
       <use x="63.623047" xlink:href="#DejaVuSans-30"/>
       <use x="127.246094" xlink:href="#DejaVuSans-30"/>
      </g>
     </g>
    </g>
    <g id="xtick_4">
     <g id="line2d_4">
      <g>
       <use style="stroke:#000000;stroke-width:0.8;" x="778.217318" xlink:href="#mbbaded3313" y="654.8976"/>
      </g>
     </g>
     <g id="text_4">
      <!-- 600 -->
      <defs>
       <path d="M 33.015625 40.375 
Q 26.375 40.375 22.484375 35.828125 
Q 18.609375 31.296875 18.609375 23.390625 
Q 18.609375 15.53125 22.484375 10.953125 
Q 26.375 6.390625 33.015625 6.390625 
Q 39.65625 6.390625 43.53125 10.953125 
Q 47.40625 15.53125 47.40625 23.390625 
Q 47.40625 31.296875 43.53125 35.828125 
Q 39.65625 40.375 33.015625 40.375 
z
M 52.59375 71.296875 
L 52.59375 62.3125 
Q 48.875 64.0625 45.09375 64.984375 
Q 41.3125 65.921875 37.59375 65.921875 
Q 27.828125 65.921875 22.671875 59.328125 
Q 17.53125 52.734375 16.796875 39.40625 
Q 19.671875 43.65625 24.015625 45.921875 
Q 28.375 48.1875 33.59375 48.1875 
Q 44.578125 48.1875 50.953125 41.515625 
Q 57.328125 34.859375 57.328125 23.390625 
Q 57.328125 12.15625 50.6875 5.359375 
Q 44.046875 -1.421875 33.015625 -1.421875 
Q 20.359375 -1.421875 13.671875 8.265625 
Q 6.984375 17.96875 6.984375 36.375 
Q 6.984375 53.65625 15.1875 63.9375 
Q 23.390625 74.21875 37.203125 74.21875 
Q 40.921875 74.21875 44.703125 73.484375 
Q 48.484375 72.75 52.59375 71.296875 
z
" id="DejaVuSans-36"/>
      </defs>
      <g transform="translate(768.673568 669.496038)scale(0.1 -0.1)">
       <use xlink:href="#DejaVuSans-36"/>
       <use x="63.623047" xlink:href="#DejaVuSans-30"/>
       <use x="127.246094" xlink:href="#DejaVuSans-30"/>
      </g>
     </g>
    </g>
    <g id="xtick_5">
     <g id="line2d_5">
      <g>
       <use style="stroke:#000000;stroke-width:0.8;" x="966.603886" xlink:href="#mbbaded3313" y="654.8976"/>
      </g>
     </g>
     <g id="text_5">
      <!-- 800 -->
      <defs>
       <path d="M 31.78125 34.625 
Q 24.75 34.625 20.71875 30.859375 
Q 16.703125 27.09375 16.703125 20.515625 
Q 16.703125 13.921875 20.71875 10.15625 
Q 24.75 6.390625 31.78125 6.390625 
Q 38.8125 6.390625 42.859375 10.171875 
Q 46.921875 13.96875 46.921875 20.515625 
Q 46.921875 27.09375 42.890625 30.859375 
Q 38.875 34.625 31.78125 34.625 
z
M 21.921875 38.8125 
Q 15.578125 40.375 12.03125 44.71875 
Q 8.5 49.078125 8.5 55.328125 
Q 8.5 64.0625 14.71875 69.140625 
Q 20.953125 74.21875 31.78125 74.21875 
Q 42.671875 74.21875 48.875 69.140625 
Q 55.078125 64.0625 55.078125 55.328125 
Q 55.078125 49.078125 51.53125 44.71875 
Q 48 40.375 41.703125 38.8125 
Q 48.828125 37.15625 52.796875 32.3125 
Q 56.78125 27.484375 56.78125 20.515625 
Q 56.78125 9.90625 50.3125 4.234375 
Q 43.84375 -1.421875 31.78125 -1.421875 
Q 19.734375 -1.421875 13.25 4.234375 
Q 6.78125 9.90625 6.78125 20.515625 
Q 6.78125 27.484375 10.78125 32.3125 
Q 14.796875 37.15625 21.921875 38.8125 
z
M 18.3125 54.390625 
Q 18.3125 48.734375 21.84375 45.5625 
Q 25.390625 42.390625 31.78125 42.390625 
Q 38.140625 42.390625 41.71875 45.5625 
Q 45.3125 48.734375 45.3125 54.390625 
Q 45.3125 60.0625 41.71875 63.234375 
Q 38.140625 66.40625 31.78125 66.40625 
Q 25.390625 66.40625 21.84375 63.234375 
Q 18.3125 60.0625 18.3125 54.390625 
z
" id="DejaVuSans-38"/>
      </defs>
      <g transform="translate(957.060136 669.496038)scale(0.1 -0.1)">
       <use xlink:href="#DejaVuSans-38"/>
       <use x="63.623047" xlink:href="#DejaVuSans-30"/>
       <use x="127.246094" xlink:href="#DejaVuSans-30"/>
      </g>
     </g>
    </g>
    <g id="xtick_6">
     <g id="line2d_6">
      <g>
       <use style="stroke:#000000;stroke-width:0.8;" x="1154.990455" xlink:href="#mbbaded3313" y="654.8976"/>
      </g>
     </g>
     <g id="text_6">
      <!-- 1000 -->
      <defs>
       <path d="M 12.40625 8.296875 
L 28.515625 8.296875 
L 28.515625 63.921875 
L 10.984375 60.40625 
L 10.984375 69.390625 
L 28.421875 72.90625 
L 38.28125 72.90625 
L 38.28125 8.296875 
L 54.390625 8.296875 
L 54.390625 0 
L 12.40625 0 
z
" id="DejaVuSans-31"/>
      </defs>
      <g transform="translate(1142.265455 669.496038)scale(0.1 -0.1)">
       <use xlink:href="#DejaVuSans-31"/>
       <use x="63.623047" xlink:href="#DejaVuSans-30"/>
       <use x="127.246094" xlink:href="#DejaVuSans-30"/>
       <use x="190.869141" xlink:href="#DejaVuSans-30"/>
      </g>
     </g>
    </g>
    <g id="text_7">
     <!-- Number of Epochs -->
     <defs>
      <path d="M 9.8125 72.90625 
L 23.09375 72.90625 
L 55.421875 11.921875 
L 55.421875 72.90625 
L 64.984375 72.90625 
L 64.984375 0 
L 51.703125 0 
L 19.390625 60.984375 
L 19.390625 0 
L 9.8125 0 
z
" id="DejaVuSans-4e"/>
      <path d="M 8.5 21.578125 
L 8.5 54.6875 
L 17.484375 54.6875 
L 17.484375 21.921875 
Q 17.484375 14.15625 20.5 10.265625 
Q 23.53125 6.390625 29.59375 6.390625 
Q 36.859375 6.390625 41.078125 11.03125 
Q 45.3125 15.671875 45.3125 23.6875 
L 45.3125 54.6875 
L 54.296875 54.6875 
L 54.296875 0 
L 45.3125 0 
L 45.3125 8.40625 
Q 42.046875 3.421875 37.71875 1 
Q 33.40625 -1.421875 27.6875 -1.421875 
Q 18.265625 -1.421875 13.375 4.4375 
Q 8.5 10.296875 8.5 21.578125 
z
M 31.109375 56 
z
" id="DejaVuSans-75"/>
      <path d="M 52 44.1875 
Q 55.375 50.25 60.0625 53.125 
Q 64.75 56 71.09375 56 
Q 79.640625 56 84.28125 50.015625 
Q 88.921875 44.046875 88.921875 33.015625 
L 88.921875 0 
L 79.890625 0 
L 79.890625 32.71875 
Q 79.890625 40.578125 77.09375 44.375 
Q 74.3125 48.1875 68.609375 48.1875 
Q 61.625 48.1875 57.5625 43.546875 
Q 53.515625 38.921875 53.515625 30.90625 
L 53.515625 0 
L 44.484375 0 
L 44.484375 32.71875 
Q 44.484375 40.625 41.703125 44.40625 
Q 38.921875 48.1875 33.109375 48.1875 
Q 26.21875 48.1875 22.15625 43.53125 
Q 18.109375 38.875 18.109375 30.90625 
L 18.109375 0 
L 9.078125 0 
L 9.078125 54.6875 
L 18.109375 54.6875 
L 18.109375 46.1875 
Q 21.1875 51.21875 25.484375 53.609375 
Q 29.78125 56 35.6875 56 
Q 41.65625 56 45.828125 52.96875 
Q 50 49.953125 52 44.1875 
z
" id="DejaVuSans-6d"/>
      <path d="M 48.6875 27.296875 
Q 48.6875 37.203125 44.609375 42.84375 
Q 40.53125 48.484375 33.40625 48.484375 
Q 26.265625 48.484375 22.1875 42.84375 
Q 18.109375 37.203125 18.109375 27.296875 
Q 18.109375 17.390625 22.1875 11.75 
Q 26.265625 6.109375 33.40625 6.109375 
Q 40.53125 6.109375 44.609375 11.75 
Q 48.6875 17.390625 48.6875 27.296875 
z
M 18.109375 46.390625 
Q 20.953125 51.265625 25.265625 53.625 
Q 29.59375 56 35.59375 56 
Q 45.5625 56 51.78125 48.09375 
Q 58.015625 40.1875 58.015625 27.296875 
Q 58.015625 14.40625 51.78125 6.484375 
Q 45.5625 -1.421875 35.59375 -1.421875 
Q 29.59375 -1.421875 25.265625 0.953125 
Q 20.953125 3.328125 18.109375 8.203125 
L 18.109375 0 
L 9.078125 0 
L 9.078125 75.984375 
L 18.109375 75.984375 
z
" id="DejaVuSans-62"/>
      <path d="M 56.203125 29.59375 
L 56.203125 25.203125 
L 14.890625 25.203125 
Q 15.484375 15.921875 20.484375 11.0625 
Q 25.484375 6.203125 34.421875 6.203125 
Q 39.59375 6.203125 44.453125 7.46875 
Q 49.3125 8.734375 54.109375 11.28125 
L 54.109375 2.78125 
Q 49.265625 0.734375 44.1875 -0.34375 
Q 39.109375 -1.421875 33.890625 -1.421875 
Q 20.796875 -1.421875 13.15625 6.1875 
Q 5.515625 13.8125 5.515625 26.8125 
Q 5.515625 40.234375 12.765625 48.109375 
Q 20.015625 56 32.328125 56 
Q 43.359375 56 49.78125 48.890625 
Q 56.203125 41.796875 56.203125 29.59375 
z
M 47.21875 32.234375 
Q 47.125 39.59375 43.09375 43.984375 
Q 39.0625 48.390625 32.421875 48.390625 
Q 24.90625 48.390625 20.390625 44.140625 
Q 15.875 39.890625 15.1875 32.171875 
z
" id="DejaVuSans-65"/>
      <path d="M 41.109375 46.296875 
Q 39.59375 47.171875 37.8125 47.578125 
Q 36.03125 48 33.890625 48 
Q 26.265625 48 22.1875 43.046875 
Q 18.109375 38.09375 18.109375 28.8125 
L 18.109375 0 
L 9.078125 0 
L 9.078125 54.6875 
L 18.109375 54.6875 
L 18.109375 46.1875 
Q 20.953125 51.171875 25.484375 53.578125 
Q 30.03125 56 36.53125 56 
Q 37.453125 56 38.578125 55.875 
Q 39.703125 55.765625 41.0625 55.515625 
z
" id="DejaVuSans-72"/>
      <path id="DejaVuSans-20"/>
      <path d="M 30.609375 48.390625 
Q 23.390625 48.390625 19.1875 42.75 
Q 14.984375 37.109375 14.984375 27.296875 
Q 14.984375 17.484375 19.15625 11.84375 
Q 23.34375 6.203125 30.609375 6.203125 
Q 37.796875 6.203125 41.984375 11.859375 
Q 46.1875 17.53125 46.1875 27.296875 
Q 46.1875 37.015625 41.984375 42.703125 
Q 37.796875 48.390625 30.609375 48.390625 
z
M 30.609375 56 
Q 42.328125 56 49.015625 48.375 
Q 55.71875 40.765625 55.71875 27.296875 
Q 55.71875 13.875 49.015625 6.21875 
Q 42.328125 -1.421875 30.609375 -1.421875 
Q 18.84375 -1.421875 12.171875 6.21875 
Q 5.515625 13.875 5.515625 27.296875 
Q 5.515625 40.765625 12.171875 48.375 
Q 18.84375 56 30.609375 56 
z
" id="DejaVuSans-6f"/>
      <path d="M 37.109375 75.984375 
L 37.109375 68.5 
L 28.515625 68.5 
Q 23.6875 68.5 21.796875 66.546875 
Q 19.921875 64.59375 19.921875 59.515625 
L 19.921875 54.6875 
L 34.71875 54.6875 
L 34.71875 47.703125 
L 19.921875 47.703125 
L 19.921875 0 
L 10.890625 0 
L 10.890625 47.703125 
L 2.296875 47.703125 
L 2.296875 54.6875 
L 10.890625 54.6875 
L 10.890625 58.5 
Q 10.890625 67.625 15.140625 71.796875 
Q 19.390625 75.984375 28.609375 75.984375 
z
" id="DejaVuSans-66"/>
      <path d="M 9.8125 72.90625 
L 55.90625 72.90625 
L 55.90625 64.59375 
L 19.671875 64.59375 
L 19.671875 43.015625 
L 54.390625 43.015625 
L 54.390625 34.71875 
L 19.671875 34.71875 
L 19.671875 8.296875 
L 56.78125 8.296875 
L 56.78125 0 
L 9.8125 0 
z
" id="DejaVuSans-45"/>
      <path d="M 18.109375 8.203125 
L 18.109375 -20.796875 
L 9.078125 -20.796875 
L 9.078125 54.6875 
L 18.109375 54.6875 
L 18.109375 46.390625 
Q 20.953125 51.265625 25.265625 53.625 
Q 29.59375 56 35.59375 56 
Q 45.5625 56 51.78125 48.09375 
Q 58.015625 40.1875 58.015625 27.296875 
Q 58.015625 14.40625 51.78125 6.484375 
Q 45.5625 -1.421875 35.59375 -1.421875 
Q 29.59375 -1.421875 25.265625 0.953125 
Q 20.953125 3.328125 18.109375 8.203125 
z
M 48.6875 27.296875 
Q 48.6875 37.203125 44.609375 42.84375 
Q 40.53125 48.484375 33.40625 48.484375 
Q 26.265625 48.484375 22.1875 42.84375 
Q 18.109375 37.203125 18.109375 27.296875 
Q 18.109375 17.390625 22.1875 11.75 
Q 26.265625 6.109375 33.40625 6.109375 
Q 40.53125 6.109375 44.609375 11.75 
Q 48.6875 17.390625 48.6875 27.296875 
z
" id="DejaVuSans-70"/>
      <path d="M 48.78125 52.59375 
L 48.78125 44.1875 
Q 44.96875 46.296875 41.140625 47.34375 
Q 37.3125 48.390625 33.40625 48.390625 
Q 24.65625 48.390625 19.8125 42.84375 
Q 14.984375 37.3125 14.984375 27.296875 
Q 14.984375 17.28125 19.8125 11.734375 
Q 24.65625 6.203125 33.40625 6.203125 
Q 37.3125 6.203125 41.140625 7.25 
Q 44.96875 8.296875 48.78125 10.40625 
L 48.78125 2.09375 
Q 45.015625 0.34375 40.984375 -0.53125 
Q 36.96875 -1.421875 32.421875 -1.421875 
Q 20.0625 -1.421875 12.78125 6.34375 
Q 5.515625 14.109375 5.515625 27.296875 
Q 5.515625 40.671875 12.859375 48.328125 
Q 20.21875 56 33.015625 56 
Q 37.15625 56 41.109375 55.140625 
Q 45.0625 54.296875 48.78125 52.59375 
z
" id="DejaVuSans-63"/>
      <path d="M 54.890625 33.015625 
L 54.890625 0 
L 45.90625 0 
L 45.90625 32.71875 
Q 45.90625 40.484375 42.875 44.328125 
Q 39.84375 48.1875 33.796875 48.1875 
Q 26.515625 48.1875 22.3125 43.546875 
Q 18.109375 38.921875 18.109375 30.90625 
L 18.109375 0 
L 9.078125 0 
L 9.078125 75.984375 
L 18.109375 75.984375 
L 18.109375 46.1875 
Q 21.34375 51.125 25.703125 53.5625 
Q 30.078125 56 35.796875 56 
Q 45.21875 56 50.046875 50.171875 
Q 54.890625 44.34375 54.890625 33.015625 
z
" id="DejaVuSans-68"/>
      <path d="M 44.28125 53.078125 
L 44.28125 44.578125 
Q 40.484375 46.53125 36.375 47.5 
Q 32.28125 48.484375 27.875 48.484375 
Q 21.1875 48.484375 17.84375 46.4375 
Q 14.5 44.390625 14.5 40.28125 
Q 14.5 37.15625 16.890625 35.375 
Q 19.28125 33.59375 26.515625 31.984375 
L 29.59375 31.296875 
Q 39.15625 29.25 43.1875 25.515625 
Q 47.21875 21.78125 47.21875 15.09375 
Q 47.21875 7.46875 41.1875 3.015625 
Q 35.15625 -1.421875 24.609375 -1.421875 
Q 20.21875 -1.421875 15.453125 -0.5625 
Q 10.6875 0.296875 5.421875 2 
L 5.421875 11.28125 
Q 10.40625 8.6875 15.234375 7.390625 
Q 20.0625 6.109375 24.8125 6.109375 
Q 31.15625 6.109375 34.5625 8.28125 
Q 37.984375 10.453125 37.984375 14.40625 
Q 37.984375 18.0625 35.515625 20.015625 
Q 33.0625 21.96875 24.703125 23.78125 
L 21.578125 24.515625 
Q 13.234375 26.265625 9.515625 29.90625 
Q 5.8125 33.546875 5.8125 39.890625 
Q 5.8125 47.609375 11.28125 51.796875 
Q 16.75 56 26.8125 56 
Q 31.78125 56 36.171875 55.265625 
Q 40.578125 54.546875 44.28125 53.078125 
z
" id="DejaVuSans-73"/>
     </defs>
     <g transform="translate(638.495781 683.174163)scale(0.1 -0.1)">
      <use xlink:href="#DejaVuSans-4e"/>
      <use x="74.804688" xlink:href="#DejaVuSans-75"/>
      <use x="138.183594" xlink:href="#DejaVuSans-6d"/>
      <use x="235.595703" xlink:href="#DejaVuSans-62"/>
      <use x="299.072266" xlink:href="#DejaVuSans-65"/>
      <use x="360.595703" xlink:href="#DejaVuSans-72"/>
      <use x="401.708984" xlink:href="#DejaVuSans-20"/>
      <use x="433.496094" xlink:href="#DejaVuSans-6f"/>
      <use x="494.677734" xlink:href="#DejaVuSans-66"/>
      <use x="529.882812" xlink:href="#DejaVuSans-20"/>
      <use x="561.669922" xlink:href="#DejaVuSans-45"/>
      <use x="624.853516" xlink:href="#DejaVuSans-70"/>
      <use x="688.330078" xlink:href="#DejaVuSans-6f"/>
      <use x="749.511719" xlink:href="#DejaVuSans-63"/>
      <use x="804.492188" xlink:href="#DejaVuSans-68"/>
      <use x="867.871094" xlink:href="#DejaVuSans-73"/>
     </g>
    </g>
   </g>
   <g id="matplotlib.axis_2">
    <g id="ytick_1">
     <g id="line2d_7">
      <defs>
       <path d="M 0 0 
L -3.5 0 
" id="m6f346af573" style="stroke:#000000;stroke-width:0.8;"/>
      </defs>
      <g>
       <use style="stroke:#000000;stroke-width:0.8;" x="166.95" xlink:href="#m6f346af573" y="640.986385"/>
      </g>
     </g>
     <g id="text_8">
      <!-- 0.00 -->
      <defs>
       <path d="M 10.6875 12.40625 
L 21 12.40625 
L 21 0 
L 10.6875 0 
z
" id="DejaVuSans-2e"/>
      </defs>
      <g transform="translate(137.684375 644.785604)scale(0.1 -0.1)">
       <use xlink:href="#DejaVuSans-30"/>
       <use x="63.623047" xlink:href="#DejaVuSans-2e"/>
       <use x="95.410156" xlink:href="#DejaVuSans-30"/>
       <use x="159.033203" xlink:href="#DejaVuSans-30"/>
      </g>
     </g>
    </g>
    <g id="ytick_2">
     <g id="line2d_8">
      <g>
       <use style="stroke:#000000;stroke-width:0.8;" x="166.95" xlink:href="#m6f346af573" y="571.961949"/>
      </g>
     </g>
     <g id="text_9">
      <!-- 0.05 -->
      <defs>
       <path d="M 10.796875 72.90625 
L 49.515625 72.90625 
L 49.515625 64.59375 
L 19.828125 64.59375 
L 19.828125 46.734375 
Q 21.96875 47.46875 24.109375 47.828125 
Q 26.265625 48.1875 28.421875 48.1875 
Q 40.625 48.1875 47.75 41.5 
Q 54.890625 34.8125 54.890625 23.390625 
Q 54.890625 11.625 47.5625 5.09375 
Q 40.234375 -1.421875 26.90625 -1.421875 
Q 22.3125 -1.421875 17.546875 -0.640625 
Q 12.796875 0.140625 7.71875 1.703125 
L 7.71875 11.625 
Q 12.109375 9.234375 16.796875 8.0625 
Q 21.484375 6.890625 26.703125 6.890625 
Q 35.15625 6.890625 40.078125 11.328125 
Q 45.015625 15.765625 45.015625 23.390625 
Q 45.015625 31 40.078125 35.4375 
Q 35.15625 39.890625 26.703125 39.890625 
Q 22.75 39.890625 18.8125 39.015625 
Q 14.890625 38.140625 10.796875 36.28125 
z
" id="DejaVuSans-35"/>
      </defs>
      <g transform="translate(137.684375 575.761168)scale(0.1 -0.1)">
       <use xlink:href="#DejaVuSans-30"/>
       <use x="63.623047" xlink:href="#DejaVuSans-2e"/>
       <use x="95.410156" xlink:href="#DejaVuSans-30"/>
       <use x="159.033203" xlink:href="#DejaVuSans-35"/>
      </g>
     </g>
    </g>
    <g id="ytick_3">
     <g id="line2d_9">
      <g>
       <use style="stroke:#000000;stroke-width:0.8;" x="166.95" xlink:href="#m6f346af573" y="502.937513"/>
      </g>
     </g>
     <g id="text_10">
      <!-- 0.10 -->
      <g transform="translate(137.684375 506.736731)scale(0.1 -0.1)">
       <use xlink:href="#DejaVuSans-30"/>
       <use x="63.623047" xlink:href="#DejaVuSans-2e"/>
       <use x="95.410156" xlink:href="#DejaVuSans-31"/>
       <use x="159.033203" xlink:href="#DejaVuSans-30"/>
      </g>
     </g>
    </g>
    <g id="ytick_4">
     <g id="line2d_10">
      <g>
       <use style="stroke:#000000;stroke-width:0.8;" x="166.95" xlink:href="#m6f346af573" y="433.913076"/>
      </g>
     </g>
     <g id="text_11">
      <!-- 0.15 -->
      <g transform="translate(137.684375 437.712295)scale(0.1 -0.1)">
       <use xlink:href="#DejaVuSans-30"/>
       <use x="63.623047" xlink:href="#DejaVuSans-2e"/>
       <use x="95.410156" xlink:href="#DejaVuSans-31"/>
       <use x="159.033203" xlink:href="#DejaVuSans-35"/>
      </g>
     </g>
    </g>
    <g id="ytick_5">
     <g id="line2d_11">
      <g>
       <use style="stroke:#000000;stroke-width:0.8;" x="166.95" xlink:href="#m6f346af573" y="364.88864"/>
      </g>
     </g>
     <g id="text_12">
      <!-- 0.20 -->
      <g transform="translate(137.684375 368.687859)scale(0.1 -0.1)">
       <use xlink:href="#DejaVuSans-30"/>
       <use x="63.623047" xlink:href="#DejaVuSans-2e"/>
       <use x="95.410156" xlink:href="#DejaVuSans-32"/>
       <use x="159.033203" xlink:href="#DejaVuSans-30"/>
      </g>
     </g>
    </g>
    <g id="ytick_6">
     <g id="line2d_12">
      <g>
       <use style="stroke:#000000;stroke-width:0.8;" x="166.95" xlink:href="#m6f346af573" y="295.864204"/>
      </g>
     </g>
     <g id="text_13">
      <!-- 0.25 -->
      <g transform="translate(137.684375 299.663422)scale(0.1 -0.1)">
       <use xlink:href="#DejaVuSans-30"/>
       <use x="63.623047" xlink:href="#DejaVuSans-2e"/>
       <use x="95.410156" xlink:href="#DejaVuSans-32"/>
       <use x="159.033203" xlink:href="#DejaVuSans-35"/>
      </g>
     </g>
    </g>
    <g id="ytick_7">
     <g id="line2d_13">
      <g>
       <use style="stroke:#000000;stroke-width:0.8;" x="166.95" xlink:href="#m6f346af573" y="226.839767"/>
      </g>
     </g>
     <g id="text_14">
      <!-- 0.30 -->
      <defs>
       <path d="M 40.578125 39.3125 
Q 47.65625 37.796875 51.625 33 
Q 55.609375 28.21875 55.609375 21.1875 
Q 55.609375 10.40625 48.1875 4.484375 
Q 40.765625 -1.421875 27.09375 -1.421875 
Q 22.515625 -1.421875 17.65625 -0.515625 
Q 12.796875 0.390625 7.625 2.203125 
L 7.625 11.71875 
Q 11.71875 9.328125 16.59375 8.109375 
Q 21.484375 6.890625 26.8125 6.890625 
Q 36.078125 6.890625 40.9375 10.546875 
Q 45.796875 14.203125 45.796875 21.1875 
Q 45.796875 27.640625 41.28125 31.265625 
Q 36.765625 34.90625 28.71875 34.90625 
L 20.21875 34.90625 
L 20.21875 43.015625 
L 29.109375 43.015625 
Q 36.375 43.015625 40.234375 45.921875 
Q 44.09375 48.828125 44.09375 54.296875 
Q 44.09375 59.90625 40.109375 62.90625 
Q 36.140625 65.921875 28.71875 65.921875 
Q 24.65625 65.921875 20.015625 65.03125 
Q 15.375 64.15625 9.8125 62.3125 
L 9.8125 71.09375 
Q 15.4375 72.65625 20.34375 73.4375 
Q 25.25 74.21875 29.59375 74.21875 
Q 40.828125 74.21875 47.359375 69.109375 
Q 53.90625 64.015625 53.90625 55.328125 
Q 53.90625 49.265625 50.4375 45.09375 
Q 46.96875 40.921875 40.578125 39.3125 
z
" id="DejaVuSans-33"/>
      </defs>
      <g transform="translate(137.684375 230.638986)scale(0.1 -0.1)">
       <use xlink:href="#DejaVuSans-30"/>
       <use x="63.623047" xlink:href="#DejaVuSans-2e"/>
       <use x="95.410156" xlink:href="#DejaVuSans-33"/>
       <use x="159.033203" xlink:href="#DejaVuSans-30"/>
      </g>
     </g>
    </g>
    <g id="ytick_8">
     <g id="line2d_14">
      <g>
       <use style="stroke:#000000;stroke-width:0.8;" x="166.95" xlink:href="#m6f346af573" y="157.815331"/>
      </g>
     </g>
     <g id="text_15">
      <!-- 0.35 -->
      <g transform="translate(137.684375 161.61455)scale(0.1 -0.1)">
       <use xlink:href="#DejaVuSans-30"/>
       <use x="63.623047" xlink:href="#DejaVuSans-2e"/>
       <use x="95.410156" xlink:href="#DejaVuSans-33"/>
       <use x="159.033203" xlink:href="#DejaVuSans-35"/>
      </g>
     </g>
    </g>
    <g id="ytick_9">
     <g id="line2d_15">
      <g>
       <use style="stroke:#000000;stroke-width:0.8;" x="166.95" xlink:href="#m6f346af573" y="88.790894"/>
      </g>
     </g>
     <g id="text_16">
      <!-- 0.40 -->
      <g transform="translate(137.684375 92.590113)scale(0.1 -0.1)">
       <use xlink:href="#DejaVuSans-30"/>
       <use x="63.623047" xlink:href="#DejaVuSans-2e"/>
       <use x="95.410156" xlink:href="#DejaVuSans-34"/>
       <use x="159.033203" xlink:href="#DejaVuSans-30"/>
      </g>
     </g>
    </g>
    <g id="text_17">
     <!-- Mean Square Error -->
     <defs>
      <path d="M 9.8125 72.90625 
L 24.515625 72.90625 
L 43.109375 23.296875 
L 61.8125 72.90625 
L 76.515625 72.90625 
L 76.515625 0 
L 66.890625 0 
L 66.890625 64.015625 
L 48.09375 14.015625 
L 38.1875 14.015625 
L 19.390625 64.015625 
L 19.390625 0 
L 9.8125 0 
z
" id="DejaVuSans-4d"/>
      <path d="M 34.28125 27.484375 
Q 23.390625 27.484375 19.1875 25 
Q 14.984375 22.515625 14.984375 16.5 
Q 14.984375 11.71875 18.140625 8.90625 
Q 21.296875 6.109375 26.703125 6.109375 
Q 34.1875 6.109375 38.703125 11.40625 
Q 43.21875 16.703125 43.21875 25.484375 
L 43.21875 27.484375 
z
M 52.203125 31.203125 
L 52.203125 0 
L 43.21875 0 
L 43.21875 8.296875 
Q 40.140625 3.328125 35.546875 0.953125 
Q 30.953125 -1.421875 24.3125 -1.421875 
Q 15.921875 -1.421875 10.953125 3.296875 
Q 6 8.015625 6 15.921875 
Q 6 25.140625 12.171875 29.828125 
Q 18.359375 34.515625 30.609375 34.515625 
L 43.21875 34.515625 
L 43.21875 35.40625 
Q 43.21875 41.609375 39.140625 45 
Q 35.0625 48.390625 27.6875 48.390625 
Q 23 48.390625 18.546875 47.265625 
Q 14.109375 46.140625 10.015625 43.890625 
L 10.015625 52.203125 
Q 14.9375 54.109375 19.578125 55.046875 
Q 24.21875 56 28.609375 56 
Q 40.484375 56 46.34375 49.84375 
Q 52.203125 43.703125 52.203125 31.203125 
z
" id="DejaVuSans-61"/>
      <path d="M 54.890625 33.015625 
L 54.890625 0 
L 45.90625 0 
L 45.90625 32.71875 
Q 45.90625 40.484375 42.875 44.328125 
Q 39.84375 48.1875 33.796875 48.1875 
Q 26.515625 48.1875 22.3125 43.546875 
Q 18.109375 38.921875 18.109375 30.90625 
L 18.109375 0 
L 9.078125 0 
L 9.078125 54.6875 
L 18.109375 54.6875 
L 18.109375 46.1875 
Q 21.34375 51.125 25.703125 53.5625 
Q 30.078125 56 35.796875 56 
Q 45.21875 56 50.046875 50.171875 
Q 54.890625 44.34375 54.890625 33.015625 
z
" id="DejaVuSans-6e"/>
      <path d="M 53.515625 70.515625 
L 53.515625 60.890625 
Q 47.90625 63.578125 42.921875 64.890625 
Q 37.9375 66.21875 33.296875 66.21875 
Q 25.25 66.21875 20.875 63.09375 
Q 16.5 59.96875 16.5 54.203125 
Q 16.5 49.359375 19.40625 46.890625 
Q 22.3125 44.4375 30.421875 42.921875 
L 36.375 41.703125 
Q 47.40625 39.59375 52.65625 34.296875 
Q 57.90625 29 57.90625 20.125 
Q 57.90625 9.515625 50.796875 4.046875 
Q 43.703125 -1.421875 29.984375 -1.421875 
Q 24.8125 -1.421875 18.96875 -0.25 
Q 13.140625 0.921875 6.890625 3.21875 
L 6.890625 13.375 
Q 12.890625 10.015625 18.65625 8.296875 
Q 24.421875 6.59375 29.984375 6.59375 
Q 38.421875 6.59375 43.015625 9.90625 
Q 47.609375 13.234375 47.609375 19.390625 
Q 47.609375 24.75 44.3125 27.78125 
Q 41.015625 30.8125 33.5 32.328125 
L 27.484375 33.5 
Q 16.453125 35.6875 11.515625 40.375 
Q 6.59375 45.0625 6.59375 53.421875 
Q 6.59375 63.09375 13.40625 68.65625 
Q 20.21875 74.21875 32.171875 74.21875 
Q 37.3125 74.21875 42.625 73.28125 
Q 47.953125 72.359375 53.515625 70.515625 
z
" id="DejaVuSans-53"/>
      <path d="M 14.796875 27.296875 
Q 14.796875 17.390625 18.875 11.75 
Q 22.953125 6.109375 30.078125 6.109375 
Q 37.203125 6.109375 41.296875 11.75 
Q 45.40625 17.390625 45.40625 27.296875 
Q 45.40625 37.203125 41.296875 42.84375 
Q 37.203125 48.484375 30.078125 48.484375 
Q 22.953125 48.484375 18.875 42.84375 
Q 14.796875 37.203125 14.796875 27.296875 
z
M 45.40625 8.203125 
Q 42.578125 3.328125 38.25 0.953125 
Q 33.9375 -1.421875 27.875 -1.421875 
Q 17.96875 -1.421875 11.734375 6.484375 
Q 5.515625 14.40625 5.515625 27.296875 
Q 5.515625 40.1875 11.734375 48.09375 
Q 17.96875 56 27.875 56 
Q 33.9375 56 38.25 53.625 
Q 42.578125 51.265625 45.40625 46.390625 
L 45.40625 54.6875 
L 54.390625 54.6875 
L 54.390625 -20.796875 
L 45.40625 -20.796875 
z
" id="DejaVuSans-71"/>
     </defs>
     <g transform="translate(131.604688 418.495294)rotate(-90)scale(0.1 -0.1)">
      <use xlink:href="#DejaVuSans-4d"/>
      <use x="86.279297" xlink:href="#DejaVuSans-65"/>
      <use x="147.802734" xlink:href="#DejaVuSans-61"/>
      <use x="209.082031" xlink:href="#DejaVuSans-6e"/>
      <use x="272.460938" xlink:href="#DejaVuSans-20"/>
      <use x="304.248047" xlink:href="#DejaVuSans-53"/>
      <use x="367.724609" xlink:href="#DejaVuSans-71"/>
      <use x="431.201172" xlink:href="#DejaVuSans-75"/>
      <use x="494.580078" xlink:href="#DejaVuSans-61"/>
      <use x="555.859375" xlink:href="#DejaVuSans-72"/>
      <use x="596.941406" xlink:href="#DejaVuSans-65"/>
      <use x="658.464844" xlink:href="#DejaVuSans-20"/>
      <use x="690.251953" xlink:href="#DejaVuSans-45"/>
      <use x="753.435547" xlink:href="#DejaVuSans-72"/>
      <use x="794.533203" xlink:href="#DejaVuSans-72"/>
      <use x="835.615234" xlink:href="#DejaVuSans-6f"/>
      <use x="896.796875" xlink:href="#DejaVuSans-72"/>
     </g>
    </g>
   </g>
   <g id="line2d_16">
    <path clip-path="url(#pe49b478000)" d="M 213.999545 115.020912 
L 215.883411 114.308033 
L 216.825344 114.12034 
L 217.767277 114.0552 
L 218.70921 114.154277 
L 219.651143 114.519031 
L 220.593075 115.371737 
L 221.535008 117.199589 
L 222.476941 121.180213 
L 223.418874 130.703972 
L 224.360807 156.708491 
L 225.30274 221.602588 
L 226.244672 267.938634 
L 227.186605 276.841111 
L 229.070471 290.192985 
L 231.896269 311.381562 
L 233.780135 323.532659 
L 243.199464 381.296113 
L 246.025262 400.884253 
L 249.792993 427.313573 
L 251.676859 438.48139 
L 253.560725 448.0502 
L 255.44459 456.405271 
L 257.328456 463.620119 
L 259.212322 469.759451 
L 261.096188 475.064548 
L 263.921986 482.077837 
L 267.689717 490.668939 
L 272.399382 500.872049 
L 275.22518 506.498965 
L 278.050979 511.573932 
L 280.876777 516.092985 
L 283.702576 520.111566 
L 286.528374 523.690603 
L 289.354173 526.889792 
L 292.179971 529.766741 
L 295.00577 532.374861 
L 298.773501 535.516122 
L 302.541233 538.359678 
L 307.250897 541.60678 
L 312.902494 545.182355 
L 318.554091 548.504609 
L 325.147621 552.127916 
L 331.741151 555.509374 
L 338.334681 558.653188 
L 344.92821 561.556842 
L 351.52174 564.232798 
L 359.057203 567.04887 
L 367.534599 569.958766 
L 376.011994 572.633789 
L 385.431323 575.356632 
L 394.850651 577.840649 
L 405.211912 580.339315 
L 416.515106 582.835532 
L 428.760233 585.305854 
L 441.00536 587.547674 
L 454.19242 589.727769 
L 468.321413 591.822971 
L 483.392338 593.816228 
L 501.289062 595.937432 
L 523.89545 598.381632 
L 546.501839 600.617706 
L 565.340495 602.26627 
L 586.063018 603.851462 
L 608.669406 605.361512 
L 610.553272 605.472616 
L 611.495205 605.384617 
L 612.437138 603.190205 
L 613.37907 549.98865 
L 614.321003 588.288606 
L 615.262936 597.256035 
L 616.204869 610.1598 
L 617.146802 607.591547 
L 618.088735 610.988518 
L 619.030667 523.557294 
L 619.9726 607.234173 
L 620.914533 604.500672 
L 621.856466 602.916563 
L 622.798399 590.85227 
L 623.740332 611.743916 
L 624.682265 595.817445 
L 625.624197 602.976697 
L 626.56613 585.531859 
L 627.508063 600.52414 
L 628.449996 590.369606 
L 629.391929 604.895858 
L 630.333862 602.819997 
L 631.275794 607.707973 
L 632.217727 550.830155 
L 633.15966 607.993994 
L 634.101593 611.55044 
L 635.043526 608.803552 
L 635.985459 577.392355 
L 636.927391 605.19104 
L 637.869324 611.33299 
L 638.811257 610.497727 
L 639.75319 545.133953 
L 640.695123 605.245664 
L 641.637056 612.707082 
L 642.578989 609.400388 
L 644.462854 588.072925 
L 645.404787 611.644694 
L 646.34672 612.341852 
L 647.288653 603.826313 
L 648.230586 558.34626 
L 649.172518 612.573932 
L 650.114451 611.7535 
L 651.056384 613.19175 
L 651.998317 591.793216 
L 652.94025 592.053248 
L 653.882183 606.885585 
L 654.824115 604.468324 
L 655.766048 550.817847 
L 656.707981 611.70142 
L 657.649914 606.789144 
L 658.591847 613.93498 
L 659.53378 600.124308 
L 660.475713 589.132164 
L 661.417645 599.823006 
L 662.359578 614.21019 
L 663.301511 599.956475 
L 664.243444 600.941562 
L 665.185377 602.557924 
L 666.12731 614.11544 
L 667.069242 606.252626 
L 668.011175 599.856864 
L 669.895041 605.654691 
L 670.836974 604.086758 
L 671.778907 578.593135 
L 672.720839 612.687333 
L 673.662772 611.60585 
L 674.604705 611.274848 
L 675.546638 589.107355 
L 676.488571 588.294384 
L 677.430504 605.818608 
L 678.372437 611.021443 
L 679.314369 609.864287 
L 680.256302 613.062713 
L 681.198235 579.423908 
L 682.140168 593.419352 
L 683.082101 614.117971 
L 684.024034 603.586389 
L 684.965966 608.7797 
L 685.907899 573.912969 
L 686.849832 605.613772 
L 687.791765 604.864859 
L 688.733698 614.710656 
L 689.675631 593.185285 
L 690.617563 593.717431 
L 691.559496 612.021452 
L 692.501429 601.356687 
L 693.443362 603.428737 
L 694.385295 584.869122 
L 695.327228 613.582667 
L 696.269161 611.856186 
L 697.211093 611.557447 
L 698.153026 586.407832 
L 699.094959 607.528309 
L 700.036892 614.985856 
L 700.978825 615.88059 
L 701.920758 599.373509 
L 702.86269 613.971806 
L 703.804623 615.220169 
L 704.746556 598.44131 
L 706.630422 616.264182 
L 707.572355 616.063571 
L 708.514287 607.646686 
L 709.45622 615.913931 
L 710.398153 613.037755 
L 711.340086 607.907151 
L 712.282019 612.966844 
L 713.223952 616.500082 
L 714.165885 612.696875 
L 715.107817 613.761407 
L 716.04975 616.655494 
L 716.991683 606.342905 
L 717.933616 613.842527 
L 718.875549 614.575135 
L 719.817482 615.052047 
L 720.759414 609.262323 
L 721.701347 615.239316 
L 722.64328 617.142243 
L 723.585213 604.194052 
L 724.527146 615.931125 
L 725.469079 617.358742 
L 726.411011 614.957673 
L 727.352944 608.516211 
L 728.294877 615.637966 
L 729.23681 617.137859 
L 730.178743 611.31625 
L 731.120676 615.669739 
L 732.062609 617.193339 
L 733.004541 610.767044 
L 733.946474 616.410538 
L 734.888407 616.998026 
L 735.83034 614.245107 
L 736.772273 616.742815 
L 737.714206 616.064069 
L 738.656138 613.629462 
L 739.598071 617.410495 
L 740.540004 616.249559 
L 741.481937 614.712646 
L 742.42387 617.048723 
L 743.365803 616.549768 
L 744.307735 614.281075 
L 745.249668 617.216932 
L 746.191601 617.051317 
L 747.133534 614.753336 
L 748.075467 617.259739 
L 749.0174 617.239816 
L 749.959333 614.83673 
L 750.901265 617.407426 
L 751.843198 617.531587 
L 752.785131 614.854137 
L 753.727064 617.303033 
L 754.668997 617.949649 
L 755.61093 613.990007 
L 756.552862 617.11126 
L 757.494795 618.803119 
L 758.436728 617.577801 
L 759.378661 614.98724 
L 760.320594 617.983675 
L 761.262527 616.692342 
L 762.204459 616.64601 
L 763.146392 618.843356 
L 764.088325 617.322057 
L 765.030258 616.441371 
L 765.972191 617.641389 
L 766.914124 617.823833 
L 767.856057 614.841049 
L 768.797989 617.835292 
L 769.739922 619.435028 
L 770.681855 617.278661 
L 771.623788 617.181675 
L 772.565721 618.286235 
L 773.507654 617.59952 
L 774.449586 615.821914 
L 775.391519 618.006909 
L 776.333452 619.686091 
L 777.275385 617.503912 
L 778.217318 617.917433 
L 779.159251 618.615461 
L 780.101183 617.815507 
L 781.043116 616.147818 
L 781.985049 618.817057 
L 782.926982 619.757763 
L 783.868915 617.904496 
L 785.752781 618.79176 
L 786.694713 618.814397 
L 787.636646 615.675381 
L 788.578579 619.724173 
L 789.520512 619.074594 
L 790.462445 618.759549 
L 791.404378 616.814353 
L 792.34631 619.990213 
L 793.288243 619.824323 
L 794.230176 618.513973 
L 796.114042 619.191396 
L 797.055975 620.316799 
L 797.997907 618.34001 
L 798.93984 619.431768 
L 799.881773 619.436756 
L 800.823706 618.811128 
L 801.765639 616.208435 
L 802.707572 620.487639 
L 803.649505 619.5727 
L 804.591437 619.487118 
L 805.53337 617.892634 
L 806.475303 620.705175 
L 807.417236 619.962939 
L 808.359169 619.39916 
L 809.301102 619.205441 
L 810.243034 620.471876 
L 811.184967 620.503522 
L 812.1269 618.952054 
L 813.068833 620.048719 
L 814.010766 619.944195 
L 814.952699 621.098263 
L 815.894631 618.691923 
L 816.836564 620.191774 
L 817.778497 619.734694 
L 818.72043 620.312962 
L 819.662363 618.971541 
L 820.604296 620.624851 
L 821.546229 620.326407 
L 822.488161 619.723437 
L 823.430094 616.702318 
L 824.372027 621.227657 
L 825.31396 620.28122 
L 826.255893 620.55699 
L 827.197826 620.038521 
L 828.139758 621.388361 
L 829.081691 621.417423 
L 830.023624 619.503518 
L 830.965557 619.677568 
L 831.90749 621.589883 
L 832.849423 620.646768 
L 833.791355 620.30413 
L 834.733288 620.603752 
L 835.675221 621.632267 
L 836.617154 621.100379 
L 837.559087 619.994423 
L 838.50102 621.192658 
L 839.442952 621.180646 
L 840.384885 622.09658 
L 841.326818 619.43445 
L 843.210684 621.727228 
L 844.152617 620.599936 
L 845.09455 620.766551 
L 846.036482 620.333651 
L 846.978415 622.060395 
L 847.920348 620.996361 
L 848.862281 620.923011 
L 849.804214 620.704255 
L 850.746147 622.177213 
L 851.688079 621.158958 
L 852.630012 620.878557 
L 853.571945 621.010764 
L 854.513878 622.28074 
L 855.455811 621.359936 
L 856.397744 620.75548 
L 857.339676 621.384069 
L 858.281609 622.325271 
L 859.223542 621.81286 
L 860.165475 620.407302 
L 861.107408 621.826035 
L 862.049341 622.029604 
L 862.991274 622.866572 
L 863.933206 620.018016 
L 864.875139 619.750551 
L 865.817072 622.424143 
L 866.759005 621.516937 
L 867.700938 621.792995 
L 868.642871 621.039233 
L 869.584803 622.858824 
L 871.468669 621.237377 
L 872.410602 621.808135 
L 873.352535 622.932102 
L 874.294468 622.143564 
L 875.2364 621.115145 
L 876.178333 622.388291 
L 877.120266 622.788469 
L 878.062199 623.047061 
L 879.004132 620.480565 
L 879.946065 622.397082 
L 880.887998 622.80496 
L 881.82993 622.997073 
L 882.771863 620.525281 
L 883.713796 622.67003 
L 884.655729 622.688861 
L 885.597662 623.397248 
L 887.481527 618.618879 
L 888.42346 622.386076 
L 889.365393 622.3972 
L 890.307326 622.577385 
L 891.249259 621.892781 
L 892.191192 623.618556 
L 893.133124 623.134794 
L 894.075057 621.589964 
L 895.01699 622.773555 
L 895.958923 623.570381 
L 896.900856 623.237146 
L 897.842789 621.343461 
L 898.784722 623.288706 
L 899.726654 623.184422 
L 900.668587 623.734616 
L 901.61052 623.346875 
L 902.552453 620.389418 
L 903.494386 622.935738 
L 904.436319 622.869609 
L 905.378251 622.146077 
L 906.320184 622.279455 
L 907.262117 623.6663 
L 908.20405 622.562134 
L 909.145983 623.114478 
L 910.087916 622.341764 
L 911.029848 623.900661 
L 911.971781 623.476403 
L 912.913714 622.262708 
L 914.79758 623.979686 
L 915.739513 623.294558 
L 916.681446 622.240552 
L 917.623378 623.568817 
L 918.565311 623.996317 
L 919.507244 623.856729 
L 920.449177 621.774455 
L 921.39111 623.709852 
L 922.333043 623.886624 
L 923.274975 624.323277 
L 924.216908 621.601877 
L 925.158841 623.177039 
L 926.100774 624.135423 
L 927.042707 623.322456 
L 927.98464 622.710578 
L 928.926572 623.633114 
L 929.868505 624.307396 
L 930.810438 623.727277 
L 931.752371 622.504474 
L 932.694304 623.905445 
L 933.636237 624.335914 
L 934.57817 624.161224 
L 935.520102 622.127258 
L 936.462035 624.082182 
L 937.403968 624.240011 
L 938.345901 624.723194 
L 939.287834 621.978578 
L 941.171699 624.430224 
L 942.113632 623.664625 
L 943.055565 623.352719 
L 943.997498 623.628186 
L 944.939431 624.676595 
L 946.823296 623.234944 
L 948.707162 624.805129 
L 949.649095 624.234773 
L 950.591028 622.976581 
L 951.532961 624.436012 
L 952.474894 624.825548 
L 953.416826 624.941337 
L 954.358759 622.437542 
L 955.300692 624.596569 
L 956.242625 624.66706 
L 957.184558 625.202414 
L 958.126491 622.614893 
L 959.068423 622.464718 
L 960.010356 624.531565 
L 960.952289 624.356308 
L 961.894222 623.964116 
L 962.836155 623.897107 
L 963.778088 625.202634 
L 964.72002 624.659709 
L 965.661953 623.707434 
L 966.603886 624.740892 
L 967.545819 625.325934 
L 968.487752 625.078855 
L 969.429685 623.162243 
L 970.371618 625.104112 
L 971.31355 625.095594 
L 972.255483 625.535532 
L 973.197416 623.300306 
L 974.139349 622.592703 
L 975.081282 624.646076 
L 976.023215 624.801909 
L 976.965147 624.206014 
L 977.90708 624.304923 
L 978.849013 625.611337 
L 979.790946 625.137882 
L 980.732879 623.984698 
L 981.674812 625.332576 
L 982.616744 625.645065 
L 983.558677 625.820428 
L 984.50061 623.23694 
L 985.442543 625.46636 
L 986.384476 625.382735 
L 987.326409 625.737275 
L 988.268342 624.269123 
L 989.210274 623.311312 
L 990.152207 624.966469 
L 991.09414 625.34945 
L 992.036073 623.988466 
L 992.978006 623.722256 
L 993.919939 625.625258 
L 994.861871 625.28542 
L 995.803804 624.769532 
L 996.745737 625.260266 
L 997.68767 626.006095 
L 998.629603 625.689648 
L 999.571536 624.263289 
L 1000.513468 625.843923 
L 1001.455401 625.951944 
L 1002.397334 626.290201 
L 1003.339267 623.580247 
L 1004.2812 625.821133 
L 1005.223133 625.846942 
L 1006.165066 626.31013 
L 1007.106998 623.516022 
L 1008.048931 625.710265 
L 1008.990864 625.946788 
L 1009.932797 625.979214 
L 1010.87473 623.850245 
L 1011.816663 625.928833 
L 1012.758595 625.892328 
L 1013.700528 626.180755 
L 1014.642461 624.704253 
L 1015.584394 622.97714 
L 1016.526327 625.125469 
L 1017.46826 625.670059 
L 1018.410192 625.000285 
L 1019.352125 625.44193 
L 1020.294058 626.626953 
L 1021.235991 626.671029 
L 1022.177924 624.589934 
L 1023.119857 626.508895 
L 1024.06179 626.326848 
L 1025.003722 626.271846 
L 1025.945655 625.593991 
L 1026.887588 625.583833 
L 1027.829521 625.144961 
L 1028.771454 625.569159 
L 1029.713387 626.836773 
L 1030.655319 626.076869 
L 1031.597252 625.986353 
L 1032.539185 626.621713 
L 1033.481118 626.828322 
L 1034.423051 625.102472 
L 1035.364984 625.563267 
L 1036.306916 626.362221 
L 1037.248849 626.465931 
L 1038.190782 625.370805 
L 1039.132715 625.969498 
L 1040.074648 625.649306 
L 1041.016581 626.659715 
L 1041.958514 626.806868 
L 1042.900446 625.081324 
L 1043.842379 626.742476 
L 1044.784312 626.682015 
L 1045.726245 627.150262 
L 1046.668178 624.897172 
L 1047.610111 624.943048 
L 1048.552043 626.336082 
L 1049.493976 626.490806 
L 1050.435909 625.97818 
L 1052.319775 627.173179 
L 1053.261708 627.349202 
L 1054.20364 625.222598 
L 1055.145573 627.058592 
L 1056.087506 627.002341 
L 1057.029439 627.115451 
L 1057.971372 626.222892 
L 1058.913305 623.567226 
L 1059.855238 625.727182 
L 1060.79717 626.564081 
L 1061.739103 626.247211 
L 1062.681036 626.684732 
L 1063.622969 627.569715 
L 1064.564902 627.941629 
L 1065.506835 625.627276 
L 1066.448767 627.525549 
L 1067.3907 627.423718 
L 1068.332633 627.594011 
L 1070.216499 625.118607 
L 1071.158432 626.369852 
L 1072.100364 627.183467 
L 1073.042297 625.864175 
L 1073.98423 626.021351 
L 1074.926163 627.451608 
L 1075.868096 627.799964 
L 1076.810029 625.958822 
L 1077.751962 627.625091 
L 1078.693894 627.542332 
L 1079.635827 627.744795 
L 1080.57776 626.315784 
L 1081.519693 624.126976 
L 1082.461626 626.216553 
L 1083.403559 627.181846 
L 1084.345491 627.283032 
L 1085.287424 627.048206 
L 1086.229357 628.036295 
L 1087.17129 628.404094 
L 1088.113223 626.216371 
L 1089.055156 627.950048 
L 1089.997088 627.866151 
L 1090.939021 628.046692 
L 1091.880954 626.580196 
L 1092.822887 624.408119 
L 1093.76482 626.342576 
L 1094.706753 627.402475 
L 1095.648686 627.509466 
L 1096.590618 627.278975 
L 1097.532551 628.233957 
L 1098.474484 628.639497 
L 1099.416417 626.462968 
L 1100.35835 628.13621 
L 1101.300283 628.094074 
L 1102.242215 628.239527 
L 1103.184148 626.90947 
L 1104.126081 623.938321 
L 1105.068014 626.517296 
L 1106.009947 627.667464 
L 1106.95188 628.119153 
L 1107.893812 627.811893 
L 1108.835745 628.328433 
L 1109.777678 628.485113 
L 1110.719611 627.604092 
L 1111.661544 627.835115 
L 1113.54541 627.911258 
L 1116.371208 627.696597 
L 1117.313141 627.97023 
L 1118.255074 627.935641 
L 1119.197007 627.66052 
L 1121.080872 628.168289 
L 1122.022805 628.070714 
L 1122.964738 627.612982 
L 1123.906671 628.146142 
L 1124.848604 628.361462 
L 1125.790536 628.232346 
L 1126.732469 627.485227 
L 1127.674402 628.41922 
L 1129.558268 628.518277 
L 1130.500201 627.187479 
L 1131.442133 628.563929 
L 1132.384066 628.574445 
L 1133.325999 628.851082 
L 1134.267932 626.874251 
L 1135.209865 628.562858 
L 1136.151798 628.59879 
L 1137.093731 628.84203 
L 1138.035663 626.953766 
L 1138.977596 628.637459 
L 1139.919529 628.669765 
L 1140.861462 628.895832 
L 1141.803395 627.109465 
L 1142.745328 628.715661 
L 1143.68726 628.754183 
L 1144.629193 628.992554 
L 1145.571126 627.174593 
L 1146.513059 628.788922 
L 1147.454992 628.811119 
L 1148.396925 628.965936 
L 1149.338857 627.423105 
L 1150.28079 628.891107 
L 1151.222723 628.92271 
L 1152.164656 629.1432 
L 1153.106589 627.399951 
L 1154.048522 628.952508 
L 1154.990455 628.968028 
L 1154.990455 628.968028 
" style="fill:none;stroke:#008000;stroke-linecap:square;stroke-width:1.5;"/>
   </g>
   <g id="line2d_17">
    <path clip-path="url(#pe49b478000)" d="M 213.999545 115.696567 
L 214.941478 115.229008 
L 215.883411 114.894352 
L 216.825344 114.686418 
L 217.767277 114.614428 
L 218.70921 114.717342 
L 219.651143 115.091071 
L 220.593075 115.944672 
L 221.535008 117.733563 
L 222.476941 121.558443 
L 223.418874 130.607684 
L 224.360807 155.161927 
L 225.30274 215.786224 
L 226.244672 258.036175 
L 227.186605 265.842509 
L 229.070471 278.388802 
L 231.896269 299.054951 
L 233.780135 310.941749 
L 237.547867 332.603343 
L 242.257531 359.502893 
L 244.141396 371.370914 
L 249.792993 408.971423 
L 251.676859 419.543911 
L 253.560725 428.766837 
L 255.44459 436.963141 
L 257.328456 444.149999 
L 259.212322 450.317224 
L 261.096188 455.645618 
L 263.921986 462.643616 
L 267.689717 471.162071 
L 272.399382 481.306978 
L 275.22518 486.951588 
L 278.050979 492.085799 
L 280.876777 496.687931 
L 283.702576 500.794421 
L 286.528374 504.453857 
L 289.354173 507.719755 
L 292.179971 510.646858 
L 295.00577 513.287793 
L 298.773501 516.447953 
L 302.541233 519.287502 
L 307.250897 522.506831 
L 311.960561 525.460815 
L 317.612158 528.74899 
L 324.205688 532.309039 
L 330.799218 535.623281 
L 337.392748 538.709336 
L 343.986278 541.560967 
L 350.579808 544.179528 
L 358.11527 546.909457 
L 365.650733 549.390736 
L 373.186196 551.645517 
L 380.721658 553.681454 
L 388.257121 555.505815 
L 396.734517 557.32526 
L 405.211912 558.922319 
L 414.631241 560.46017 
L 424.050569 561.762384 
L 433.469898 562.838276 
L 443.831159 563.780536 
L 454.19242 564.502401 
L 465.495614 565.077261 
L 478.682674 565.51524 
L 493.7536 565.783144 
L 513.534189 565.898424 
L 538.024443 565.816159 
L 558.746966 565.537043 
L 581.353354 565.00095 
L 608.669406 564.128419 
L 610.553272 564.056378 
L 611.495205 563.894654 
L 612.437138 557.951617 
L 613.37907 510.98475 
L 614.321003 548.233343 
L 615.262936 556.525636 
L 616.204869 567.725971 
L 617.146802 565.55799 
L 618.088735 568.093159 
L 619.030667 484.921488 
L 619.9726 562.242875 
L 620.914533 562.68244 
L 621.856466 561.150477 
L 622.798399 549.844277 
L 623.740332 567.483506 
L 624.682265 554.353337 
L 625.624197 560.948547 
L 626.56613 544.570797 
L 627.508063 553.66692 
L 628.449996 548.970889 
L 629.391929 562.390882 
L 630.333862 560.404151 
L 631.275794 561.55825 
L 632.217727 510.550866 
L 633.15966 564.883126 
L 634.101593 567.554074 
L 635.043526 562.47413 
L 635.985459 535.922401 
L 636.927391 562.11433 
L 637.869324 567.144415 
L 638.811257 564.238368 
L 639.75319 504.418601 
L 640.695123 561.963416 
L 641.637056 566.911118 
L 642.578989 562.493954 
L 643.520921 555.814185 
L 644.462854 545.63247 
L 645.404787 566.86704 
L 646.34672 565.879077 
L 647.288653 560.027897 
L 648.230586 516.977665 
L 649.172518 565.959265 
L 650.114451 564.74516 
L 651.056384 567.552026 
L 651.998317 548.501294 
L 652.94025 548.738872 
L 653.882183 562.328742 
L 654.824115 555.575978 
L 655.766048 508.897482 
L 656.707981 566.399433 
L 657.649914 557.996182 
L 658.591847 567.279514 
L 660.475713 545.45131 
L 661.417645 555.400328 
L 662.359578 567.308613 
L 663.301511 555.324001 
L 664.243444 556.510538 
L 665.185377 552.471603 
L 666.12731 566.724434 
L 668.011175 555.00432 
L 669.895041 560.06332 
L 670.836974 553.700191 
L 671.778907 535.085974 
L 672.720839 566.203387 
L 673.662772 562.435723 
L 674.604705 564.874816 
L 675.546638 544.409138 
L 676.488571 543.620013 
L 677.430504 559.911552 
L 678.372437 561.144043 
L 679.314369 559.733321 
L 680.256302 565.821535 
L 681.198235 534.734001 
L 682.140168 548.10906 
L 683.082101 566.442651 
L 684.024034 552.115838 
L 684.965966 561.881693 
L 685.907899 529.219076 
L 686.849832 559.151973 
L 687.791765 553.183599 
L 688.733698 566.613831 
L 689.675631 547.277621 
L 690.617563 547.771799 
L 691.559496 564.287608 
L 692.501429 548.943969 
L 693.443362 556.489052 
L 694.385295 539.35476 
L 695.327228 565.512042 
L 696.269161 561.001567 
L 697.211093 563.73035 
L 698.153026 540.396105 
L 699.094959 560.226738 
L 700.036892 564.378708 
L 700.978825 566.864447 
L 701.920758 552.421086 
L 702.86269 565.220725 
L 703.804623 564.717591 
L 704.746556 551.174814 
L 705.688489 560.046524 
L 706.630422 566.734622 
L 707.572355 566.864254 
L 708.514287 559.602718 
L 709.45622 564.877279 
L 710.398153 564.289618 
L 711.340086 560.304271 
L 712.282019 564.189089 
L 713.223952 566.724314 
L 714.165885 563.597373 
L 715.107817 564.289344 
L 716.04975 566.150162 
L 716.991683 557.552299 
L 717.933616 565.674941 
L 718.875549 565.248788 
L 719.817482 565.556103 
L 720.759414 560.293616 
L 721.701347 565.108602 
L 722.64328 566.120087 
L 723.585213 555.83549 
L 724.527146 566.290823 
L 725.469079 566.574679 
L 726.411011 565.08354 
L 727.352944 559.359231 
L 728.294877 565.156398 
L 729.23681 566.343624 
L 730.178743 561.93532 
L 731.120676 565.219474 
L 732.062609 566.372137 
L 733.004541 560.931895 
L 733.946474 565.366635 
L 734.888407 566.108868 
L 735.83034 564.435777 
L 736.772273 565.728575 
L 737.714206 565.487067 
L 738.656138 563.453442 
L 739.598071 565.92242 
L 740.540004 565.421251 
L 741.481937 564.417176 
L 742.42387 565.648587 
L 743.365803 565.50449 
L 744.307735 563.71741 
L 745.249668 565.568392 
L 746.191601 565.688594 
L 747.133534 563.990091 
L 748.075467 565.483087 
L 749.0174 565.697373 
L 749.959333 563.843997 
L 750.901265 565.433919 
L 751.843198 565.737061 
L 752.785131 563.672082 
L 753.727064 565.246397 
L 754.668997 565.852349 
L 755.61093 562.60385 
L 756.552862 565.079021 
L 757.494795 565.995537 
L 758.436728 565.04125 
L 759.378661 563.546622 
L 760.320594 565.354723 
L 761.262527 564.986082 
L 762.204459 564.752707 
L 763.146392 565.777656 
L 764.088325 564.924275 
L 765.030258 564.60193 
L 766.914124 565.28687 
L 767.856057 562.630578 
L 768.797989 565.127839 
L 769.739922 565.76427 
L 770.681855 564.519021 
L 771.623788 564.909891 
L 772.565721 565.062266 
L 773.507654 564.853909 
L 774.449586 563.202145 
L 775.391519 564.873841 
L 776.333452 565.65906 
L 777.275385 564.357382 
L 778.217318 565.248764 
L 780.101183 564.691814 
L 781.043116 563.115894 
L 781.985049 565.306595 
L 782.926982 565.6052 
L 783.868915 564.408218 
L 784.810848 565.228958 
L 785.752781 564.832032 
L 786.694713 565.001446 
L 787.636646 562.076669 
L 788.578579 566.390357 
L 789.520512 565.347436 
L 790.462445 564.766013 
L 791.404378 562.992133 
L 792.34631 565.946706 
L 793.288243 565.376774 
L 794.230176 564.456049 
L 795.172109 564.929128 
L 796.114042 564.702202 
L 797.055975 565.259277 
L 797.997907 563.95546 
L 798.93984 565.563577 
L 799.881773 564.693525 
L 800.823706 564.368886 
L 801.765639 561.935089 
L 802.707572 566.163672 
L 803.649505 565.106043 
L 804.591437 564.628937 
L 805.53337 563.17842 
L 806.475303 565.946432 
L 807.417236 565.03258 
L 808.359169 564.428566 
L 809.301102 564.315415 
L 810.243034 565.264848 
L 811.184967 564.995083 
L 812.1269 563.968862 
L 813.068833 565.096009 
L 814.010766 564.419697 
L 814.952699 564.904432 
L 815.894631 563.425817 
L 816.836564 565.186593 
L 817.778497 564.065725 
L 818.72043 564.499681 
L 819.662363 563.434629 
L 820.604296 565.549054 
L 821.546229 564.399986 
L 822.488161 563.954457 
L 823.430094 561.22175 
L 824.372027 565.896716 
L 825.31396 564.923843 
L 826.255893 564.510244 
L 827.197826 563.77237 
L 828.139758 565.436516 
L 829.081691 564.683298 
L 830.023624 563.642756 
L 830.965557 563.578522 
L 831.90749 565.417594 
L 832.849423 564.453358 
L 833.791355 563.954308 
L 834.733288 564.259111 
L 835.675221 565.099527 
L 837.559087 563.612564 
L 838.50102 564.768824 
L 839.442952 564.321498 
L 840.384885 564.476071 
L 841.326818 562.96166 
L 842.268751 563.890648 
L 843.210684 565.044396 
L 844.152617 564.063314 
L 846.036482 563.363623 
L 846.978415 565.188452 
L 847.920348 564.141029 
L 848.862281 563.73418 
L 849.804214 563.504154 
L 850.746147 565.036657 
L 851.688079 564.028419 
L 852.630012 563.56567 
L 853.571945 563.618442 
L 854.513878 564.859957 
L 855.455811 563.9238 
L 856.397744 563.358561 
L 857.339676 563.813345 
L 858.281609 564.598066 
L 859.223542 563.89962 
L 860.165475 563.024033 
L 861.107408 564.126461 
L 862.049341 563.97684 
L 862.991274 564.018732 
L 863.933206 562.491253 
L 864.875139 561.852081 
L 865.817072 564.90393 
L 866.759005 563.954454 
L 867.700938 563.595189 
L 868.642871 562.663161 
L 869.584803 564.861431 
L 870.526736 563.743891 
L 871.468669 563.076911 
L 872.410602 563.41477 
L 873.352535 564.479678 
L 874.294468 563.575633 
L 875.2364 562.865485 
L 876.178333 563.866198 
L 877.120266 563.99563 
L 878.062199 563.673457 
L 879.004132 562.267871 
L 879.946065 563.739144 
L 880.887998 563.866028 
L 881.82993 563.525096 
L 882.771863 562.161568 
L 883.713796 563.896165 
L 884.655729 563.509309 
L 885.597662 563.457331 
L 886.539595 562.11395 
L 887.481527 559.613482 
L 888.42346 564.107849 
L 890.307326 563.207604 
L 891.249259 562.312534 
L 892.191192 564.373116 
L 893.133124 563.330541 
L 894.075057 562.454056 
L 895.958923 563.888939 
L 896.900856 563.189831 
L 897.842789 562.174153 
L 898.784722 563.707526 
L 899.726654 563.163239 
L 900.668587 563.033446 
L 901.61052 562.742731 
L 902.552453 560.873641 
L 903.494386 563.831112 
L 904.436319 562.775172 
L 905.378251 561.968362 
L 906.320184 562.223748 
L 907.262117 563.856092 
L 908.20405 562.985999 
L 909.145983 562.775022 
L 910.087916 561.820926 
L 911.029848 563.912855 
L 911.971781 562.882924 
L 912.913714 562.054288 
L 913.855647 562.706557 
L 914.79758 563.52962 
L 915.739513 562.623114 
L 916.681446 561.911254 
L 917.623378 562.954017 
L 918.565311 563.221392 
L 919.507244 562.615668 
L 920.449177 561.481229 
L 921.39111 562.98428 
L 922.333043 562.839072 
L 923.274975 562.577146 
L 924.216908 561.145533 
L 926.100774 563.263483 
L 927.042707 562.293666 
L 927.98464 561.750293 
L 929.868505 563.138102 
L 931.752371 561.482028 
L 932.694304 562.557355 
L 933.636237 562.845013 
L 934.57817 562.221263 
L 935.520102 561.147191 
L 936.462035 562.613844 
L 938.345901 562.206312 
L 939.287834 560.793703 
L 940.229767 561.352412 
L 941.171699 562.961974 
L 942.113632 562.028687 
L 943.055565 561.588615 
L 943.997498 561.603756 
L 944.939431 562.911768 
L 945.881364 561.981139 
L 946.823296 561.382731 
L 947.765229 561.887257 
L 948.707162 562.706793 
L 950.591028 561.122851 
L 951.532961 562.146572 
L 952.474894 562.359996 
L 953.416826 561.876841 
L 954.358759 560.680667 
L 955.300692 562.21561 
L 957.184558 561.727197 
L 958.126491 560.389626 
L 959.068423 559.711089 
L 960.010356 562.482146 
L 960.952289 561.784712 
L 961.894222 561.273653 
L 962.836155 560.920455 
L 963.778088 562.55272 
L 964.72002 561.642709 
L 965.661953 561.031747 
L 967.545819 562.238537 
L 968.487752 561.525457 
L 969.429685 560.60645 
L 970.371618 562.023847 
L 971.31355 561.605218 
L 972.255483 561.358698 
L 974.139349 559.063535 
L 975.081282 562.009908 
L 976.965147 560.869346 
L 977.90708 560.62755 
L 978.849013 562.207065 
L 979.790946 561.323076 
L 980.732879 560.69641 
L 981.674812 561.583249 
L 982.616744 561.745561 
L 983.558677 561.256808 
L 984.50061 560.125206 
L 985.442543 561.756695 
L 986.384476 561.171148 
L 987.326409 560.901009 
L 989.210274 559.077921 
L 990.152207 561.667608 
L 992.036073 560.037229 
L 992.978006 559.428147 
L 993.919939 561.79285 
L 994.861871 561.04877 
L 995.803804 560.586675 
L 996.745737 560.714579 
L 997.68767 561.687943 
L 999.571536 560.18295 
L 1000.513468 561.322652 
L 1001.455401 561.155622 
L 1002.397334 560.784358 
L 1003.339267 559.590155 
L 1004.2812 561.236163 
L 1006.165066 560.604599 
L 1007.106998 559.300756 
L 1008.048931 560.888464 
L 1008.990864 560.99581 
L 1009.932797 560.477099 
L 1010.87473 559.512368 
L 1011.816663 561.133387 
L 1012.758595 560.549294 
L 1013.700528 560.220537 
L 1014.642461 559.331485 
L 1015.584394 557.545792 
L 1016.526327 560.692318 
L 1018.410192 559.968255 
L 1019.352125 559.885648 
L 1020.294058 561.14925 
L 1022.177924 559.920713 
L 1023.119857 561.134007 
L 1024.06179 560.297769 
L 1025.003722 559.824744 
L 1025.945655 559.057228 
L 1026.887588 559.737982 
L 1027.829521 559.951046 
L 1028.771454 561.359857 
L 1029.713387 560.990058 
L 1030.655319 560.238755 
L 1031.597252 559.777667 
L 1032.539185 560.641616 
L 1033.481118 560.073026 
L 1034.423051 559.25902 
L 1035.364984 559.147686 
L 1036.306916 560.285371 
L 1037.248849 560.177288 
L 1038.190782 559.679177 
L 1039.132715 559.743768 
L 1040.074648 559.082821 
L 1041.016581 560.546352 
L 1042.900446 559.376685 
L 1043.842379 560.317242 
L 1044.784312 559.814683 
L 1045.726245 559.626677 
L 1046.668178 558.628886 
L 1047.610111 558.114503 
L 1048.552043 560.237068 
L 1050.435909 559.505766 
L 1051.377842 559.56973 
L 1052.319775 560.323977 
L 1054.20364 559.151118 
L 1055.145573 560.36366 
L 1056.087506 559.628047 
L 1057.029439 559.246894 
L 1057.971372 558.63581 
L 1058.913305 556.227176 
L 1059.855238 559.474408 
L 1060.79717 559.520996 
L 1062.681036 559.214907 
L 1063.622969 560.106235 
L 1064.564902 559.556844 
L 1065.506835 559.178082 
L 1066.448767 560.239256 
L 1067.3907 559.559795 
L 1068.332633 559.168768 
L 1069.274566 558.476964 
L 1070.216499 557.316283 
L 1071.158432 559.59834 
L 1073.98423 558.091663 
L 1074.926163 559.964606 
L 1075.868096 559.326854 
L 1076.810029 558.924015 
L 1077.751962 559.946505 
L 1078.693894 559.267185 
L 1079.635827 558.892615 
L 1080.57776 558.132119 
L 1081.519693 555.963063 
L 1082.461626 559.015682 
L 1083.403559 559.396361 
L 1084.345491 559.129398 
L 1085.287424 558.533456 
L 1086.229357 559.821978 
L 1087.17129 559.147128 
L 1088.113223 558.831726 
L 1089.055156 559.764336 
L 1089.997088 559.074195 
L 1090.939021 558.70163 
L 1091.880954 557.910922 
L 1092.822887 555.778339 
L 1093.76482 558.728253 
L 1094.706753 559.163132 
L 1095.648686 558.90436 
L 1096.590618 558.322924 
L 1097.532551 559.595158 
L 1098.474484 558.938875 
L 1099.416417 558.625089 
L 1100.35835 559.571162 
L 1101.300283 558.876595 
L 1102.242215 558.479908 
L 1103.184148 557.729841 
L 1104.126081 554.967054 
L 1105.068014 558.437973 
L 1106.009947 559.220554 
L 1106.95188 558.924929 
L 1107.893812 558.30569 
L 1108.835745 559.033731 
L 1109.777678 559.040436 
L 1110.719611 558.615732 
L 1111.661544 558.486024 
L 1112.603477 558.540311 
L 1113.54541 558.888612 
L 1115.429275 558.270045 
L 1116.371208 558.150264 
L 1117.313141 558.781318 
L 1119.197007 558.176151 
L 1120.138939 558.186147 
L 1121.080872 558.72825 
L 1122.964738 558.077921 
L 1124.848604 558.646443 
L 1126.732469 557.941182 
L 1127.674402 558.573371 
L 1128.616335 558.48729 
L 1130.500201 557.747314 
L 1131.442133 558.77513 
L 1132.384066 558.237757 
L 1133.325999 557.979784 
L 1134.267932 557.408374 
L 1135.209865 558.720467 
L 1136.151798 558.121478 
L 1137.093731 557.852087 
L 1138.035663 557.291704 
L 1138.977596 558.641906 
L 1139.919529 558.08556 
L 1140.861462 557.807161 
L 1141.803395 557.331024 
L 1142.745328 558.612915 
L 1143.68726 558.007569 
L 1144.629193 557.707099 
L 1145.571126 557.160585 
L 1146.513059 558.466322 
L 1147.454992 557.979691 
L 1149.338857 557.330287 
L 1150.28079 558.493667 
L 1151.222723 557.876605 
L 1152.164656 557.565088 
L 1153.106589 557.060024 
L 1154.048522 558.309275 
L 1154.990455 557.859539 
L 1154.990455 557.859539 
" style="fill:none;stroke:#ff0000;stroke-linecap:square;stroke-width:1.5;"/>
   </g>
   <g id="patch_3">
    <path d="M 166.95 654.8976 
L 166.95 88.3008 
" style="fill:none;stroke:#000000;stroke-linecap:square;stroke-linejoin:miter;stroke-width:0.8;"/>
   </g>
   <g id="patch_4">
    <path d="M 1202.04 654.8976 
L 1202.04 88.3008 
" style="fill:none;stroke:#000000;stroke-linecap:square;stroke-linejoin:miter;stroke-width:0.8;"/>
   </g>
   <g id="patch_5">
    <path d="M 166.95 654.8976 
L 1202.04 654.8976 
" style="fill:none;stroke:#000000;stroke-linecap:square;stroke-linejoin:miter;stroke-width:0.8;"/>
   </g>
   <g id="patch_6">
    <path d="M 166.95 88.3008 
L 1202.04 88.3008 
" style="fill:none;stroke:#000000;stroke-linecap:square;stroke-linejoin:miter;stroke-width:0.8;"/>
   </g>
   <g id="text_18">
    <!-- Training,Validation Error vs Number of epochs with No drop out,learning_rate=0.05 -->
    <defs>
     <path d="M -0.296875 72.90625 
L 61.375 72.90625 
L 61.375 64.59375 
L 35.5 64.59375 
L 35.5 0 
L 25.59375 0 
L 25.59375 64.59375 
L -0.296875 64.59375 
z
" id="DejaVuSans-54"/>
     <path d="M 9.421875 54.6875 
L 18.40625 54.6875 
L 18.40625 0 
L 9.421875 0 
z
M 9.421875 75.984375 
L 18.40625 75.984375 
L 18.40625 64.59375 
L 9.421875 64.59375 
z
" id="DejaVuSans-69"/>
     <path d="M 45.40625 27.984375 
Q 45.40625 37.75 41.375 43.109375 
Q 37.359375 48.484375 30.078125 48.484375 
Q 22.859375 48.484375 18.828125 43.109375 
Q 14.796875 37.75 14.796875 27.984375 
Q 14.796875 18.265625 18.828125 12.890625 
Q 22.859375 7.515625 30.078125 7.515625 
Q 37.359375 7.515625 41.375 12.890625 
Q 45.40625 18.265625 45.40625 27.984375 
z
M 54.390625 6.78125 
Q 54.390625 -7.171875 48.1875 -13.984375 
Q 42 -20.796875 29.203125 -20.796875 
Q 24.46875 -20.796875 20.265625 -20.09375 
Q 16.0625 -19.390625 12.109375 -17.921875 
L 12.109375 -9.1875 
Q 16.0625 -11.328125 19.921875 -12.34375 
Q 23.78125 -13.375 27.78125 -13.375 
Q 36.625 -13.375 41.015625 -8.765625 
Q 45.40625 -4.15625 45.40625 5.171875 
L 45.40625 9.625 
Q 42.625 4.78125 38.28125 2.390625 
Q 33.9375 0 27.875 0 
Q 17.828125 0 11.671875 7.65625 
Q 5.515625 15.328125 5.515625 27.984375 
Q 5.515625 40.671875 11.671875 48.328125 
Q 17.828125 56 27.875 56 
Q 33.9375 56 38.28125 53.609375 
Q 42.625 51.21875 45.40625 46.390625 
L 45.40625 54.6875 
L 54.390625 54.6875 
z
" id="DejaVuSans-67"/>
     <path d="M 11.71875 12.40625 
L 22.015625 12.40625 
L 22.015625 4 
L 14.015625 -11.625 
L 7.71875 -11.625 
L 11.71875 4 
z
" id="DejaVuSans-2c"/>
     <path d="M 28.609375 0 
L 0.78125 72.90625 
L 11.078125 72.90625 
L 34.1875 11.53125 
L 57.328125 72.90625 
L 67.578125 72.90625 
L 39.796875 0 
z
" id="DejaVuSans-56"/>
     <path d="M 9.421875 75.984375 
L 18.40625 75.984375 
L 18.40625 0 
L 9.421875 0 
z
" id="DejaVuSans-6c"/>
     <path d="M 45.40625 46.390625 
L 45.40625 75.984375 
L 54.390625 75.984375 
L 54.390625 0 
L 45.40625 0 
L 45.40625 8.203125 
Q 42.578125 3.328125 38.25 0.953125 
Q 33.9375 -1.421875 27.875 -1.421875 
Q 17.96875 -1.421875 11.734375 6.484375 
Q 5.515625 14.40625 5.515625 27.296875 
Q 5.515625 40.1875 11.734375 48.09375 
Q 17.96875 56 27.875 56 
Q 33.9375 56 38.25 53.625 
Q 42.578125 51.265625 45.40625 46.390625 
z
M 14.796875 27.296875 
Q 14.796875 17.390625 18.875 11.75 
Q 22.953125 6.109375 30.078125 6.109375 
Q 37.203125 6.109375 41.296875 11.75 
Q 45.40625 17.390625 45.40625 27.296875 
Q 45.40625 37.203125 41.296875 42.84375 
Q 37.203125 48.484375 30.078125 48.484375 
Q 22.953125 48.484375 18.875 42.84375 
Q 14.796875 37.203125 14.796875 27.296875 
z
" id="DejaVuSans-64"/>
     <path d="M 18.3125 70.21875 
L 18.3125 54.6875 
L 36.8125 54.6875 
L 36.8125 47.703125 
L 18.3125 47.703125 
L 18.3125 18.015625 
Q 18.3125 11.328125 20.140625 9.421875 
Q 21.96875 7.515625 27.59375 7.515625 
L 36.8125 7.515625 
L 36.8125 0 
L 27.59375 0 
Q 17.1875 0 13.234375 3.875 
Q 9.28125 7.765625 9.28125 18.015625 
L 9.28125 47.703125 
L 2.6875 47.703125 
L 2.6875 54.6875 
L 9.28125 54.6875 
L 9.28125 70.21875 
z
" id="DejaVuSans-74"/>
     <path d="M 2.984375 54.6875 
L 12.5 54.6875 
L 29.59375 8.796875 
L 46.6875 54.6875 
L 56.203125 54.6875 
L 35.6875 0 
L 23.484375 0 
z
" id="DejaVuSans-76"/>
     <path d="M 4.203125 54.6875 
L 13.1875 54.6875 
L 24.421875 12.015625 
L 35.59375 54.6875 
L 46.1875 54.6875 
L 57.421875 12.015625 
L 68.609375 54.6875 
L 77.59375 54.6875 
L 63.28125 0 
L 52.6875 0 
L 40.921875 44.828125 
L 29.109375 0 
L 18.5 0 
z
" id="DejaVuSans-77"/>
     <path d="M 50.984375 -16.609375 
L 50.984375 -23.578125 
L -0.984375 -23.578125 
L -0.984375 -16.609375 
z
" id="DejaVuSans-5f"/>
     <path d="M 10.59375 45.40625 
L 73.1875 45.40625 
L 73.1875 37.203125 
L 10.59375 37.203125 
z
M 10.59375 25.484375 
L 73.1875 25.484375 
L 73.1875 17.1875 
L 10.59375 17.1875 
z
" id="DejaVuSans-3d"/>
    </defs>
    <g transform="translate(433.441875 82.3008)scale(0.12 -0.12)">
     <use xlink:href="#DejaVuSans-54"/>
     <use x="60.865234" xlink:href="#DejaVuSans-72"/>
     <use x="101.978516" xlink:href="#DejaVuSans-61"/>
     <use x="163.257812" xlink:href="#DejaVuSans-69"/>
     <use x="191.041016" xlink:href="#DejaVuSans-6e"/>
     <use x="254.419922" xlink:href="#DejaVuSans-69"/>
     <use x="282.203125" xlink:href="#DejaVuSans-6e"/>
     <use x="345.582031" xlink:href="#DejaVuSans-67"/>
     <use x="409.058594" xlink:href="#DejaVuSans-2c"/>
     <use x="440.845703" xlink:href="#DejaVuSans-56"/>
     <use x="509.144531" xlink:href="#DejaVuSans-61"/>
     <use x="570.423828" xlink:href="#DejaVuSans-6c"/>
     <use x="598.207031" xlink:href="#DejaVuSans-69"/>
     <use x="625.990234" xlink:href="#DejaVuSans-64"/>
     <use x="689.466797" xlink:href="#DejaVuSans-61"/>
     <use x="750.746094" xlink:href="#DejaVuSans-74"/>
     <use x="789.955078" xlink:href="#DejaVuSans-69"/>
     <use x="817.738281" xlink:href="#DejaVuSans-6f"/>
     <use x="878.919922" xlink:href="#DejaVuSans-6e"/>
     <use x="942.298828" xlink:href="#DejaVuSans-20"/>
     <use x="974.085938" xlink:href="#DejaVuSans-45"/>
     <use x="1037.269531" xlink:href="#DejaVuSans-72"/>
     <use x="1078.367188" xlink:href="#DejaVuSans-72"/>
     <use x="1119.449219" xlink:href="#DejaVuSans-6f"/>
     <use x="1180.630859" xlink:href="#DejaVuSans-72"/>
     <use x="1221.744141" xlink:href="#DejaVuSans-20"/>
     <use x="1253.53125" xlink:href="#DejaVuSans-76"/>
     <use x="1312.710938" xlink:href="#DejaVuSans-73"/>
     <use x="1364.810547" xlink:href="#DejaVuSans-20"/>
     <use x="1396.597656" xlink:href="#DejaVuSans-4e"/>
     <use x="1471.402344" xlink:href="#DejaVuSans-75"/>
     <use x="1534.78125" xlink:href="#DejaVuSans-6d"/>
     <use x="1632.193359" xlink:href="#DejaVuSans-62"/>
     <use x="1695.669922" xlink:href="#DejaVuSans-65"/>
     <use x="1757.193359" xlink:href="#DejaVuSans-72"/>
     <use x="1798.306641" xlink:href="#DejaVuSans-20"/>
     <use x="1830.09375" xlink:href="#DejaVuSans-6f"/>
     <use x="1891.275391" xlink:href="#DejaVuSans-66"/>
     <use x="1926.480469" xlink:href="#DejaVuSans-20"/>
     <use x="1958.267578" xlink:href="#DejaVuSans-65"/>
     <use x="2019.791016" xlink:href="#DejaVuSans-70"/>
     <use x="2083.267578" xlink:href="#DejaVuSans-6f"/>
     <use x="2144.449219" xlink:href="#DejaVuSans-63"/>
     <use x="2199.429688" xlink:href="#DejaVuSans-68"/>
     <use x="2262.808594" xlink:href="#DejaVuSans-73"/>
     <use x="2314.908203" xlink:href="#DejaVuSans-20"/>
     <use x="2346.695312" xlink:href="#DejaVuSans-77"/>
     <use x="2428.482422" xlink:href="#DejaVuSans-69"/>
     <use x="2456.265625" xlink:href="#DejaVuSans-74"/>
     <use x="2495.474609" xlink:href="#DejaVuSans-68"/>
     <use x="2558.853516" xlink:href="#DejaVuSans-20"/>
     <use x="2590.640625" xlink:href="#DejaVuSans-4e"/>
     <use x="2665.445312" xlink:href="#DejaVuSans-6f"/>
     <use x="2726.626953" xlink:href="#DejaVuSans-20"/>
     <use x="2758.414062" xlink:href="#DejaVuSans-64"/>
     <use x="2821.890625" xlink:href="#DejaVuSans-72"/>
     <use x="2862.972656" xlink:href="#DejaVuSans-6f"/>
     <use x="2924.154297" xlink:href="#DejaVuSans-70"/>
     <use x="2987.630859" xlink:href="#DejaVuSans-20"/>
     <use x="3019.417969" xlink:href="#DejaVuSans-6f"/>
     <use x="3080.599609" xlink:href="#DejaVuSans-75"/>
     <use x="3143.978516" xlink:href="#DejaVuSans-74"/>
     <use x="3183.1875" xlink:href="#DejaVuSans-2c"/>
     <use x="3214.974609" xlink:href="#DejaVuSans-6c"/>
     <use x="3242.757812" xlink:href="#DejaVuSans-65"/>
     <use x="3304.28125" xlink:href="#DejaVuSans-61"/>
     <use x="3365.560547" xlink:href="#DejaVuSans-72"/>
     <use x="3406.658203" xlink:href="#DejaVuSans-6e"/>
     <use x="3470.037109" xlink:href="#DejaVuSans-69"/>
     <use x="3497.820312" xlink:href="#DejaVuSans-6e"/>
     <use x="3561.199219" xlink:href="#DejaVuSans-67"/>
     <use x="3624.675781" xlink:href="#DejaVuSans-5f"/>
     <use x="3674.675781" xlink:href="#DejaVuSans-72"/>
     <use x="3715.789062" xlink:href="#DejaVuSans-61"/>
     <use x="3777.068359" xlink:href="#DejaVuSans-74"/>
     <use x="3816.277344" xlink:href="#DejaVuSans-65"/>
     <use x="3877.800781" xlink:href="#DejaVuSans-3d"/>
     <use x="3961.589844" xlink:href="#DejaVuSans-30"/>
     <use x="4025.212891" xlink:href="#DejaVuSans-2e"/>
     <use x="4057" xlink:href="#DejaVuSans-30"/>
     <use x="4120.623047" xlink:href="#DejaVuSans-35"/>
    </g>
   </g>
   <g id="legend_1">
    <g id="patch_7">
     <path d="M 1083.129063 125.935175 
L 1195.04 125.935175 
Q 1197.04 125.935175 1197.04 123.935175 
L 1197.04 95.3008 
Q 1197.04 93.3008 1195.04 93.3008 
L 1083.129063 93.3008 
Q 1081.129063 93.3008 1081.129063 95.3008 
L 1081.129063 123.935175 
Q 1081.129063 125.935175 1083.129063 125.935175 
z
" style="fill:#ffffff;opacity:0.8;stroke:#cccccc;stroke-linejoin:miter;"/>
    </g>
    <g id="line2d_18">
     <path d="M 1085.129063 101.399237 
L 1105.129063 101.399237 
" style="fill:none;stroke:#008000;stroke-linecap:square;stroke-width:1.5;"/>
    </g>
    <g id="line2d_19"/>
    <g id="text_19">
     <!-- Training Error -->
     <g transform="translate(1113.129063 104.899237)scale(0.1 -0.1)">
      <use xlink:href="#DejaVuSans-54"/>
      <use x="60.865234" xlink:href="#DejaVuSans-72"/>
      <use x="101.978516" xlink:href="#DejaVuSans-61"/>
      <use x="163.257812" xlink:href="#DejaVuSans-69"/>
      <use x="191.041016" xlink:href="#DejaVuSans-6e"/>
      <use x="254.419922" xlink:href="#DejaVuSans-69"/>
      <use x="282.203125" xlink:href="#DejaVuSans-6e"/>
      <use x="345.582031" xlink:href="#DejaVuSans-67"/>
      <use x="409.058594" xlink:href="#DejaVuSans-20"/>
      <use x="440.845703" xlink:href="#DejaVuSans-45"/>
      <use x="504.029297" xlink:href="#DejaVuSans-72"/>
      <use x="545.126953" xlink:href="#DejaVuSans-72"/>
      <use x="586.208984" xlink:href="#DejaVuSans-6f"/>
      <use x="647.390625" xlink:href="#DejaVuSans-72"/>
     </g>
    </g>
    <g id="line2d_20">
     <path d="M 1085.129063 116.077362 
L 1105.129063 116.077362 
" style="fill:none;stroke:#ff0000;stroke-linecap:square;stroke-width:1.5;"/>
    </g>
    <g id="line2d_21"/>
    <g id="text_20">
     <!-- Validation_Error -->
     <g transform="translate(1113.129063 119.577362)scale(0.1 -0.1)">
      <use xlink:href="#DejaVuSans-56"/>
      <use x="68.298828" xlink:href="#DejaVuSans-61"/>
      <use x="129.578125" xlink:href="#DejaVuSans-6c"/>
      <use x="157.361328" xlink:href="#DejaVuSans-69"/>
      <use x="185.144531" xlink:href="#DejaVuSans-64"/>
      <use x="248.621094" xlink:href="#DejaVuSans-61"/>
      <use x="309.900391" xlink:href="#DejaVuSans-74"/>
      <use x="349.109375" xlink:href="#DejaVuSans-69"/>
      <use x="376.892578" xlink:href="#DejaVuSans-6f"/>
      <use x="438.074219" xlink:href="#DejaVuSans-6e"/>
      <use x="501.453125" xlink:href="#DejaVuSans-5f"/>
      <use x="551.453125" xlink:href="#DejaVuSans-45"/>
      <use x="614.636719" xlink:href="#DejaVuSans-72"/>
      <use x="655.734375" xlink:href="#DejaVuSans-72"/>
      <use x="696.816406" xlink:href="#DejaVuSans-6f"/>
      <use x="757.998047" xlink:href="#DejaVuSans-72"/>
     </g>
    </g>
   </g>
  </g>
 </g>
 <defs>
  <clipPath id="pe49b478000">
   <rect height="566.5968" width="1035.09" x="166.95" y="88.3008"/>
  </clipPath>
 </defs>
</svg>
